M48
;Layer_Color=9474304
;FILE_FORMAT=4:4
METRIC,LZ
;TYPE=PLATED
T01F00S00C0.3110
T02F00S00C0.4110
T04F00S00C0.6110
T05F00S00C0.8128
T06F00S00C0.8500
T07F00S00C0.9900
T09F00S00C1.0200
T10F00S00C1.0500
T11F00S00C1.6000
%
T01
X000508Y0059055
Y0065405
X0017653Y0080899
X0057023Y0064389
X0057912Y00635
X0064135Y0066548
X00635Y006985
X007112Y0064389
X0072009Y00635
X0078105
X0079375
X0079756Y005969
X0076708Y0072771
T02
X0035306Y0034163
Y0035941
X0013589Y0042037
Y0049784
X0005207Y0053086
X0013843Y0020701
X0024638Y0070485
X0030353Y006604
X0068453Y0065659
T04
X0136017Y0015621
X0107315Y0038989
Y0044069
Y0050419
X0094488Y0038862
X0089408
X0082169
X0077089Y0038989
X006985Y0038862
X0064897
X0064516Y0053594
X0068199Y0052705
X0070612
X0081534Y0047498
X0035941Y0038862
X0033909Y0030861
X0024257Y0032639
X0026035Y0038989
X002032Y0042037
X0020574Y0047371
X0021971Y0050292
X0026162Y0051943
X0008128Y0049784
X0008382Y0042545
X0013843Y0017907
X0014986Y0058293
X001524Y0066802
X0026543Y0061976
X0027178Y0057023
X0026924Y0077597
X0026797Y0080264
X0057023Y008255
X0064516
Y0055626
X0107315Y0055372
Y0061468
T05
X0112268Y0062992
Y0065532
X0119888
Y0062992
T06
X0094488Y0025273
X0097028
Y0032893
X0094488
X0112395Y0039878
Y0042418
Y0044958
Y0047498
Y0051054
Y0053594
X0120015
Y0051054
Y0047498
Y0044958
Y0042418
Y0039878
X0091948Y0032893
X0089408
X0084709
X0082169
X0079629
X0077089
X007239
X006985
X006731
X006477
Y0025273
X006731
X006985
X007239
X0077089
X0079629
X0082169
X0084709
X0089408
X0091948
X0112395Y0056134
Y0058674
X0120015
Y0056134
T07
X0061416Y007649
X0061266Y008099
X0067766
Y007649
T09
X0033909Y0077724
Y0080264
X0036449
Y0077724
T10
X0031663Y0042799
X0034163
T11
X0003048Y0008128
X0008128
X0013208
X0018288
X0024511Y0008001
X0029591
X0034671
X0039751
X0051054Y0007874
X0056134
X0061214
X0066294
X007239Y0007747
X007747
X008255
X008763
X0096266Y0008255
X0101346
X0106426
X0111506
X0117475
X0122555
X0127635
X0132715
X0144272Y0007874
Y0002794
Y0012954
Y0018034
X0144399Y002413
Y002921
Y003429
Y003937
X0144145Y0047752
Y0052832
X0005715Y00762
Y008128
X0116459Y0079121
X0121539
X0126619
X0131699
X0144145Y0079375
Y0084455
Y0074295
Y0069215
Y0062992
Y0057912
M30
