G04*
G04 #@! TF.GenerationSoftware,Altium Limited,Altium Designer,25.4.2 (15)*
G04*
G04 Layer_Color=16711935*
%FSLAX44Y44*%
%MOMM*%
G71*
G04*
G04 #@! TF.SameCoordinates,AB3986B5-8965-4272-984F-493E451A5069*
G04*
G04*
G04 #@! TF.FilePolarity,Positive*
G04*
G01*
G75*
%ADD10C,0.2000*%
%ADD12C,0.1524*%
%ADD14C,0.3000*%
%ADD16C,0.1270*%
%ADD129C,0.0508*%
%ADD130C,0.1300*%
%ADD131C,0.1016*%
%ADD132C,0.1000*%
%ADD133C,0.0500*%
G36*
X91059Y402979D02*
Y395478D01*
X76558D01*
Y402979D01*
X91059D01*
D02*
G37*
G36*
Y417457D02*
Y409956D01*
X76558D01*
Y417457D01*
X91059D01*
D02*
G37*
G36*
X107696Y393446D02*
Y398018D01*
X113538D01*
Y393446D01*
X107696D01*
D02*
G37*
G36*
Y412242D02*
Y416814D01*
X113538D01*
Y412242D01*
X107696D01*
D02*
G37*
G36*
X237109Y293759D02*
Y286258D01*
X222608D01*
Y293759D01*
X237109D01*
D02*
G37*
G36*
Y308237D02*
Y300736D01*
X222608D01*
Y308237D01*
X237109D01*
D02*
G37*
G36*
X127762Y402844D02*
Y407416D01*
X133604D01*
Y402844D01*
X127762D01*
D02*
G37*
G36*
X263779Y293759D02*
Y286258D01*
X249278D01*
Y293759D01*
X263779D01*
D02*
G37*
G36*
Y308237D02*
Y300736D01*
X249278D01*
Y308237D01*
X263779D01*
D02*
G37*
G36*
X268859Y699516D02*
X254358D01*
Y707017D01*
X268859D01*
Y699516D01*
D02*
G37*
G36*
Y685038D02*
X254358D01*
Y692539D01*
X268859D01*
Y685038D01*
D02*
G37*
G36*
X303022Y562968D02*
X295521D01*
Y577469D01*
X303022D01*
Y562968D01*
D02*
G37*
G36*
X288544D02*
X281043D01*
Y577469D01*
X288544D01*
Y562968D01*
D02*
G37*
G36*
X225702Y536821D02*
X211201D01*
Y544322D01*
X225702D01*
Y536821D01*
D02*
G37*
G36*
X83312Y535028D02*
X75811D01*
Y549529D01*
X83312D01*
Y535028D01*
D02*
G37*
G36*
X68834D02*
X61333D01*
Y549529D01*
X68834D01*
Y535028D01*
D02*
G37*
G36*
X225702Y522343D02*
X211201D01*
Y529844D01*
X225702D01*
Y522343D01*
D02*
G37*
G36*
X187587Y424561D02*
X180086D01*
Y439062D01*
X187587D01*
Y424561D01*
D02*
G37*
G36*
X173109D02*
X165608D01*
Y439062D01*
X173109D01*
Y424561D01*
D02*
G37*
G36*
X804012Y720448D02*
X796511D01*
Y734949D01*
X804012D01*
Y720448D01*
D02*
G37*
G36*
X789534D02*
X782033D01*
Y734949D01*
X789534D01*
Y720448D01*
D02*
G37*
G36*
X677807Y695071D02*
X670306D01*
Y709572D01*
X677807D01*
Y695071D01*
D02*
G37*
G36*
X663329D02*
X655828D01*
Y709572D01*
X663329D01*
Y695071D01*
D02*
G37*
G36*
X678467Y653161D02*
X670966D01*
Y667662D01*
X678467D01*
Y653161D01*
D02*
G37*
G36*
X663989D02*
X656488D01*
Y667662D01*
X663989D01*
Y653161D01*
D02*
G37*
G36*
X713382Y549521D02*
X698881D01*
Y557022D01*
X713382D01*
Y549521D01*
D02*
G37*
G36*
X689252D02*
X674751D01*
Y557022D01*
X689252D01*
Y549521D01*
D02*
G37*
G36*
X663852D02*
X649351D01*
Y557022D01*
X663852D01*
Y549521D01*
D02*
G37*
G36*
X713382Y535043D02*
X698881D01*
Y542544D01*
X713382D01*
Y535043D01*
D02*
G37*
G36*
X689252D02*
X674751D01*
Y542544D01*
X689252D01*
Y535043D01*
D02*
G37*
G36*
X663852D02*
X649351D01*
Y542544D01*
X663852D01*
Y535043D01*
D02*
G37*
G36*
X846717Y488061D02*
X839216D01*
Y502562D01*
X846717D01*
Y488061D01*
D02*
G37*
G36*
X832239D02*
X824738D01*
Y502562D01*
X832239D01*
Y488061D01*
D02*
G37*
G36*
X805332Y488038D02*
X797831D01*
Y502539D01*
X805332D01*
Y488038D01*
D02*
G37*
G36*
X790854D02*
X783353D01*
Y502539D01*
X790854D01*
Y488038D01*
D02*
G37*
G36*
X339327Y355981D02*
X331826D01*
Y370482D01*
X339327D01*
Y355981D01*
D02*
G37*
G36*
X324849D02*
X317348D01*
Y370482D01*
X324849D01*
Y355981D01*
D02*
G37*
G36*
X339327Y329311D02*
X331826D01*
Y343812D01*
X339327D01*
Y329311D01*
D02*
G37*
G36*
X324849D02*
X317348D01*
Y343812D01*
X324849D01*
Y329311D01*
D02*
G37*
D10*
X309530Y666290D02*
G03*
X309530Y666290I-1000J0D01*
G01*
X339730Y315470D02*
G03*
X339730Y315470I-1000J0D01*
G01*
X1373720Y180340D02*
G03*
X1373720Y180340I-1000J0D01*
G01*
X1328150Y152550D02*
G03*
X1328150Y152550I-1000J0D01*
G01*
X1116060D02*
G03*
X1116060Y152550I-1000J0D01*
G01*
X183880Y151280D02*
G03*
X183880Y151280I-1000J0D01*
G01*
X663940Y148740D02*
G03*
X663940Y148740I-1000J0D01*
G01*
X117150Y762000D02*
G03*
X117150Y762000I-1000J0D01*
G01*
X398510Y150010D02*
G03*
X398510Y150010I-1000J0D01*
G01*
X1165590Y721210D02*
G03*
X1165590Y721210I-1000J0D01*
G01*
X877300Y147470D02*
G03*
X877300Y147470I-1000J0D01*
G01*
X1372450Y844550D02*
G03*
X1372450Y844550I-1000J0D01*
G01*
Y629920D02*
G03*
X1372450Y629920I-1000J0D01*
G01*
X1374990Y393700D02*
G03*
X1374990Y393700I-1000J0D01*
G01*
X365490Y758040D02*
G03*
X365490Y758040I-1000J0D01*
G01*
X765480Y596920D02*
G03*
X765480Y596920I-1000J0D01*
G01*
X127760Y431610D02*
G03*
X127760Y431610I-1000J0D01*
G01*
X374530Y427990D02*
G03*
X374530Y427990I-1000J0D01*
G01*
D12*
X212599Y765027D02*
G03*
X206501Y764815I-3049J-106D01*
G01*
X229362Y765048D02*
Y814832D01*
X212598Y765048D02*
X229362D01*
X189738D02*
X212598D01*
X189738D02*
Y814832D01*
X229362D01*
X178562Y768350D02*
X189738Y768604D01*
X178562Y768350D02*
Y773176D01*
X189738D01*
Y768604D02*
Y773176D01*
X178562Y781050D02*
X189738Y781304D01*
X178562Y781050D02*
Y785876D01*
X189738D01*
Y781304D02*
Y785876D01*
X178562Y793750D02*
X189738Y794004D01*
X178562Y793750D02*
Y798576D01*
X189738D01*
Y794004D02*
Y798576D01*
X178562Y806450D02*
X189738Y806704D01*
X178562Y806450D02*
Y811276D01*
X189738D01*
Y806704D02*
Y811276D01*
X229362D02*
X240538Y811530D01*
Y806704D02*
Y811530D01*
X229362Y806704D02*
X240538D01*
X229362D02*
Y811276D01*
Y798576D02*
X240538Y798830D01*
Y794004D02*
Y798830D01*
X229362Y794004D02*
X240538D01*
X229362D02*
Y798576D01*
Y785876D02*
X240538Y786130D01*
Y781304D02*
Y786130D01*
X229362Y781304D02*
X240538D01*
X229362D02*
Y785876D01*
Y773176D02*
X240538Y773430D01*
Y768604D02*
Y773430D01*
X229362Y768604D02*
X240538D01*
X229362D02*
Y773176D01*
X821690Y530860D02*
Y537210D01*
Y543560D01*
X808990Y530860D02*
Y537210D01*
Y543560D01*
X812800D02*
X817880D01*
Y530860D02*
Y543560D01*
X812800Y530860D02*
X817880D01*
X812800D02*
Y543560D01*
X872490Y533400D02*
X880110D01*
X872490Y541020D02*
X880110D01*
X872490Y525780D02*
Y533400D01*
Y541020D01*
Y548640D01*
X880110Y533400D02*
Y541020D01*
X758190Y525780D02*
Y548640D01*
X750570Y533400D02*
Y541020D01*
Y533400D02*
X758190D01*
X750570Y541020D02*
X758190D01*
X114046Y390906D02*
X127254D01*
X114046D02*
Y419354D01*
X127254D01*
Y390906D02*
Y419354D01*
D14*
X132220Y207010D02*
G03*
X132220Y207010I-1000J0D01*
G01*
D16*
X1094580Y624940D02*
Y637440D01*
X1074580Y624940D02*
Y637440D01*
Y624940D02*
X1094580D01*
X1074580Y637440D02*
X1094580D01*
X615160Y757400D02*
Y817400D01*
X675160D01*
Y757400D02*
Y817400D01*
X615160Y757400D02*
X675160D01*
X308580Y605340D02*
Y644340D01*
X209580Y605340D02*
Y644340D01*
X308580D01*
X209580Y605340D02*
X308580D01*
X283730Y285470D02*
X348730D01*
X283730Y250470D02*
Y285470D01*
Y250470D02*
X348730D01*
Y285470D01*
X1382720Y2540D02*
Y205740D01*
Y2540D02*
X1521620D01*
Y205740D01*
X1382720D02*
X1521620D01*
X1251110Y167540D02*
X1271110D01*
X1251110Y155040D02*
X1271110D01*
X1251110D02*
Y167540D01*
X1271110Y155040D02*
Y167540D01*
X1149350Y142550D02*
X1352550D01*
X1149350Y3650D02*
Y142550D01*
Y3650D02*
X1352550D01*
Y142550D01*
X937260D02*
X1140460D01*
X937260Y3650D02*
Y142550D01*
Y3650D02*
X1140460D01*
Y142550D01*
X5080Y141280D02*
X208280D01*
X5080Y2380D02*
Y141280D01*
Y2380D02*
X208280D01*
Y141280D01*
X688340Y-160D02*
Y138740D01*
X485140Y-160D02*
X688340D01*
X485140D02*
Y138740D01*
X688340D01*
X2930Y286470D02*
Y376470D01*
X146930Y286470D02*
Y376470D01*
X2930D02*
X146930D01*
X2930Y286470D02*
X146930D01*
X274220Y814550D02*
Y834550D01*
X261720Y814550D02*
Y834550D01*
X274220D01*
X261720Y814550D02*
X274220D01*
X297080D02*
Y834550D01*
X284580Y814550D02*
Y834550D01*
X297080D01*
X284580Y814550D02*
X297080D01*
X262990Y745330D02*
Y765330D01*
X275490Y745330D02*
Y765330D01*
X262990Y745330D02*
X275490D01*
X262990Y765330D02*
X275490D01*
X285850Y745330D02*
Y765330D01*
X298350Y745330D02*
Y765330D01*
X285850Y745330D02*
X298350D01*
X285850Y765330D02*
X298350D01*
X80830Y513180D02*
Y525680D01*
X60830Y513180D02*
Y525680D01*
Y513180D02*
X80830D01*
X60830Y525680D02*
X80830D01*
X106150Y736600D02*
Y838200D01*
X3650D02*
X106150D01*
X3650Y736600D02*
Y838200D01*
Y736600D02*
X106150D01*
X152500Y802800D02*
Y822800D01*
X165000Y802800D02*
Y822800D01*
X152500Y802800D02*
X165000D01*
X152500Y822800D02*
X165000D01*
X144680Y778990D02*
Y798990D01*
X132180Y778990D02*
Y798990D01*
X144680D01*
X132180Y778990D02*
X144680D01*
X704750Y359570D02*
Y379570D01*
X692250Y359570D02*
Y379570D01*
X704750D01*
X692250Y359570D02*
X704750D01*
X655220D02*
Y379570D01*
X642720Y359570D02*
Y379570D01*
X655220D01*
X642720Y359570D02*
X655220D01*
X634900Y255830D02*
X736700D01*
Y325830D01*
X634900D02*
X736700D01*
X634900Y255830D02*
Y325830D01*
X1197050Y385980D02*
Y487780D01*
X1127050D02*
X1197050D01*
X1127050Y385980D02*
Y487780D01*
Y385980D02*
X1197050D01*
Y497740D02*
Y599540D01*
X1127050D02*
X1197050D01*
X1127050Y497740D02*
Y599540D01*
Y497740D02*
X1197050D01*
X422910Y1110D02*
Y140010D01*
X219710Y1110D02*
X422910D01*
X219710D02*
Y140010D01*
X422910D01*
X1139190Y731210D02*
Y870110D01*
X1342390D01*
Y731210D02*
Y870110D01*
X1139190Y731210D02*
X1342390D01*
X827940Y359570D02*
Y379570D01*
X815440Y359570D02*
Y379570D01*
X827940D01*
X815440Y359570D02*
X827940D01*
X777140D02*
Y379570D01*
X764640Y359570D02*
Y379570D01*
X777140D01*
X764640Y359570D02*
X777140D01*
X615790Y151230D02*
X635790D01*
X615790Y163730D02*
X635790D01*
Y151230D02*
Y163730D01*
X615790Y151230D02*
Y163730D01*
X822800Y165000D02*
X842800D01*
X822800Y152500D02*
X842800D01*
X822800D02*
Y165000D01*
X842800Y152500D02*
Y165000D01*
X758090Y255830D02*
X859890D01*
Y325830D01*
X758090D02*
X859890D01*
X758090Y255830D02*
Y325830D01*
X901700Y-1430D02*
Y137470D01*
X698500Y-1430D02*
X901700D01*
X698500D02*
Y137470D01*
X901700D01*
X656750Y601880D02*
X676750D01*
X656750Y589380D02*
X676750D01*
X656750D02*
Y601880D01*
X676750Y589380D02*
Y601880D01*
X933610Y579220D02*
X953610D01*
X933610Y591720D02*
X953610D01*
Y579220D02*
Y591720D01*
X933610Y579220D02*
Y591720D01*
X1074580Y567590D02*
X1094580D01*
X1074580Y555090D02*
X1094580D01*
X1074580D02*
Y567590D01*
X1094580Y555090D02*
Y567590D01*
X1074580Y518060D02*
X1094580D01*
X1074580Y505560D02*
X1094580D01*
X1074580D02*
Y518060D01*
X1094580Y505560D02*
Y518060D01*
X1215550Y701140D02*
X1235550D01*
X1215550Y713640D02*
X1235550D01*
Y701140D02*
Y713640D01*
X1215550Y701140D02*
Y713640D01*
X1381450Y869950D02*
X1520350D01*
Y666750D02*
Y869950D01*
X1381450Y666750D02*
X1520350D01*
X1381450D02*
Y869950D01*
X933610Y725270D02*
X953610D01*
X933610Y737770D02*
X953610D01*
Y725270D02*
Y737770D01*
X933610Y725270D02*
Y737770D01*
Y704950D02*
X953610D01*
X933610Y717450D02*
X953610D01*
Y704950D02*
Y717450D01*
X933610Y704950D02*
Y717450D01*
X933290Y684630D02*
X953290D01*
X933290Y697130D02*
X953290D01*
Y684630D02*
Y697130D01*
X933290Y684630D02*
Y697130D01*
X1357730Y773590D02*
Y793590D01*
X1370230Y773590D02*
Y793590D01*
X1357730Y773590D02*
X1370230D01*
X1357730Y793590D02*
X1370230D01*
X1353920Y556420D02*
Y576420D01*
X1366420Y556420D02*
Y576420D01*
X1353920Y556420D02*
X1366420D01*
X1353920Y576420D02*
X1366420D01*
X1381450Y655320D02*
X1520350D01*
Y452120D02*
Y655320D01*
X1381450Y452120D02*
X1520350D01*
X1381450D02*
Y655320D01*
X1074900Y455830D02*
X1094900D01*
X1074900Y443330D02*
X1094900D01*
X1074900D02*
Y455830D01*
X1094900Y443330D02*
Y455830D01*
X1074900Y405030D02*
X1094900D01*
X1074900Y392530D02*
X1094900D01*
X1074900D02*
Y405030D01*
X1094900Y392530D02*
Y405030D01*
X933610Y663040D02*
X953610D01*
X933610Y675540D02*
X953610D01*
Y663040D02*
Y675540D01*
X933610Y663040D02*
Y675540D01*
Y641450D02*
X953610D01*
X933610Y653950D02*
X953610D01*
Y641450D02*
Y653950D01*
X933610Y641450D02*
Y653950D01*
X1366420Y345600D02*
Y365600D01*
X1353920Y345600D02*
Y365600D01*
X1366420D01*
X1353920Y345600D02*
X1366420D01*
X1383990Y419100D02*
X1522890D01*
Y215900D02*
Y419100D01*
X1383990Y215900D02*
X1522890D01*
X1383990D02*
Y419100D01*
X1365150Y177010D02*
Y197010D01*
X1352650Y177010D02*
Y197010D01*
X1365150D01*
X1352650Y177010D02*
X1365150D01*
X900330Y359570D02*
Y379570D01*
X887830Y359570D02*
Y379570D01*
X900330D01*
X887830Y359570D02*
X900330D01*
X951130D02*
Y379570D01*
X938630Y359570D02*
Y379570D01*
X951130D01*
X938630Y359570D02*
X951130D01*
X1042830Y165000D02*
X1062830D01*
X1042830Y152500D02*
X1062830D01*
X1042830D02*
Y165000D01*
X1062830Y152500D02*
Y165000D01*
X881280Y255830D02*
X983080D01*
Y325830D01*
X881280D02*
X983080D01*
X881280Y255830D02*
Y325830D01*
X933290Y599540D02*
X953290D01*
X933290Y612040D02*
X953290D01*
Y599540D02*
Y612040D01*
X933290Y599540D02*
Y612040D01*
Y621130D02*
X953290D01*
X933290Y633630D02*
X953290D01*
Y621130D02*
Y633630D01*
X933290Y621130D02*
Y633630D01*
X656430Y645060D02*
X676430D01*
X656430Y632560D02*
X676430D01*
X656430D02*
Y645060D01*
X676430Y632560D02*
Y645060D01*
X656750Y623470D02*
X676750D01*
X656750Y610970D02*
X676750D01*
X656750D02*
Y623470D01*
X676750Y610970D02*
Y623470D01*
X349410Y149960D02*
X369410D01*
X349410Y162460D02*
X369410D01*
Y149960D02*
Y162460D01*
X349410Y149960D02*
Y162460D01*
X101760Y172820D02*
X121760D01*
X101760Y185320D02*
X121760D01*
Y172820D02*
Y185320D01*
X101760Y172820D02*
Y185320D01*
X656430Y674470D02*
Y686970D01*
X676430Y674470D02*
Y686970D01*
X656430D02*
X676430D01*
X656430Y674470D02*
X676430D01*
X827480Y620320D02*
Y690320D01*
X757480Y620320D02*
Y690320D01*
X827480D01*
X757480Y620320D02*
X827480D01*
X142400Y671930D02*
Y684430D01*
X122400Y671930D02*
Y684430D01*
Y671930D02*
X142400D01*
X122400Y684430D02*
X142400D01*
X185520Y524670D02*
Y544670D01*
X198020Y524670D02*
Y544670D01*
X185520Y524670D02*
X198020D01*
X185520Y544670D02*
X198020D01*
X122080Y565250D02*
Y577750D01*
X142080Y565250D02*
Y577750D01*
X122080D02*
X142080D01*
X122080Y565250D02*
X142080D01*
X122400Y662840D02*
X142400D01*
X122400Y650340D02*
X142400D01*
X122400D02*
Y662840D01*
X142400Y650340D02*
Y662840D01*
X122080Y599340D02*
X142080D01*
X122080Y586840D02*
X142080D01*
X122080D02*
Y599340D01*
X142080Y586840D02*
Y599340D01*
X122400Y628750D02*
Y641250D01*
X142400Y628750D02*
Y641250D01*
X122400D02*
X142400D01*
X122400Y628750D02*
X142400D01*
X122080Y608430D02*
Y620930D01*
X142080Y608430D02*
Y620930D01*
X122080D02*
X142080D01*
X122080Y608430D02*
X142080D01*
X237590Y522130D02*
X250090D01*
X237590Y542130D02*
X250090D01*
X237590Y522130D02*
Y542130D01*
X250090Y522130D02*
Y542130D01*
X318930Y381100D02*
Y393600D01*
X338930Y381100D02*
Y393600D01*
X318930D02*
X338930D01*
X318930Y381100D02*
X338930D01*
X119220Y200710D02*
Y213310D01*
X99220D02*
X119220D01*
X99220Y200710D02*
Y213310D01*
Y200710D02*
X119220D01*
X185260Y403960D02*
Y416460D01*
X165260Y403960D02*
Y416460D01*
Y403960D02*
X185260D01*
X165260Y416460D02*
X185260D01*
Y383640D02*
Y396140D01*
X165260Y383640D02*
Y396140D01*
Y383640D02*
X185260D01*
X165260Y396140D02*
X185260D01*
X66860Y430135D02*
X105860D01*
X66860Y479185D02*
X105860D01*
Y430135D02*
Y479185D01*
X66860Y430135D02*
Y479185D01*
X185260Y467460D02*
Y479960D01*
X165260Y467460D02*
Y479960D01*
Y467460D02*
X185260D01*
X165260Y479960D02*
X185260D01*
X165260Y447140D02*
Y459640D01*
X185260Y447140D02*
Y459640D01*
X165260D02*
X185260D01*
X165260Y447140D02*
X185260D01*
X160610Y505840D02*
X192610D01*
Y489840D02*
Y505840D01*
X160610Y489840D02*
X192610D01*
X160610D02*
Y505840D01*
X121760Y226160D02*
Y238660D01*
X101760Y226160D02*
Y238660D01*
Y226160D02*
X121760D01*
X101760Y238660D02*
X121760D01*
X292130Y461990D02*
X366130D01*
X292130Y404490D02*
Y461990D01*
Y404490D02*
X366130D01*
Y461990D01*
D129*
X866476Y525847D02*
G03*
X866476Y548573I-16846J11363D01*
G01*
X849630Y524510D02*
G03*
X855198Y525795I0J12700D01*
G01*
Y548625D02*
G03*
X849630Y549910I-5567J-11415D01*
G01*
X855197Y525795D02*
G03*
X855197Y548625I-5567J11415D01*
G01*
X866477Y548573D02*
G03*
X849631Y557530I-16846J-11363D01*
G01*
X764204Y548573D02*
G03*
X764204Y525847I16846J-11363D01*
G01*
X775483Y548625D02*
G03*
X775483Y525795I5567J-11415D01*
G01*
X781051Y557531D02*
G03*
X764204Y548573I0J-20321D01*
G01*
X775482Y525795D02*
G03*
X781050Y524510I5567J11415D01*
G01*
Y549910D02*
G03*
X775482Y548625I0J-12700D01*
G01*
X764203Y525847D02*
G03*
X781049Y516890I16846J11363D01*
G01*
X849629D02*
G03*
X866475Y525847I0J20320D01*
G01*
X821690Y537210D02*
X826770D01*
X803910D02*
X808990D01*
X781050Y516890D02*
X849630D01*
X781050Y524510D02*
X849630D01*
X781050Y557530D02*
X849630D01*
X781050Y549910D02*
X849630D01*
D130*
X4330Y577600D02*
Y667000D01*
Y577600D02*
X69330D01*
Y667000D01*
X4330D02*
X69330D01*
D131*
X662940Y708910D02*
X670560D01*
X663190Y695710D02*
X670560D01*
X255020Y692150D02*
Y699770D01*
X268220Y692400D02*
Y699770D01*
X789280Y734310D02*
X796650D01*
X789280Y721110D02*
X796900D01*
X832100Y488700D02*
X839470D01*
X831850Y501900D02*
X839470D01*
X790600D02*
X797970D01*
X790600Y488700D02*
X798220D01*
X663850Y653800D02*
X671220D01*
X663600Y667000D02*
X671220D01*
X675390Y542290D02*
Y549660D01*
X688590Y542290D02*
Y549910D01*
X699520Y542290D02*
Y549660D01*
X712720Y542290D02*
Y549910D01*
X649990Y542290D02*
Y549660D01*
X663190Y542290D02*
Y549910D01*
X288290Y576830D02*
X295660D01*
X288290Y563630D02*
X295910D01*
X211840Y529590D02*
Y536960D01*
X225040Y529590D02*
Y537210D01*
X68580Y548890D02*
X75950D01*
X68580Y535690D02*
X76200D01*
X324710Y356620D02*
X332080D01*
X324460Y369820D02*
X332080D01*
X324710Y329950D02*
X332080D01*
X324460Y343150D02*
X332080D01*
X90420Y402840D02*
Y410210D01*
X77220Y402590D02*
Y410210D01*
X263140Y293620D02*
Y300990D01*
X249940Y293370D02*
Y300990D01*
X236470Y293620D02*
Y300990D01*
X223270Y293370D02*
Y300990D01*
X172970Y425200D02*
X180340D01*
X172720Y438400D02*
X180340D01*
D132*
X377190Y764540D02*
Y815340D01*
X326390D02*
X377190D01*
X326390Y764540D02*
Y815340D01*
Y764540D02*
X377190D01*
X175910Y284540D02*
Y335580D01*
X202550D01*
Y284540D02*
Y335580D01*
X175910Y284540D02*
X202550D01*
X175910Y292280D02*
X183650Y284540D01*
D133*
X172780Y276060D02*
Y344060D01*
X205680D01*
Y276060D02*
Y344060D01*
X172780Y276060D02*
X205680D01*
M02*
