G04*
G04 #@! TF.GenerationSoftware,Altium Limited,Altium Designer,25.4.2 (15)*
G04*
G04 Layer_Color=32768*
%FSLAX44Y44*%
%MOMM*%
G71*
G04*
G04 #@! TF.SameCoordinates,AB3986B5-8965-4272-984F-493E451A5069*
G04*
G04*
G04 #@! TF.FilePolarity,Positive*
G04*
G01*
G75*
%ADD16C,0.1270*%
%ADD129C,0.0508*%
%ADD133C,0.0500*%
%ADD134C,0.0100*%
D16*
X755340Y552210D02*
Y564710D01*
X875340D01*
Y552210D02*
Y564710D01*
Y552210D02*
X895340D01*
Y522210D02*
Y552210D01*
X875340Y522210D02*
X895340D01*
X875340Y509710D02*
Y522210D01*
X755340Y509710D02*
X875340D01*
X755340D02*
Y522210D01*
X735340D02*
X755340D01*
X735340D02*
Y552210D01*
X755340D01*
D129*
X648020Y712140D02*
X685480D01*
X648020Y692480D02*
X685480D01*
X648020D02*
Y712140D01*
X685480Y692480D02*
Y712140D01*
X251790Y677230D02*
Y714690D01*
X271450Y677230D02*
Y714690D01*
X251790Y677230D02*
X271450D01*
X251790Y714690D02*
X271450D01*
X774360Y717880D02*
Y737540D01*
X811820Y717880D02*
Y737540D01*
X774360D02*
X811820D01*
X774360Y717880D02*
X811820D01*
X854390Y485470D02*
Y505130D01*
X816930Y485470D02*
Y505130D01*
Y485470D02*
X854390D01*
X816930Y505130D02*
X854390D01*
X775680Y485470D02*
Y505130D01*
X813140Y485470D02*
Y505130D01*
X775680D02*
X813140D01*
X775680Y485470D02*
X813140D01*
X686140Y650570D02*
Y670230D01*
X648680Y650570D02*
Y670230D01*
Y650570D02*
X686140D01*
X648680Y670230D02*
X686140D01*
X672160Y527370D02*
X691820D01*
X672160Y564830D02*
X691820D01*
X672160Y527370D02*
Y564830D01*
X691820Y527370D02*
Y564830D01*
X696290Y527370D02*
X715950D01*
X696290Y564830D02*
X715950D01*
X696290Y527370D02*
Y564830D01*
X715950Y527370D02*
Y564830D01*
X646760Y527370D02*
X666420D01*
X646760Y564830D02*
X666420D01*
X646760Y527370D02*
Y564830D01*
X666420Y527370D02*
Y564830D01*
X273370Y560400D02*
Y580060D01*
X310830Y560400D02*
Y580060D01*
X273370D02*
X310830D01*
X273370Y560400D02*
X310830D01*
X208610Y514670D02*
X228270D01*
X208610Y552130D02*
X228270D01*
X208610Y514670D02*
Y552130D01*
X228270Y514670D02*
Y552130D01*
X53660Y532460D02*
Y552120D01*
X91120Y532460D02*
Y552120D01*
X53660D02*
X91120D01*
X53660Y532460D02*
X91120D01*
X347000Y353390D02*
Y373050D01*
X309540Y353390D02*
Y373050D01*
Y353390D02*
X347000D01*
X309540Y373050D02*
X347000D01*
Y326720D02*
Y346380D01*
X309540Y326720D02*
Y346380D01*
Y326720D02*
X347000D01*
X309540Y346380D02*
X347000D01*
X73990Y425130D02*
X93650D01*
X73990Y387670D02*
X93650D01*
Y425130D01*
X73990Y387670D02*
Y425130D01*
X246710Y315910D02*
X266370D01*
X246710Y278450D02*
X266370D01*
Y315910D01*
X246710Y278450D02*
Y315910D01*
X220040D02*
X239700D01*
X220040Y278450D02*
X239700D01*
Y315910D01*
X220040Y278450D02*
Y315910D01*
X195260Y421970D02*
Y441630D01*
X157800Y421970D02*
Y441630D01*
Y421970D02*
X195260D01*
X157800Y441630D02*
X195260D01*
D133*
X1104580Y622440D02*
Y639940D01*
X1064580D02*
X1104580D01*
X1064580Y622440D02*
Y639940D01*
Y622440D02*
X1104580D01*
X602660Y819900D02*
X687660D01*
Y754900D02*
Y819900D01*
X602660Y754900D02*
X687660D01*
X602660D02*
Y819900D01*
X311080Y587740D02*
Y661940D01*
X207080Y587740D02*
Y661940D01*
X311080D01*
X207080Y587740D02*
X311080D01*
X351230Y225420D02*
Y310520D01*
X281230Y225420D02*
X351230D01*
X281230D02*
Y310520D01*
X351230D01*
X1380220Y40D02*
X1524120D01*
X1380220Y208240D02*
X1524120D01*
X1380220Y40D02*
Y208240D01*
X1524120Y40D02*
Y208240D01*
X1241110Y152540D02*
X1281110D01*
X1241110D02*
Y170040D01*
X1281110D01*
Y152540D02*
Y170040D01*
X1146850Y1150D02*
Y145050D01*
X1355050Y1150D02*
Y145050D01*
X1146850D02*
X1355050D01*
X1146850Y1150D02*
X1355050D01*
X934760D02*
Y145050D01*
X1142960Y1150D02*
Y145050D01*
X934760D02*
X1142960D01*
X934760Y1150D02*
X1142960D01*
X2580Y-120D02*
Y143780D01*
X210780Y-120D02*
Y143780D01*
X2580D02*
X210780D01*
X2580Y-120D02*
X210780D01*
X482640Y-2660D02*
X690840D01*
X482640Y141240D02*
X690840D01*
Y-2660D02*
Y141240D01*
X482640Y-2660D02*
Y141240D01*
X149430Y354970D02*
X155430D01*
Y308970D02*
Y354970D01*
X149430Y308970D02*
X155430D01*
X149430Y283970D02*
Y308970D01*
Y354970D02*
Y378970D01*
X-70D02*
X149430D01*
X-70Y283970D02*
Y378970D01*
Y283970D02*
X84430D01*
Y270470D02*
Y283970D01*
Y270470D02*
X135430D01*
Y283970D01*
X149430D01*
X259220Y804550D02*
Y844550D01*
X276720D01*
Y804550D02*
Y844550D01*
X259220Y804550D02*
X276720D01*
X282080D02*
Y844550D01*
X299580D01*
Y804550D02*
Y844550D01*
X282080Y804550D02*
X299580D01*
X277990Y735330D02*
Y775330D01*
X260490Y735330D02*
X277990D01*
X260490D02*
Y775330D01*
X277990D01*
X300850Y735330D02*
Y775330D01*
X283350Y735330D02*
X300850D01*
X283350D02*
Y775330D01*
X300850D01*
X53750Y509600D02*
Y529260D01*
X87910Y509600D02*
Y529260D01*
X53750Y509600D02*
X87910D01*
X53750Y529260D02*
X87910D01*
X1150Y840700D02*
X108650D01*
X1150Y734100D02*
X108650D01*
Y840700D01*
X1150Y734100D02*
Y840700D01*
X167500Y792800D02*
Y832800D01*
X150000Y792800D02*
X167500D01*
X150000D02*
Y832800D01*
X167500D01*
X129680Y768990D02*
Y808990D01*
X147180D01*
Y768990D02*
Y808990D01*
X129680Y768990D02*
X147180D01*
X689750Y349570D02*
Y389570D01*
X707250D01*
Y349570D02*
Y389570D01*
X689750Y349570D02*
X707250D01*
X640220D02*
Y389570D01*
X657720D01*
Y349570D02*
Y389570D01*
X640220Y349570D02*
X657720D01*
X632400Y243330D02*
X739200D01*
Y338330D01*
X632400D02*
X739200D01*
X632400Y243330D02*
Y338330D01*
X1209550Y383480D02*
Y490280D01*
X1114550D02*
X1209550D01*
X1114550Y383480D02*
Y490280D01*
Y383480D02*
X1209550D01*
Y495240D02*
Y602040D01*
X1114550D02*
X1209550D01*
X1114550Y495240D02*
Y602040D01*
Y495240D02*
X1209550D01*
X217210Y-1390D02*
X425410D01*
X217210Y142510D02*
X425410D01*
Y-1390D02*
Y142510D01*
X217210Y-1390D02*
Y142510D01*
X1136690Y872610D02*
X1344890D01*
X1136690Y728710D02*
X1344890D01*
X1136690D02*
Y872610D01*
X1344890Y728710D02*
Y872610D01*
X812940Y349570D02*
Y389570D01*
X830440D01*
Y349570D02*
Y389570D01*
X812940Y349570D02*
X830440D01*
X762140D02*
Y389570D01*
X779640D01*
Y349570D02*
Y389570D01*
X762140Y349570D02*
X779640D01*
X605790Y166230D02*
X645790D01*
Y148730D02*
Y166230D01*
X605790Y148730D02*
X645790D01*
X605790D02*
Y166230D01*
X812800Y150000D02*
X852800D01*
X812800D02*
Y167500D01*
X852800D01*
Y150000D02*
Y167500D01*
X755590Y243330D02*
X862390D01*
Y338330D01*
X755590D02*
X862390D01*
X755590Y243330D02*
Y338330D01*
X696000Y-3930D02*
X904200D01*
X696000Y139970D02*
X904200D01*
Y-3930D02*
Y139970D01*
X696000Y-3930D02*
Y139970D01*
X646750Y586880D02*
X686750D01*
X646750D02*
Y604380D01*
X686750D01*
Y586880D02*
Y604380D01*
X923610Y594220D02*
X963610D01*
Y576720D02*
Y594220D01*
X923610Y576720D02*
X963610D01*
X923610D02*
Y594220D01*
X1064580Y552590D02*
X1104580D01*
X1064580D02*
Y570090D01*
X1104580D01*
Y552590D02*
Y570090D01*
X1064580Y503060D02*
X1104580D01*
X1064580D02*
Y520560D01*
X1104580D01*
Y503060D02*
Y520560D01*
X1205550Y716140D02*
X1245550D01*
Y698640D02*
Y716140D01*
X1205550Y698640D02*
X1245550D01*
X1205550D02*
Y716140D01*
X1522850Y664250D02*
Y872450D01*
X1378950Y664250D02*
Y872450D01*
X1522850D01*
X1378950Y664250D02*
X1522850D01*
X923610Y740270D02*
X963610D01*
Y722770D02*
Y740270D01*
X923610Y722770D02*
X963610D01*
X923610D02*
Y740270D01*
Y719950D02*
X963610D01*
Y702450D02*
Y719950D01*
X923610Y702450D02*
X963610D01*
X923610D02*
Y719950D01*
X923290Y699630D02*
X963290D01*
Y682130D02*
Y699630D01*
X923290Y682130D02*
X963290D01*
X923290D02*
Y699630D01*
X1372730Y763590D02*
Y803590D01*
X1355230Y763590D02*
X1372730D01*
X1355230D02*
Y803590D01*
X1372730D01*
X1368920Y546420D02*
Y586420D01*
X1351420Y546420D02*
X1368920D01*
X1351420D02*
Y586420D01*
X1368920D01*
X1522850Y449620D02*
Y657820D01*
X1378950Y449620D02*
Y657820D01*
X1522850D01*
X1378950Y449620D02*
X1522850D01*
X1064900Y440830D02*
X1104900D01*
X1064900D02*
Y458330D01*
X1104900D01*
Y440830D02*
Y458330D01*
X1064900Y390030D02*
X1104900D01*
X1064900D02*
Y407530D01*
X1104900D01*
Y390030D02*
Y407530D01*
X923610Y678040D02*
X963610D01*
Y660540D02*
Y678040D01*
X923610Y660540D02*
X963610D01*
X923610D02*
Y678040D01*
Y656450D02*
X963610D01*
Y638950D02*
Y656450D01*
X923610Y638950D02*
X963610D01*
X923610D02*
Y656450D01*
X1351420Y335600D02*
Y375600D01*
X1368920D01*
Y335600D02*
Y375600D01*
X1351420Y335600D02*
X1368920D01*
X1525390Y213400D02*
Y421600D01*
X1381490Y213400D02*
Y421600D01*
X1525390D01*
X1381490Y213400D02*
X1525390D01*
X1350150Y167010D02*
Y207010D01*
X1367650D01*
Y167010D02*
Y207010D01*
X1350150Y167010D02*
X1367650D01*
X885330Y349570D02*
Y389570D01*
X902830D01*
Y349570D02*
Y389570D01*
X885330Y349570D02*
X902830D01*
X936130D02*
Y389570D01*
X953630D01*
Y349570D02*
Y389570D01*
X936130Y349570D02*
X953630D01*
X1032830Y150000D02*
X1072830D01*
X1032830D02*
Y167500D01*
X1072830D01*
Y150000D02*
Y167500D01*
X878780Y243330D02*
X985580D01*
Y338330D01*
X878780D02*
X985580D01*
X878780Y243330D02*
Y338330D01*
X923290Y614540D02*
X963290D01*
Y597040D02*
Y614540D01*
X923290Y597040D02*
X963290D01*
X923290D02*
Y614540D01*
Y636130D02*
X963290D01*
Y618630D02*
Y636130D01*
X923290Y618630D02*
X963290D01*
X923290D02*
Y636130D01*
X646430Y630060D02*
X686430D01*
X646430D02*
Y647560D01*
X686430D01*
Y630060D02*
Y647560D01*
X646750Y608470D02*
X686750D01*
X646750D02*
Y625970D01*
X686750D01*
Y608470D02*
Y625970D01*
X339410Y164960D02*
X379410D01*
Y147460D02*
Y164960D01*
X339410Y147460D02*
X379410D01*
X339410D02*
Y164960D01*
X91760Y187820D02*
X131760D01*
Y170320D02*
Y187820D01*
X91760Y170320D02*
X131760D01*
X91760D02*
Y187820D01*
X379690Y762040D02*
Y817840D01*
X323890D02*
X379690D01*
X323890Y762040D02*
Y817840D01*
Y762040D02*
X379690D01*
X646430Y671970D02*
Y689470D01*
Y671970D02*
X686430D01*
Y689470D01*
X646430D02*
X686430D01*
X844030Y603770D02*
Y706870D01*
X740930Y603770D02*
Y706870D01*
Y603770D02*
X844030D01*
X740930Y706870D02*
X844030D01*
X152400Y669430D02*
Y686930D01*
X112400D02*
X152400D01*
X112400Y669430D02*
Y686930D01*
Y669430D02*
X152400D01*
X181940Y517590D02*
Y551750D01*
X201600Y517590D02*
Y551750D01*
X181940D02*
X201600D01*
X181940Y517590D02*
X201600D01*
X112080Y562750D02*
Y580250D01*
Y562750D02*
X152080D01*
Y580250D01*
X112080D02*
X152080D01*
X112400Y647840D02*
X152400D01*
X112400D02*
Y665340D01*
X152400D01*
Y647840D02*
Y665340D01*
X112080Y584340D02*
X152080D01*
X112080D02*
Y601840D01*
X152080D01*
Y584340D02*
Y601840D01*
X112400Y626250D02*
Y643750D01*
Y626250D02*
X152400D01*
Y643750D01*
X112400D02*
X152400D01*
X112080Y605930D02*
Y623430D01*
Y605930D02*
X152080D01*
Y623430D01*
X112080D02*
X152080D01*
X235090Y512130D02*
X252590D01*
Y552130D01*
X235090D02*
X252590D01*
X235090Y512130D02*
Y552130D01*
X308930Y378600D02*
Y396100D01*
Y378600D02*
X348930D01*
Y396100D01*
X308930D02*
X348930D01*
X125820Y196420D02*
Y217600D01*
X92620D02*
X125820D01*
X92620Y196420D02*
Y217600D01*
Y196420D02*
X125820D01*
X195260Y401460D02*
Y418960D01*
X155260D02*
X195260D01*
X155260Y401460D02*
Y418960D01*
Y401460D02*
X195260D01*
Y381140D02*
Y398640D01*
X155260D02*
X195260D01*
X155260Y381140D02*
Y398640D01*
Y381140D02*
X195260D01*
X49310Y427635D02*
X123410D01*
X49310Y481685D02*
X123410D01*
Y427635D02*
Y481685D01*
X49310Y427635D02*
Y481685D01*
X195260Y464960D02*
Y482460D01*
X155260D02*
X195260D01*
X155260Y464960D02*
Y482460D01*
Y464960D02*
X195260D01*
X155260Y444640D02*
Y462140D01*
Y444640D02*
X195260D01*
Y462140D01*
X155260D02*
X195260D01*
X151610Y485340D02*
Y510340D01*
X201610D01*
Y485340D02*
Y510340D01*
X151610Y485340D02*
X201610D01*
X131760Y223660D02*
Y241160D01*
X91760D02*
X131760D01*
X91760Y223660D02*
Y241160D01*
Y223660D02*
X131760D01*
X289630Y464490D02*
X368630D01*
Y401990D02*
Y464490D01*
X289630Y401990D02*
X368630D01*
X289630D02*
Y464490D01*
D134*
X1330Y673500D02*
X79830D01*
X1330Y571100D02*
Y673500D01*
Y571100D02*
X79830D01*
Y673500D01*
M02*
