G04*
G04 #@! TF.GenerationSoftware,Altium Limited,Altium Designer,25.4.2 (15)*
G04*
G04 Layer_Color=8388736*
%FSLAX44Y44*%
%MOMM*%
G71*
G04*
G04 #@! TF.SameCoordinates,AB3986B5-8965-4272-984F-493E451A5069*
G04*
G04*
G04 #@! TF.FilePolarity,Negative*
G04*
G01*
G75*
%ADD39R,1.5540X1.5540*%
G04:AMPARAMS|DCode=40|XSize=2.374mm|YSize=1.004mm|CornerRadius=0.277mm|HoleSize=0mm|Usage=FLASHONLY|Rotation=270.000|XOffset=0mm|YOffset=0mm|HoleType=Round|Shape=RoundedRectangle|*
%AMROUNDEDRECTD40*
21,1,2.3740,0.4500,0,0,270.0*
21,1,1.8200,1.0040,0,0,270.0*
1,1,0.5540,-0.2250,-0.9100*
1,1,0.5540,-0.2250,0.9100*
1,1,0.5540,0.2250,0.9100*
1,1,0.5540,0.2250,-0.9100*
%
%ADD40ROUNDEDRECTD40*%
G04:AMPARAMS|DCode=41|XSize=2.244mm|YSize=1.334mm|CornerRadius=0.3182mm|HoleSize=0mm|Usage=FLASHONLY|Rotation=270.000|XOffset=0mm|YOffset=0mm|HoleType=Round|Shape=RoundedRectangle|*
%AMROUNDEDRECTD41*
21,1,2.2440,0.6975,0,0,270.0*
21,1,1.6075,1.3340,0,0,270.0*
1,1,0.6365,-0.3488,-0.8038*
1,1,0.6365,-0.3488,0.8038*
1,1,0.6365,0.3488,0.8038*
1,1,0.6365,0.3488,-0.8038*
%
%ADD41ROUNDEDRECTD41*%
%ADD42R,1.2770X0.4250*%
%ADD43R,1.2770X0.7170*%
%ADD44R,1.7040X1.9040*%
%ADD45R,1.5540X1.5540*%
%ADD46R,1.6040X1.8740*%
%ADD47R,1.9040X1.7040*%
%ADD48R,2.3852X0.9374*%
%ADD49R,5.9040X2.4040*%
G04:AMPARAMS|DCode=50|XSize=0.954mm|YSize=1.874mm|CornerRadius=0.2708mm|HoleSize=0mm|Usage=FLASHONLY|Rotation=90.000|XOffset=0mm|YOffset=0mm|HoleType=Round|Shape=RoundedRectangle|*
%AMROUNDEDRECTD50*
21,1,0.9540,1.3325,0,0,90.0*
21,1,0.4125,1.8740,0,0,90.0*
1,1,0.5415,0.6663,0.2063*
1,1,0.5415,0.6663,-0.2063*
1,1,0.5415,-0.6663,-0.2063*
1,1,0.5415,-0.6663,0.2063*
%
%ADD50ROUNDEDRECTD50*%
G04:AMPARAMS|DCode=51|XSize=1.874mm|YSize=0.954mm|CornerRadius=0.2708mm|HoleSize=0mm|Usage=FLASHONLY|Rotation=90.000|XOffset=0mm|YOffset=0mm|HoleType=Round|Shape=RoundedRectangle|*
%AMROUNDEDRECTD51*
21,1,1.8740,0.4125,0,0,90.0*
21,1,1.3325,0.9540,0,0,90.0*
1,1,0.5415,0.2063,0.6663*
1,1,0.5415,0.2063,-0.6663*
1,1,0.5415,-0.2063,-0.6663*
1,1,0.5415,-0.2063,0.6663*
%
%ADD51ROUNDEDRECTD51*%
%ADD52R,1.8740X1.6040*%
%ADD53R,1.8040X1.4040*%
%ADD54R,1.9540X2.6040*%
G04:AMPARAMS|DCode=55|XSize=1.264mm|YSize=1.764mm|CornerRadius=0.417mm|HoleSize=0mm|Usage=FLASHONLY|Rotation=180.000|XOffset=0mm|YOffset=0mm|HoleType=Round|Shape=RoundedRectangle|*
%AMROUNDEDRECTD55*
21,1,1.2640,0.9300,0,0,180.0*
21,1,0.4300,1.7640,0,0,180.0*
1,1,0.8340,-0.2150,0.4650*
1,1,0.8340,0.2150,0.4650*
1,1,0.8340,0.2150,-0.4650*
1,1,0.8340,-0.2150,-0.4650*
%
%ADD55ROUNDEDRECTD55*%
G04:AMPARAMS|DCode=56|XSize=2.374mm|YSize=1.004mm|CornerRadius=0.277mm|HoleSize=0mm|Usage=FLASHONLY|Rotation=180.000|XOffset=0mm|YOffset=0mm|HoleType=Round|Shape=RoundedRectangle|*
%AMROUNDEDRECTD56*
21,1,2.3740,0.4500,0,0,180.0*
21,1,1.8200,1.0040,0,0,180.0*
1,1,0.5540,-0.9100,0.2250*
1,1,0.5540,0.9100,0.2250*
1,1,0.5540,0.9100,-0.2250*
1,1,0.5540,-0.9100,-0.2250*
%
%ADD56ROUNDEDRECTD56*%
G04:AMPARAMS|DCode=57|XSize=1.704mm|YSize=2.204mm|CornerRadius=0.397mm|HoleSize=0mm|Usage=FLASHONLY|Rotation=0.000|XOffset=0mm|YOffset=0mm|HoleType=Round|Shape=RoundedRectangle|*
%AMROUNDEDRECTD57*
21,1,1.7040,1.4100,0,0,0.0*
21,1,0.9100,2.2040,0,0,0.0*
1,1,0.7940,0.4550,-0.7050*
1,1,0.7940,-0.4550,-0.7050*
1,1,0.7940,-0.4550,0.7050*
1,1,0.7940,0.4550,0.7050*
%
%ADD57ROUNDEDRECTD57*%
%ADD58R,1.9020X1.9020*%
%ADD59C,1.9020*%
%ADD60O,1.9270X1.1270*%
%ADD61O,2.3270X1.1270*%
%ADD62C,2.8040*%
%ADD63R,2.8040X2.8040*%
%ADD64R,2.8040X2.8040*%
%ADD65O,4.9040X2.6540*%
%ADD66O,2.6540X4.9040*%
%ADD67O,2.9040X5.4040*%
%ADD68C,1.7540*%
%ADD69R,1.7540X1.7540*%
%ADD70R,1.7540X1.7540*%
%ADD71C,1.7248*%
%ADD72C,1.7740*%
%ADD73R,1.7740X1.7740*%
%ADD74R,1.9790X1.9790*%
%ADD75C,1.9790*%
%ADD76C,1.2040*%
%ADD77C,1.6740*%
%ADD78C,1.1040*%
%ADD79C,1.0040*%
%ADD80C,1.0150*%
D39*
X1096330Y631190D02*
D03*
X1072830D02*
D03*
X1249360Y161290D02*
D03*
X1272860D02*
D03*
X637540Y157480D02*
D03*
X614040D02*
D03*
X821050Y158750D02*
D03*
X844550D02*
D03*
X655000Y595630D02*
D03*
X678500D02*
D03*
X955360Y585470D02*
D03*
X931860D02*
D03*
X1072830Y561340D02*
D03*
X1096330D02*
D03*
X1072830Y511810D02*
D03*
X1096330D02*
D03*
X1237300Y707390D02*
D03*
X1213800D02*
D03*
X955360Y731520D02*
D03*
X931860D02*
D03*
X955360Y711200D02*
D03*
X931860D02*
D03*
X955040Y690880D02*
D03*
X931540D02*
D03*
X1073150Y449580D02*
D03*
X1096650D02*
D03*
X1073150Y398780D02*
D03*
X1096650D02*
D03*
X955360Y669290D02*
D03*
X931860D02*
D03*
X955360Y647700D02*
D03*
X931860D02*
D03*
X1041080Y158750D02*
D03*
X1064580D02*
D03*
X955040Y605790D02*
D03*
X931540D02*
D03*
X955040Y627380D02*
D03*
X931540D02*
D03*
X654680Y638810D02*
D03*
X678180D02*
D03*
X655000Y617220D02*
D03*
X678500D02*
D03*
X371160Y156210D02*
D03*
X347660D02*
D03*
X123510Y179070D02*
D03*
X100010D02*
D03*
X654680Y680720D02*
D03*
X678180D02*
D03*
X144150Y678180D02*
D03*
X120650D02*
D03*
X120330Y571500D02*
D03*
X143830D02*
D03*
X120650Y656590D02*
D03*
X144150D02*
D03*
X120330Y593090D02*
D03*
X143830D02*
D03*
X120650Y635000D02*
D03*
X144150D02*
D03*
X120330Y614680D02*
D03*
X143830D02*
D03*
X317180Y387350D02*
D03*
X340680D02*
D03*
X187010Y410210D02*
D03*
X163510D02*
D03*
X187010Y389890D02*
D03*
X163510D02*
D03*
X187010Y473710D02*
D03*
X163510D02*
D03*
Y453390D02*
D03*
X187010D02*
D03*
X123510Y232410D02*
D03*
X100010D02*
D03*
D40*
X303530Y649590D02*
D03*
X290830D02*
D03*
X278130D02*
D03*
X265430D02*
D03*
X252730D02*
D03*
X240030D02*
D03*
X227330D02*
D03*
X214630D02*
D03*
Y600090D02*
D03*
X227330D02*
D03*
X240030D02*
D03*
X252730D02*
D03*
X265430D02*
D03*
X278130D02*
D03*
X290830D02*
D03*
X303530D02*
D03*
D41*
X293230Y298820D02*
D03*
X316230D02*
D03*
X339230D02*
D03*
D42*
X71080Y624800D02*
D03*
Y619800D02*
D03*
Y614800D02*
D03*
Y629800D02*
D03*
Y634800D02*
D03*
Y609800D02*
D03*
Y604800D02*
D03*
Y639800D02*
D03*
D43*
Y646300D02*
D03*
Y598300D02*
D03*
Y590300D02*
D03*
Y654300D02*
D03*
D44*
X657250Y702310D02*
D03*
X676250D02*
D03*
X783590Y727710D02*
D03*
X802590D02*
D03*
X845160Y495300D02*
D03*
X826160D02*
D03*
X784910D02*
D03*
X803910D02*
D03*
X676910Y660400D02*
D03*
X657910D02*
D03*
X282600Y570230D02*
D03*
X301600D02*
D03*
X62890Y542290D02*
D03*
X81890D02*
D03*
X337770Y363220D02*
D03*
X318770D02*
D03*
X337770Y336550D02*
D03*
X318770D02*
D03*
X186030Y431800D02*
D03*
X167030D02*
D03*
D45*
X267970Y836300D02*
D03*
Y812800D02*
D03*
X290830Y836300D02*
D03*
Y812800D02*
D03*
X269240Y743580D02*
D03*
Y767080D02*
D03*
X292100Y743580D02*
D03*
Y767080D02*
D03*
X158750Y801050D02*
D03*
Y824550D02*
D03*
X138430Y800740D02*
D03*
Y777240D02*
D03*
X698500Y381320D02*
D03*
Y357820D02*
D03*
X648970Y381320D02*
D03*
Y357820D02*
D03*
X821690Y381320D02*
D03*
Y357820D02*
D03*
X770890Y381320D02*
D03*
Y357820D02*
D03*
X1363980Y771840D02*
D03*
Y795340D02*
D03*
X1360170Y554670D02*
D03*
Y578170D02*
D03*
Y367350D02*
D03*
Y343850D02*
D03*
X1358900Y198760D02*
D03*
Y175260D02*
D03*
X894080Y381320D02*
D03*
Y357820D02*
D03*
X944880Y381320D02*
D03*
Y357820D02*
D03*
X243840Y520380D02*
D03*
Y543880D02*
D03*
D46*
X62230Y519430D02*
D03*
X79430D02*
D03*
D47*
X261620Y686460D02*
D03*
Y705460D02*
D03*
X681990Y536600D02*
D03*
Y555600D02*
D03*
X706120Y536600D02*
D03*
Y555600D02*
D03*
X656590Y536600D02*
D03*
Y555600D02*
D03*
X218440Y523900D02*
D03*
Y542900D02*
D03*
X83820Y415900D02*
D03*
Y396900D02*
D03*
X256540Y306680D02*
D03*
Y287680D02*
D03*
X229870Y306680D02*
D03*
Y287680D02*
D03*
D48*
X184912Y770890D02*
D03*
Y783590D02*
D03*
Y796290D02*
D03*
Y808990D02*
D03*
X234188D02*
D03*
Y796290D02*
D03*
Y783590D02*
D03*
Y770890D02*
D03*
D49*
X862840Y537210D02*
D03*
X767840D02*
D03*
D50*
X834180Y627320D02*
D03*
Y635320D02*
D03*
Y643320D02*
D03*
Y651320D02*
D03*
Y659320D02*
D03*
Y667320D02*
D03*
Y675320D02*
D03*
Y683320D02*
D03*
X750780D02*
D03*
Y675320D02*
D03*
Y667320D02*
D03*
Y659320D02*
D03*
Y651320D02*
D03*
Y643320D02*
D03*
Y635320D02*
D03*
Y627320D02*
D03*
D51*
X764480Y613620D02*
D03*
X772480D02*
D03*
X780480D02*
D03*
X788480D02*
D03*
X796480D02*
D03*
X804480D02*
D03*
X812480D02*
D03*
X820480D02*
D03*
Y697020D02*
D03*
X812480D02*
D03*
X804480D02*
D03*
X796480D02*
D03*
X788480D02*
D03*
X780480D02*
D03*
X772480D02*
D03*
X764480D02*
D03*
D52*
X191770Y543270D02*
D03*
Y526070D02*
D03*
D53*
X109650Y414630D02*
D03*
Y395630D02*
D03*
X131650Y405130D02*
D03*
D54*
X189230Y289560D02*
D03*
Y330560D02*
D03*
D55*
X99470Y207010D02*
D03*
X118970D02*
D03*
D56*
X111060Y435610D02*
D03*
Y448310D02*
D03*
Y461010D02*
D03*
Y473710D02*
D03*
X61660D02*
D03*
Y461010D02*
D03*
Y448310D02*
D03*
Y435610D02*
D03*
D57*
X190660Y497840D02*
D03*
X162560D02*
D03*
D58*
X612660Y809900D02*
D03*
D59*
X677660D02*
D03*
X614160Y764900D02*
D03*
X677660D02*
D03*
D60*
X65330Y579100D02*
D03*
Y665500D02*
D03*
D61*
X25330Y579100D02*
D03*
Y665500D02*
D03*
D62*
X1442720Y27940D02*
D03*
Y78740D02*
D03*
Y129540D02*
D03*
X1174750Y82550D02*
D03*
X1225550D02*
D03*
X1276350D02*
D03*
X962660D02*
D03*
X1013460D02*
D03*
X1064260D02*
D03*
X30480Y81280D02*
D03*
X81280D02*
D03*
X132080D02*
D03*
X612140Y78740D02*
D03*
X561340D02*
D03*
X510540D02*
D03*
X57150Y812800D02*
D03*
X346710Y80010D02*
D03*
X295910D02*
D03*
X245110D02*
D03*
X1215390Y791210D02*
D03*
X1266190D02*
D03*
X1316990D02*
D03*
X825500Y77470D02*
D03*
X774700D02*
D03*
X723900D02*
D03*
X1441450Y793750D02*
D03*
Y742950D02*
D03*
Y692150D02*
D03*
Y579120D02*
D03*
Y528320D02*
D03*
Y477520D02*
D03*
X1443990Y342900D02*
D03*
Y292100D02*
D03*
Y241300D02*
D03*
D63*
X1442720Y180340D02*
D03*
X57150Y762000D02*
D03*
X1441450Y844550D02*
D03*
Y629920D02*
D03*
X1443990Y393700D02*
D03*
D64*
X1327150Y82550D02*
D03*
X1115060D02*
D03*
X182880Y81280D02*
D03*
X662940Y78740D02*
D03*
X397510Y80010D02*
D03*
X1164590Y791210D02*
D03*
X876300Y77470D02*
D03*
D65*
X109930Y284470D02*
D03*
D66*
X79930Y331470D02*
D03*
D67*
X139930D02*
D03*
D68*
X647700Y328930D02*
D03*
X673100D02*
D03*
X698500D02*
D03*
X723900D02*
D03*
Y252730D02*
D03*
X698500D02*
D03*
X673100D02*
D03*
X1123950Y398780D02*
D03*
Y424180D02*
D03*
Y449580D02*
D03*
Y474980D02*
D03*
X1200150D02*
D03*
Y449580D02*
D03*
Y424180D02*
D03*
X1123950Y510540D02*
D03*
Y535940D02*
D03*
Y561340D02*
D03*
Y586740D02*
D03*
X1200150D02*
D03*
Y561340D02*
D03*
Y535940D02*
D03*
X770890Y328930D02*
D03*
X796290D02*
D03*
X821690D02*
D03*
X847090D02*
D03*
Y252730D02*
D03*
X821690D02*
D03*
X796290D02*
D03*
X894080Y328930D02*
D03*
X919480D02*
D03*
X944880D02*
D03*
X970280D02*
D03*
Y252730D02*
D03*
X944880D02*
D03*
X919480D02*
D03*
D69*
X647700D02*
D03*
X770890D02*
D03*
X894080D02*
D03*
D70*
X1200150Y398780D02*
D03*
Y510540D02*
D03*
D71*
X1198880Y629920D02*
D03*
Y655320D02*
D03*
X1122680D02*
D03*
Y629920D02*
D03*
D72*
X339090Y802640D02*
D03*
X364490D02*
D03*
X339090Y777240D02*
D03*
D73*
X364490D02*
D03*
D74*
X341630Y427990D02*
D03*
D75*
X316630D02*
D03*
D76*
X684530Y656590D02*
D03*
X303530Y660400D02*
D03*
X246380Y704850D02*
D03*
X135890Y420370D02*
D03*
Y497840D02*
D03*
X52070Y530860D02*
D03*
D77*
X149860Y582930D02*
D03*
X152400Y668020D02*
D03*
X339090Y308610D02*
D03*
X271780Y570230D02*
D03*
X645160Y825500D02*
D03*
X570230D02*
D03*
X265430Y619760D02*
D03*
X81280Y497840D02*
D03*
X219710Y502920D02*
D03*
X645160Y556260D02*
D03*
Y535940D02*
D03*
X83820Y425450D02*
D03*
X261620Y519430D02*
D03*
X706120Y527050D02*
D03*
X681990D02*
D03*
X1073150Y553720D02*
D03*
X648970Y388620D02*
D03*
X698500D02*
D03*
X770890Y389890D02*
D03*
X821690Y388620D02*
D03*
X894080D02*
D03*
X944880D02*
D03*
X1073150Y389890D02*
D03*
Y440690D02*
D03*
Y504190D02*
D03*
Y614680D02*
D03*
X359410Y388620D02*
D03*
X260350Y389890D02*
D03*
X242570Y326390D02*
D03*
X203200Y420370D02*
D03*
X205740Y473710D02*
D03*
X267970Y802640D02*
D03*
X269240Y775970D02*
D03*
X138430Y179070D02*
D03*
X815340Y474980D02*
D03*
X1360170Y156210D02*
D03*
D78*
X353060Y359410D02*
D03*
Y341630D02*
D03*
X176530Y808990D02*
D03*
X797560Y596900D02*
D03*
X635000Y698500D02*
D03*
X641350Y665480D02*
D03*
X793750Y635000D02*
D03*
X781050D02*
D03*
X579120D02*
D03*
X570230Y643890D02*
D03*
X767080Y727710D02*
D03*
X50800Y590550D02*
D03*
Y654050D02*
D03*
X138430Y207010D02*
D03*
D79*
X711200Y643890D02*
D03*
D80*
X720090Y635000D02*
D03*
M02*
