G04*
G04 #@! TF.GenerationSoftware,Altium Limited,Altium Designer,25.4.2 (15)*
G04*
G04 Layer_Color=255*
%FSLAX44Y44*%
%MOMM*%
G71*
G04*
G04 #@! TF.SameCoordinates,AB3986B5-8965-4272-984F-493E451A5069*
G04*
G04*
G04 #@! TF.FilePolarity,Positive*
G04*
G01*
G75*
%ADD106R,1.4980X1.4980*%
%ADD107C,1.4980*%
%ADD108O,1.8000X1.0000*%
%ADD109O,2.2000X1.0000*%
%ADD110C,2.4000*%
%ADD111R,2.4000X2.4000*%
%ADD112R,2.4000X2.4000*%
%ADD113O,4.5000X2.2500*%
%ADD114O,2.2500X4.5000*%
%ADD115O,2.5000X5.0000*%
%ADD116C,1.3500*%
%ADD117R,1.3500X1.3500*%
%ADD118R,1.3500X1.3500*%
%ADD119C,1.3208*%
%ADD120C,1.3700*%
%ADD121R,1.3700X1.3700*%
%ADD122R,1.5750X1.5750*%
%ADD123C,1.5750*%
D106*
X612660Y809900D02*
D03*
D107*
X677660D02*
D03*
X614160Y764900D02*
D03*
X677660D02*
D03*
D108*
X65330Y579100D02*
D03*
Y665500D02*
D03*
D109*
X25330Y579100D02*
D03*
Y665500D02*
D03*
D110*
X1442720Y27940D02*
D03*
Y78740D02*
D03*
Y129540D02*
D03*
X1174750Y82550D02*
D03*
X1225550D02*
D03*
X1276350D02*
D03*
X962660D02*
D03*
X1013460D02*
D03*
X1064260D02*
D03*
X30480Y81280D02*
D03*
X81280D02*
D03*
X132080D02*
D03*
X612140Y78740D02*
D03*
X561340D02*
D03*
X510540D02*
D03*
X57150Y812800D02*
D03*
X346710Y80010D02*
D03*
X295910D02*
D03*
X245110D02*
D03*
X1215390Y791210D02*
D03*
X1266190D02*
D03*
X1316990D02*
D03*
X825500Y77470D02*
D03*
X774700D02*
D03*
X723900D02*
D03*
X1441450Y793750D02*
D03*
Y742950D02*
D03*
Y692150D02*
D03*
Y579120D02*
D03*
Y528320D02*
D03*
Y477520D02*
D03*
X1443990Y342900D02*
D03*
Y292100D02*
D03*
Y241300D02*
D03*
D111*
X1442720Y180340D02*
D03*
X57150Y762000D02*
D03*
X1441450Y844550D02*
D03*
Y629920D02*
D03*
X1443990Y393700D02*
D03*
D112*
X1327150Y82550D02*
D03*
X1115060D02*
D03*
X182880Y81280D02*
D03*
X662940Y78740D02*
D03*
X397510Y80010D02*
D03*
X1164590Y791210D02*
D03*
X876300Y77470D02*
D03*
D113*
X109930Y284470D02*
D03*
D114*
X79930Y331470D02*
D03*
D115*
X139930D02*
D03*
D116*
X647700Y328930D02*
D03*
X673100D02*
D03*
X698500D02*
D03*
X723900D02*
D03*
Y252730D02*
D03*
X698500D02*
D03*
X673100D02*
D03*
X1123950Y398780D02*
D03*
Y424180D02*
D03*
Y449580D02*
D03*
Y474980D02*
D03*
X1200150D02*
D03*
Y449580D02*
D03*
Y424180D02*
D03*
X1123950Y510540D02*
D03*
Y535940D02*
D03*
Y561340D02*
D03*
Y586740D02*
D03*
X1200150D02*
D03*
Y561340D02*
D03*
Y535940D02*
D03*
X770890Y328930D02*
D03*
X796290D02*
D03*
X821690D02*
D03*
X847090D02*
D03*
Y252730D02*
D03*
X821690D02*
D03*
X796290D02*
D03*
X894080Y328930D02*
D03*
X919480D02*
D03*
X944880D02*
D03*
X970280D02*
D03*
Y252730D02*
D03*
X944880D02*
D03*
X919480D02*
D03*
D117*
X647700D02*
D03*
X770890D02*
D03*
X894080D02*
D03*
D118*
X1200150Y398780D02*
D03*
Y510540D02*
D03*
D119*
X1198880Y629920D02*
D03*
Y655320D02*
D03*
X1122680D02*
D03*
Y629920D02*
D03*
D120*
X339090Y802640D02*
D03*
X364490D02*
D03*
X339090Y777240D02*
D03*
D121*
X364490D02*
D03*
D122*
X341630Y427990D02*
D03*
D123*
X316630D02*
D03*
M02*
