G04*
G04 #@! TF.GenerationSoftware,Altium Limited,Altium Designer,25.4.2 (15)*
G04*
G04 Layer_Physical_Order=1*
G04 Layer_Color=255*
%FSLAX44Y44*%
%MOMM*%
G71*
G04*
G04 #@! TF.SameCoordinates,AB3986B5-8965-4272-984F-493E451A5069*
G04*
G04*
G04 #@! TF.FilePolarity,Positive*
G04*
G01*
G75*
%ADD10C,0.2000*%
%ADD11C,0.4000*%
%ADD14C,0.3000*%
%ADD81R,1.1500X1.1500*%
G04:AMPARAMS|DCode=82|XSize=1.97mm|YSize=0.6mm|CornerRadius=0.075mm|HoleSize=0mm|Usage=FLASHONLY|Rotation=270.000|XOffset=0mm|YOffset=0mm|HoleType=Round|Shape=RoundedRectangle|*
%AMROUNDEDRECTD82*
21,1,1.9700,0.4500,0,0,270.0*
21,1,1.8200,0.6000,0,0,270.0*
1,1,0.1500,-0.2250,-0.9100*
1,1,0.1500,-0.2250,0.9100*
1,1,0.1500,0.2250,0.9100*
1,1,0.1500,0.2250,-0.9100*
%
%ADD82ROUNDEDRECTD82*%
G04:AMPARAMS|DCode=83|XSize=1.84mm|YSize=0.93mm|CornerRadius=0.1163mm|HoleSize=0mm|Usage=FLASHONLY|Rotation=270.000|XOffset=0mm|YOffset=0mm|HoleType=Round|Shape=RoundedRectangle|*
%AMROUNDEDRECTD83*
21,1,1.8400,0.6975,0,0,270.0*
21,1,1.6075,0.9300,0,0,270.0*
1,1,0.2325,-0.3488,-0.8038*
1,1,0.2325,-0.3488,0.8038*
1,1,0.2325,0.3488,0.8038*
1,1,0.2325,0.3488,-0.8038*
%
%ADD83ROUNDEDRECTD83*%
%ADD84R,1.1500X0.2980*%
%ADD85R,1.1500X0.5900*%
%ADD86R,1.3000X1.5000*%
%ADD87R,1.1500X1.1500*%
%ADD88R,1.2000X1.4700*%
%ADD89R,1.5000X1.3000*%
%ADD90R,1.9812X0.5334*%
%ADD91R,5.5000X2.0000*%
G04:AMPARAMS|DCode=92|XSize=0.55mm|YSize=1.47mm|CornerRadius=0.0688mm|HoleSize=0mm|Usage=FLASHONLY|Rotation=90.000|XOffset=0mm|YOffset=0mm|HoleType=Round|Shape=RoundedRectangle|*
%AMROUNDEDRECTD92*
21,1,0.5500,1.3325,0,0,90.0*
21,1,0.4125,1.4700,0,0,90.0*
1,1,0.1375,0.6663,0.2063*
1,1,0.1375,0.6663,-0.2063*
1,1,0.1375,-0.6663,-0.2063*
1,1,0.1375,-0.6663,0.2063*
%
%ADD92ROUNDEDRECTD92*%
G04:AMPARAMS|DCode=93|XSize=1.47mm|YSize=0.55mm|CornerRadius=0.0688mm|HoleSize=0mm|Usage=FLASHONLY|Rotation=90.000|XOffset=0mm|YOffset=0mm|HoleType=Round|Shape=RoundedRectangle|*
%AMROUNDEDRECTD93*
21,1,1.4700,0.4125,0,0,90.0*
21,1,1.3325,0.5500,0,0,90.0*
1,1,0.1375,0.2063,0.6663*
1,1,0.1375,0.2063,-0.6663*
1,1,0.1375,-0.2063,-0.6663*
1,1,0.1375,-0.2063,0.6663*
%
%ADD93ROUNDEDRECTD93*%
%ADD94R,1.4700X1.2000*%
%ADD95R,1.4000X1.0000*%
%ADD96R,1.5500X2.2000*%
G04:AMPARAMS|DCode=97|XSize=0.86mm|YSize=1.36mm|CornerRadius=0.215mm|HoleSize=0mm|Usage=FLASHONLY|Rotation=180.000|XOffset=0mm|YOffset=0mm|HoleType=Round|Shape=RoundedRectangle|*
%AMROUNDEDRECTD97*
21,1,0.8600,0.9300,0,0,180.0*
21,1,0.4300,1.3600,0,0,180.0*
1,1,0.4300,-0.2150,0.4650*
1,1,0.4300,0.2150,0.4650*
1,1,0.4300,0.2150,-0.4650*
1,1,0.4300,-0.2150,-0.4650*
%
%ADD97ROUNDEDRECTD97*%
G04:AMPARAMS|DCode=98|XSize=1.97mm|YSize=0.6mm|CornerRadius=0.075mm|HoleSize=0mm|Usage=FLASHONLY|Rotation=180.000|XOffset=0mm|YOffset=0mm|HoleType=Round|Shape=RoundedRectangle|*
%AMROUNDEDRECTD98*
21,1,1.9700,0.4500,0,0,180.0*
21,1,1.8200,0.6000,0,0,180.0*
1,1,0.1500,-0.9100,0.2250*
1,1,0.1500,0.9100,0.2250*
1,1,0.1500,0.9100,-0.2250*
1,1,0.1500,-0.9100,-0.2250*
%
%ADD98ROUNDEDRECTD98*%
G04:AMPARAMS|DCode=99|XSize=1.3mm|YSize=1.8mm|CornerRadius=0.195mm|HoleSize=0mm|Usage=FLASHONLY|Rotation=0.000|XOffset=0mm|YOffset=0mm|HoleType=Round|Shape=RoundedRectangle|*
%AMROUNDEDRECTD99*
21,1,1.3000,1.4100,0,0,0.0*
21,1,0.9100,1.8000,0,0,0.0*
1,1,0.3900,0.4550,-0.7050*
1,1,0.3900,-0.4550,-0.7050*
1,1,0.3900,-0.4550,0.7050*
1,1,0.3900,0.4550,0.7050*
%
%ADD99ROUNDEDRECTD99*%
%ADD100C,1.5400*%
%ADD101C,0.7400*%
%ADD102C,2.0000*%
%ADD103C,0.5400*%
%ADD104C,0.2772*%
%ADD105C,0.7300*%
%ADD106R,1.4980X1.4980*%
%ADD107C,1.4980*%
%ADD108O,1.8000X1.0000*%
%ADD109O,2.2000X1.0000*%
%ADD110C,2.4000*%
%ADD111R,2.4000X2.4000*%
%ADD112R,2.4000X2.4000*%
%ADD113O,4.5000X2.2500*%
%ADD114O,2.2500X4.5000*%
%ADD115O,2.5000X5.0000*%
%ADD116C,1.3500*%
%ADD117R,1.3500X1.3500*%
%ADD118R,1.3500X1.3500*%
%ADD119C,1.3208*%
%ADD120C,1.3700*%
%ADD121R,1.3700X1.3700*%
%ADD122R,1.5750X1.5750*%
%ADD123C,1.5750*%
%ADD124C,0.8000*%
%ADD125C,1.2700*%
%ADD126C,0.7000*%
%ADD127C,0.6000*%
%ADD128C,0.6110*%
G36*
X781050Y722630D02*
X778510Y725170D01*
Y722630D01*
X767080Y727710D01*
X773430Y730250D01*
X778510Y732790D01*
Y730250D01*
X781050Y732790D01*
Y722630D01*
D02*
G37*
G36*
X153035Y667385D02*
X151768D01*
Y666117D01*
X147638Y661988D01*
X144150D01*
Y676270D01*
X153035Y667385D01*
D02*
G37*
G36*
X153670Y583250D02*
Y581340D01*
X143830Y571500D01*
Y593090D01*
X153670Y583250D01*
D02*
G37*
G36*
X62725Y519925D02*
X62560Y519760D01*
X52070Y530250D01*
Y531470D01*
X62725Y542125D01*
Y519925D01*
D02*
G37*
G36*
X815035Y483392D02*
X814818D01*
X806710Y491500D01*
X823142D01*
X815035Y483392D01*
D02*
G37*
G36*
X204720Y420620D02*
X188980Y404880D01*
X188515Y405345D01*
Y436825D01*
X204720Y420620D01*
D02*
G37*
G36*
X256059Y306680D02*
X228600D01*
X242288Y326108D01*
X256059Y306680D01*
D02*
G37*
G36*
X166370Y347980D02*
X199390D01*
X204470Y342900D01*
Y318770D01*
X200660Y314960D01*
X163830D01*
X149860Y300990D01*
X130810D01*
X120650Y311150D01*
Y355600D01*
X127000Y361950D01*
X152400D01*
X166370Y347980D01*
D02*
G37*
G36*
X299720Y274320D02*
X172720D01*
Y302260D01*
X205740D01*
X212090Y295910D01*
X264160D01*
X276860Y308610D01*
X299720D01*
Y274320D01*
D02*
G37*
%LPC*%
G36*
X142700Y358810D02*
Y334240D01*
X155043D01*
Y343970D01*
X154752Y346918D01*
X153892Y349753D01*
X152496Y352366D01*
X150616Y354656D01*
X148326Y356536D01*
X145713Y357932D01*
X142878Y358792D01*
X142700Y358810D01*
D02*
G37*
G36*
X137160D02*
X136982Y358792D01*
X134147Y357932D01*
X131534Y356536D01*
X129244Y354656D01*
X127364Y352366D01*
X125968Y349753D01*
X125108Y346918D01*
X124817Y343970D01*
Y334240D01*
X137160D01*
Y358810D01*
D02*
G37*
G36*
X199520Y344100D02*
X192000D01*
Y333330D01*
X199520D01*
Y344100D01*
D02*
G37*
G36*
X186460D02*
X178940D01*
Y333330D01*
X186460D01*
Y344100D01*
D02*
G37*
G36*
X199520Y327790D02*
X192000D01*
Y317020D01*
X199520D01*
Y327790D01*
D02*
G37*
G36*
X186460D02*
X178940D01*
Y317020D01*
X186460D01*
Y327790D01*
D02*
G37*
G36*
X155043Y328700D02*
X142700D01*
Y304130D01*
X142878Y304148D01*
X145713Y305008D01*
X148326Y306404D01*
X150616Y308284D01*
X152496Y310574D01*
X153892Y313187D01*
X154752Y316022D01*
X155043Y318970D01*
Y328700D01*
D02*
G37*
G36*
X137160D02*
X124817D01*
Y318970D01*
X125108Y316022D01*
X125968Y313187D01*
X127364Y310574D01*
X129244Y308284D01*
X131534Y306404D01*
X134147Y305008D01*
X136982Y304148D01*
X137160Y304130D01*
Y328700D01*
D02*
G37*
%LPD*%
D10*
X50925Y590425D02*
X70955D01*
X50800Y590550D02*
X50925Y590425D01*
X70955D02*
X71080Y590300D01*
X50925Y654175D02*
X70955D01*
X50800Y654050D02*
X50925Y654175D01*
X70955D02*
X71080Y654300D01*
D11*
X593090Y685800D02*
Y829310D01*
X582930Y839470D02*
X593090Y829310D01*
X294000Y839470D02*
X582930D01*
X290830Y836300D02*
X294000Y839470D01*
X820480Y697020D02*
Y792420D01*
X787400Y825500D02*
X820480Y792420D01*
X645160Y825500D02*
X787400D01*
X303530D02*
X570230D01*
X290830Y812800D02*
X303530Y825500D01*
X797020Y597440D02*
Y613023D01*
X796635Y613408D02*
X797020Y613023D01*
Y597440D02*
X797560Y596900D01*
X788480Y630567D02*
X812480Y654567D01*
X793928Y634823D02*
X799007D01*
X804480Y629350D01*
X793750Y635000D02*
X793928Y634823D01*
X278130Y632460D02*
X288290Y622300D01*
X278130Y632460D02*
Y649590D01*
X288290Y622300D02*
X566420D01*
X278130Y649590D02*
Y704850D01*
X613410Y665480D02*
X641350D01*
X593090Y685800D02*
X613410Y665480D01*
X780480Y613620D02*
Y633997D01*
X788480Y613620D02*
Y630567D01*
X641350Y665480D02*
X656295D01*
X812480Y654567D02*
Y697020D01*
X300990Y727710D02*
X339090D01*
X278130Y704850D02*
X300990Y727710D01*
X339090D02*
X351790Y740410D01*
X307340Y717550D02*
X342900D01*
X360680Y735330D02*
Y773430D01*
X342900Y717550D02*
X360680Y735330D01*
X351790Y740410D02*
Y789940D01*
X360680Y773430D02*
X364490Y777240D01*
X351790Y789940D02*
X364490Y802640D01*
X290830Y649590D02*
Y701040D01*
X307340Y717550D01*
X293993Y629920D02*
X556260D01*
X566420Y622300D02*
X577850Y633730D01*
X556260Y629920D02*
X570230Y643890D01*
X290830Y633083D02*
Y649590D01*
Y633083D02*
X293993Y629920D01*
X285750Y789940D02*
X292100Y783590D01*
X285750Y789940D02*
X292100Y796290D01*
Y811530D01*
X234188Y789940D02*
X285750D01*
X290830Y812800D02*
X292100Y811530D01*
Y767080D02*
Y783590D01*
X234188Y789940D02*
Y796290D01*
Y783590D02*
Y789940D01*
X81890Y542290D02*
X84430Y544830D01*
X48260Y604520D02*
Y640080D01*
X105410Y544830D02*
X120170Y530070D01*
X84430Y544830D02*
X105410D01*
X120170Y530070D02*
X186420D01*
X188940Y527550D01*
Y523240D02*
Y527550D01*
X83820Y544220D02*
Y591917D01*
X78387Y597350D02*
X83820Y591917D01*
X72030Y597350D02*
X78387D01*
X71080Y598300D02*
X72030Y597350D01*
X54480Y646300D02*
X71080D01*
X48260Y640080D02*
X54480Y646300D01*
X48260Y604520D02*
X54480Y598300D01*
X71080D01*
X804480Y613620D02*
Y629350D01*
X788480Y587820D02*
Y613620D01*
D14*
X614160Y764900D02*
X677660D01*
Y703720D02*
Y764900D01*
X676250Y702310D02*
X677660Y703720D01*
X676250Y682650D02*
Y702310D01*
X702370Y627320D02*
X750780D01*
X711200Y643890D02*
X711485Y643605D01*
X750495D01*
X720090Y635000D02*
X720250Y635160D01*
X750620D01*
X750780Y635320D01*
X750495Y643605D02*
X750780Y643320D01*
X678180Y638810D02*
X690880D01*
X702370Y627320D01*
X676250Y682650D02*
X680720Y678180D01*
X771230Y599780D02*
Y612370D01*
X764540Y593090D02*
X771230Y599780D01*
X681040Y593090D02*
X764540D01*
X678500Y595630D02*
X681040Y593090D01*
X771230Y612370D02*
X772480Y613620D01*
X764480D02*
Y615970D01*
X763230Y617220D02*
X764480Y615970D01*
X678500Y617220D02*
X763230D01*
X704850Y678180D02*
X731710Y651320D01*
X680720Y678180D02*
X704850D01*
X731710Y651320D02*
X750780D01*
X914400Y731520D02*
X931860D01*
X866200Y683320D02*
X914400Y731520D01*
X877250Y675320D02*
X913130Y711200D01*
X931860D01*
X834180Y675320D02*
X877250D01*
X884490Y667320D02*
X908050Y690880D01*
X834180Y667320D02*
X884490D01*
X908050Y690880D02*
X931540D01*
X901700Y643890D02*
X928050D01*
X894270Y651320D02*
X901700Y643890D01*
X834180Y651320D02*
X894270D01*
X920750Y585470D02*
X931860D01*
X878900Y627320D02*
X920750Y585470D01*
X834180Y627320D02*
X878900D01*
X884870Y635320D02*
X913130Y607060D01*
X930270D01*
X834180Y635320D02*
X884870D01*
X905510Y627380D02*
X931540D01*
X834180Y643320D02*
X889570D01*
X905510Y627380D01*
X928050Y643890D02*
X931860Y647700D01*
X930270Y607060D02*
X931540Y605790D01*
X901700Y669290D02*
X931860D01*
X891730Y659320D02*
X901700Y669290D01*
X834180Y659320D02*
X891730D01*
X834180Y683320D02*
X866200D01*
X767080Y727710D02*
X783590D01*
X797730Y698270D02*
Y711370D01*
X802590Y716230D02*
Y727710D01*
X797730Y711370D02*
X802590Y716230D01*
X796480Y697020D02*
X797730Y698270D01*
X782980Y716607D02*
X788480Y711107D01*
X782980Y716607D02*
Y725440D01*
X788480Y697020D02*
Y711107D01*
D81*
X1096330Y631190D02*
D03*
X1072830D02*
D03*
X1249360Y161290D02*
D03*
X1272860D02*
D03*
X637540Y157480D02*
D03*
X614040D02*
D03*
X821050Y158750D02*
D03*
X844550D02*
D03*
X655000Y595630D02*
D03*
X678500D02*
D03*
X955360Y585470D02*
D03*
X931860D02*
D03*
X1072830Y561340D02*
D03*
X1096330D02*
D03*
X1072830Y511810D02*
D03*
X1096330D02*
D03*
X1237300Y707390D02*
D03*
X1213800D02*
D03*
X955360Y731520D02*
D03*
X931860D02*
D03*
X955360Y711200D02*
D03*
X931860D02*
D03*
X955040Y690880D02*
D03*
X931540D02*
D03*
X1073150Y449580D02*
D03*
X1096650D02*
D03*
X1073150Y398780D02*
D03*
X1096650D02*
D03*
X955360Y669290D02*
D03*
X931860D02*
D03*
X955360Y647700D02*
D03*
X931860D02*
D03*
X1041080Y158750D02*
D03*
X1064580D02*
D03*
X955040Y605790D02*
D03*
X931540D02*
D03*
X955040Y627380D02*
D03*
X931540D02*
D03*
X654680Y638810D02*
D03*
X678180D02*
D03*
X655000Y617220D02*
D03*
X678500D02*
D03*
X371160Y156210D02*
D03*
X347660D02*
D03*
X123510Y179070D02*
D03*
X100010D02*
D03*
X654680Y680720D02*
D03*
X678180D02*
D03*
X144150Y678180D02*
D03*
X120650D02*
D03*
X120330Y571500D02*
D03*
X143830D02*
D03*
X120650Y656590D02*
D03*
X144150D02*
D03*
X120330Y593090D02*
D03*
X143830D02*
D03*
X120650Y635000D02*
D03*
X144150D02*
D03*
X120330Y614680D02*
D03*
X143830D02*
D03*
X317180Y387350D02*
D03*
X340680D02*
D03*
X187010Y410210D02*
D03*
X163510D02*
D03*
X187010Y389890D02*
D03*
X163510D02*
D03*
X187010Y473710D02*
D03*
X163510D02*
D03*
Y453390D02*
D03*
X187010D02*
D03*
X123510Y232410D02*
D03*
X100010D02*
D03*
D82*
X303530Y649590D02*
D03*
X290830D02*
D03*
X278130D02*
D03*
X265430D02*
D03*
X252730D02*
D03*
X240030D02*
D03*
X227330D02*
D03*
X214630D02*
D03*
Y600090D02*
D03*
X227330D02*
D03*
X240030D02*
D03*
X252730D02*
D03*
X265430D02*
D03*
X278130D02*
D03*
X290830D02*
D03*
X303530D02*
D03*
D83*
X293230Y298820D02*
D03*
X316230D02*
D03*
X339230D02*
D03*
D84*
X71080Y624800D02*
D03*
Y619800D02*
D03*
Y614800D02*
D03*
Y629800D02*
D03*
Y634800D02*
D03*
Y609800D02*
D03*
Y604800D02*
D03*
Y639800D02*
D03*
D85*
Y646300D02*
D03*
Y598300D02*
D03*
Y590300D02*
D03*
Y654300D02*
D03*
D86*
X657250Y702310D02*
D03*
X676250D02*
D03*
X783590Y727710D02*
D03*
X802590D02*
D03*
X845160Y495300D02*
D03*
X826160D02*
D03*
X784910D02*
D03*
X803910D02*
D03*
X676910Y660400D02*
D03*
X657910D02*
D03*
X282600Y570230D02*
D03*
X301600D02*
D03*
X62890Y542290D02*
D03*
X81890D02*
D03*
X337770Y363220D02*
D03*
X318770D02*
D03*
X337770Y336550D02*
D03*
X318770D02*
D03*
X186030Y431800D02*
D03*
X167030D02*
D03*
D87*
X267970Y836300D02*
D03*
Y812800D02*
D03*
X290830Y836300D02*
D03*
Y812800D02*
D03*
X269240Y743580D02*
D03*
Y767080D02*
D03*
X292100Y743580D02*
D03*
Y767080D02*
D03*
X158750Y801050D02*
D03*
Y824550D02*
D03*
X138430Y800740D02*
D03*
Y777240D02*
D03*
X698500Y381320D02*
D03*
Y357820D02*
D03*
X648970Y381320D02*
D03*
Y357820D02*
D03*
X821690Y381320D02*
D03*
Y357820D02*
D03*
X770890Y381320D02*
D03*
Y357820D02*
D03*
X1363980Y771840D02*
D03*
Y795340D02*
D03*
X1360170Y554670D02*
D03*
Y578170D02*
D03*
Y367350D02*
D03*
Y343850D02*
D03*
X1358900Y198760D02*
D03*
Y175260D02*
D03*
X894080Y381320D02*
D03*
Y357820D02*
D03*
X944880Y381320D02*
D03*
Y357820D02*
D03*
X243840Y520380D02*
D03*
Y543880D02*
D03*
D88*
X62230Y519430D02*
D03*
X79430D02*
D03*
D89*
X261620Y686460D02*
D03*
Y705460D02*
D03*
X681990Y536600D02*
D03*
Y555600D02*
D03*
X706120Y536600D02*
D03*
Y555600D02*
D03*
X656590Y536600D02*
D03*
Y555600D02*
D03*
X218440Y523900D02*
D03*
Y542900D02*
D03*
X83820Y415900D02*
D03*
Y396900D02*
D03*
X256540Y306680D02*
D03*
Y287680D02*
D03*
X229870Y306680D02*
D03*
Y287680D02*
D03*
D90*
X184912Y770890D02*
D03*
Y783590D02*
D03*
Y796290D02*
D03*
Y808990D02*
D03*
X234188D02*
D03*
Y796290D02*
D03*
Y783590D02*
D03*
Y770890D02*
D03*
D91*
X862840Y537210D02*
D03*
X767840D02*
D03*
D92*
X834180Y627320D02*
D03*
Y635320D02*
D03*
Y643320D02*
D03*
Y651320D02*
D03*
Y659320D02*
D03*
Y667320D02*
D03*
Y675320D02*
D03*
Y683320D02*
D03*
X750780D02*
D03*
Y675320D02*
D03*
Y667320D02*
D03*
Y659320D02*
D03*
Y651320D02*
D03*
Y643320D02*
D03*
Y635320D02*
D03*
Y627320D02*
D03*
D93*
X764480Y613620D02*
D03*
X772480D02*
D03*
X780480D02*
D03*
X788480D02*
D03*
X796480D02*
D03*
X804480D02*
D03*
X812480D02*
D03*
X820480D02*
D03*
Y697020D02*
D03*
X812480D02*
D03*
X804480D02*
D03*
X796480D02*
D03*
X788480D02*
D03*
X780480D02*
D03*
X772480D02*
D03*
X764480D02*
D03*
D94*
X191770Y543270D02*
D03*
Y526070D02*
D03*
D95*
X109650Y414630D02*
D03*
Y395630D02*
D03*
X131650Y405130D02*
D03*
D96*
X189230Y289560D02*
D03*
Y330560D02*
D03*
D97*
X99470Y207010D02*
D03*
X118970D02*
D03*
D98*
X111060Y435610D02*
D03*
Y448310D02*
D03*
Y461010D02*
D03*
Y473710D02*
D03*
X61660D02*
D03*
Y461010D02*
D03*
Y448310D02*
D03*
Y435610D02*
D03*
D99*
X190660Y497840D02*
D03*
X162560D02*
D03*
D100*
X1320800Y58420D02*
X1349230Y86850D01*
X1305560Y58420D02*
X1320800D01*
X1349230Y86850D02*
X1442720Y180340D01*
X1492250Y393700D02*
Y629920D01*
Y229870D02*
Y393700D01*
Y629920D02*
Y789940D01*
X1437640Y840740D02*
X1441450Y844550D01*
X1164590Y791210D02*
X1214120Y840740D01*
X1437640D01*
X1327150Y82550D02*
X1331450Y86850D01*
X1349230D01*
X1442720Y180340D02*
X1492250Y229870D01*
X1445750Y836440D02*
X1492250Y789940D01*
X1445750Y836440D02*
Y840250D01*
X1441450Y844550D02*
X1445750Y840250D01*
D101*
X1115060Y49530D02*
Y82550D01*
Y35560D02*
Y49530D01*
X187010Y453390D02*
X266700D01*
X281940Y438150D01*
Y291053D02*
Y438150D01*
X1362710Y614680D02*
Y770570D01*
X1224280Y585470D02*
X1333500D01*
X1362710Y614680D01*
X1200150Y561340D02*
X1224280Y585470D01*
X1362710Y770570D02*
X1363980Y771840D01*
X1237300Y640400D02*
Y707390D01*
X1216522Y628650D02*
X1225550D01*
X1237300Y640400D01*
X138430Y777240D02*
X140480Y779290D01*
X144325D02*
X144815Y779780D01*
X140480Y779290D02*
X144325D01*
X144815Y779780D02*
X159474D01*
X138430Y800420D02*
X158750D01*
X72390Y777240D02*
X138430D01*
X57150Y762000D02*
X72390Y777240D01*
X57725Y812800D02*
X69785Y800740D01*
X57150Y812800D02*
X57725D01*
X69785Y800740D02*
X138430D01*
X1271900Y198760D02*
X1358900D01*
X1200150Y270510D02*
Y398780D01*
Y270510D02*
X1271900Y198760D01*
X826160Y494300D02*
Y495300D01*
X823360Y491500D02*
X826160Y494300D01*
X815035Y491500D02*
X823360D01*
X803910Y495300D02*
X815035D01*
Y491500D02*
Y495300D01*
X806710Y491500D02*
X815035D01*
X803910Y494300D02*
X806710Y491500D01*
X803910Y494300D02*
Y495300D01*
X815035Y475285D02*
X815340Y474980D01*
X815035Y475285D02*
Y491500D01*
Y495300D02*
X826160D01*
X1360170Y530860D02*
Y554670D01*
X1200150Y510540D02*
X1339850D01*
X1360170Y530860D01*
X1200150Y449580D02*
X1339850D01*
X1360170Y367350D02*
Y429260D01*
X1339850Y449580D02*
X1360170Y429260D01*
X1198880Y629920D02*
X1199991Y628809D01*
X1216363D01*
X1216522Y628650D01*
X1358900Y175260D02*
X1359535Y174625D01*
Y156845D02*
Y174625D01*
Y156845D02*
X1360170Y156210D01*
X1441450Y629920D02*
X1480820D01*
X1443990Y393700D02*
X1480820D01*
X876300Y48260D02*
Y77470D01*
X662940Y49530D02*
Y78740D01*
X397510Y49530D02*
Y80010D01*
X100010Y113350D02*
X132080Y81280D01*
X100010Y113350D02*
Y179070D01*
X346710Y80010D02*
X347185Y80485D01*
Y155735D01*
X347660Y156210D01*
X612140Y78740D02*
X613090Y79690D01*
Y156530D01*
X614040Y157480D01*
X825500Y77470D02*
X844550Y96520D01*
Y158750D01*
X1064260Y82550D02*
X1064420Y82710D01*
Y158590D01*
X1064580Y158750D01*
X1274605Y84295D02*
X1276350Y82550D01*
X1274605Y84295D02*
Y159545D01*
X1272860Y161290D02*
X1274605Y159545D01*
X1443515Y343375D02*
X1443990Y342900D01*
X1360645Y343375D02*
X1443515D01*
X1360170Y343850D02*
X1360645Y343375D01*
X1440975Y578645D02*
X1441450Y579120D01*
X1360645Y578645D02*
X1440975D01*
X1360170Y578170D02*
X1360645Y578645D01*
X1440655Y794545D02*
X1441450Y793750D01*
X1364775Y794545D02*
X1440655D01*
X1363980Y795340D02*
X1364775Y794545D01*
X1213800Y707390D02*
X1214595Y708185D01*
Y790415D01*
X1215390Y791210D01*
D102*
X192405Y81280D02*
Y100965D01*
X182880Y110490D02*
Y289560D01*
X1115060Y35560D02*
X1282700D01*
X676910D02*
X1115060D01*
X383540D02*
X405130D01*
X182880Y81280D02*
Y110490D01*
X1282700Y35560D02*
X1305560Y58420D01*
X1325150Y78010D01*
Y80550D01*
X1327150Y82550D01*
X655320Y35560D02*
X676910D01*
X405130D02*
X655320D01*
X228600D02*
X381000D01*
X182880Y81280D02*
X228600Y35560D01*
X182880Y110490D02*
X192405Y100965D01*
D103*
X684033Y657087D02*
X684530Y656590D01*
X680222Y657087D02*
X684033D01*
X676910Y660400D02*
X680222Y657087D01*
X143830Y582295D02*
X149225D01*
X149860Y582930D01*
X144150Y667385D02*
X151765D01*
X152400Y668020D01*
X339090Y298960D02*
Y308610D01*
Y298960D02*
X339230Y298820D01*
X303530Y649590D02*
Y660400D01*
X271780Y570230D02*
X282600D01*
X245110Y704850D02*
X245415Y705155D01*
X261315D01*
X261620Y705460D01*
X337770Y363220D02*
X341274Y359716D01*
X352754D01*
X353060Y359410D01*
X337770Y336550D02*
Y337524D01*
X341570Y341324D01*
X352754D01*
X353060Y341630D01*
X209550Y753425D02*
Y819150D01*
Y753425D02*
X219395Y743580D01*
X269240D01*
X184912Y770890D02*
X192085D01*
X209550Y753425D01*
X204150Y824550D02*
X209550Y819150D01*
X635000Y698500D02*
X653450D01*
X657250Y702300D01*
Y702310D01*
X265430Y600090D02*
Y619760D01*
X316230Y298820D02*
X317500Y300090D01*
X135393Y419873D02*
X135890Y420370D01*
X135393Y407430D02*
Y419873D01*
X131650Y405130D02*
X133092D01*
X135393Y407430D01*
X104440Y473710D02*
X111060D01*
X104140Y474010D02*
X104440Y473710D01*
X104140Y474010D02*
Y490220D01*
X96520Y497840D02*
X104140Y490220D01*
X81280Y497840D02*
X96520D01*
X186030Y409550D02*
Y431800D01*
X187010Y410210D02*
X190060Y413260D01*
X186350Y409550D02*
X187010Y410210D01*
X79430Y519430D02*
X80355Y518505D01*
Y498765D02*
Y518505D01*
Y498765D02*
X81280Y497840D01*
X135890D02*
X162560D01*
X165270Y430040D02*
X167030Y431800D01*
X165270Y411970D02*
Y430040D01*
X163510Y410210D02*
X165270Y411970D01*
X163510Y389890D02*
Y410210D01*
Y453390D02*
Y473710D01*
X219075Y503555D02*
Y523265D01*
X218440Y523900D02*
X219075Y523265D01*
Y503555D02*
X219710Y502920D01*
X243350Y543390D02*
X243840Y543880D01*
X218930Y543390D02*
X243350D01*
X218440Y542900D02*
X218930Y543390D01*
X218255Y543085D02*
X218440Y542900D01*
X191955Y543085D02*
X218255D01*
X191770Y543270D02*
X191955Y543085D01*
X781050Y634567D02*
Y635000D01*
X780480Y633997D02*
X781050Y634567D01*
X656295Y665480D02*
Y679105D01*
X615950Y556580D02*
X655000Y595630D01*
X615950Y466090D02*
Y556580D01*
Y466090D02*
X645160Y436880D01*
X605790Y458470D02*
Y577850D01*
Y458470D02*
X638810Y425450D01*
X605790Y577850D02*
X644313Y616373D01*
X594360Y593090D02*
X640080Y638810D01*
X594360Y393700D02*
Y593090D01*
Y393700D02*
X627380Y360680D01*
X83820Y415900D02*
Y425450D01*
X133350Y448310D02*
X149860Y431800D01*
X167030D01*
X111060Y448310D02*
X133350D01*
X160970Y450850D02*
X163510Y453390D01*
X149860Y450850D02*
X160970D01*
X139700Y461010D02*
X149860Y450850D01*
X111060Y461010D02*
X139700D01*
X109650Y414630D02*
Y435310D01*
X109950Y435610D01*
X111060D01*
X209550Y819150D02*
Y822960D01*
X158750Y824550D02*
X204150D01*
X267970Y836300D02*
X290830D01*
X222890D02*
X267970D01*
X209550Y822960D02*
X222890Y836300D01*
X269240Y743580D02*
X292100D01*
X301600Y570230D02*
X303230Y571860D01*
Y599790D01*
X303530Y600090D01*
X301600Y570230D02*
X304800Y567030D01*
Y537210D02*
Y567030D01*
X287020Y519430D02*
X304800Y537210D01*
X261620Y519430D02*
X287020D01*
X261145Y519905D02*
X261620Y519430D01*
X244315Y519905D02*
X261145D01*
X243840Y520380D02*
X244315Y519905D01*
X930910Y406400D02*
X978547D01*
X915670Y391160D02*
X930910Y406400D01*
X978547D02*
X981710Y409563D01*
Y595630D01*
X861060Y419100D02*
X954417D01*
X957580Y422263D02*
Y583250D01*
X840740Y398780D02*
X861060Y419100D01*
X954417D02*
X957580Y422263D01*
X1072830Y631190D02*
X1072990Y631030D01*
Y614840D02*
Y631030D01*
Y614840D02*
X1073150Y614680D01*
X340680Y387350D02*
X358140D01*
X359410Y388620D01*
X187010Y389890D02*
X260350D01*
X61260Y435610D02*
X61660D01*
X60960Y435310D02*
X61260Y435610D01*
X60960Y406400D02*
Y435310D01*
Y406400D02*
X70460Y396900D01*
X83820D01*
X111650Y395630D02*
X131360Y375920D01*
X175260D02*
X183960Y384620D01*
X131360Y375920D02*
X175260D01*
X183960Y386840D02*
X187010Y389890D01*
X183960Y384620D02*
Y386840D01*
X109650Y395630D02*
X111650D01*
X109015Y396265D02*
X109650Y395630D01*
X84455Y396265D02*
X109015D01*
X83820Y396900D02*
X84455Y396265D01*
X242570Y325120D02*
Y326390D01*
Y325120D02*
X243205Y324485D01*
Y306680D02*
Y324485D01*
Y306680D02*
X256540D01*
X229870D02*
X243205D01*
X190060Y413580D02*
X195453Y418973D01*
X201803D02*
X203200Y420370D01*
X186030Y409550D02*
X186350D01*
X195453Y418973D02*
X201803D01*
X190060Y413260D02*
Y413580D01*
X187010Y473710D02*
X205740D01*
X267970Y802640D02*
Y812800D01*
X269240Y767080D02*
Y775970D01*
X244590Y767080D02*
X269240D01*
X234188Y770890D02*
X241361D01*
X241394Y770857D01*
Y770276D02*
Y770857D01*
Y770276D02*
X244590Y767080D01*
X234188Y808990D02*
X241361D01*
X241394Y809023D02*
Y809604D01*
X244590Y812800D02*
X267970D01*
X241361Y808990D02*
X241394Y809023D01*
Y809604D02*
X244590Y812800D01*
X159474Y779780D02*
X163284Y783590D01*
X163510Y796290D02*
X184912D01*
X163284Y783590D02*
X184912D01*
X158750Y801050D02*
X163510Y796290D01*
X265430Y649590D02*
Y685800D01*
X144150Y667385D02*
Y678180D01*
X143830Y582295D02*
Y593090D01*
Y571500D02*
Y582295D01*
X144150Y656590D02*
Y667385D01*
X191215Y523240D02*
Y525515D01*
Y498395D02*
Y523240D01*
X52070Y530860D02*
X62560D01*
Y541960D01*
X62230Y519430D02*
X62560Y519760D01*
Y530860D01*
Y541960D02*
X62890Y542290D01*
X190660Y497840D02*
X191215Y498395D01*
Y525515D02*
X191770Y526070D01*
X654680Y680720D02*
X656295Y679105D01*
X777240Y576580D02*
X788480Y587820D01*
X728100Y576580D02*
X777240D01*
X707120Y555600D02*
X728100Y576580D01*
X706120Y555600D02*
X707120D01*
X681990D02*
X706120D01*
X656590D02*
X681990D01*
X646110Y360680D02*
X648970Y357820D01*
X627380Y360680D02*
X646110D01*
X681990Y367030D02*
Y417830D01*
X674370Y425450D02*
X681990Y417830D01*
X638810Y425450D02*
X674370D01*
X681990Y367030D02*
X688150Y360870D01*
X695450D01*
X698500Y357820D01*
X640080Y638810D02*
X654680D01*
X654153Y616373D02*
X655000Y617220D01*
X644313Y616373D02*
X654153D01*
X750570Y369570D02*
Y421640D01*
X645160Y436880D02*
X735330D01*
X750570Y421640D01*
X767840Y360870D02*
X770890Y357820D01*
X759270Y360870D02*
X767840D01*
X750570Y369570D02*
X759270Y360870D01*
X647700Y328930D02*
X648335Y329565D01*
Y357185D01*
X648970Y357820D01*
X698500Y328930D02*
Y357820D01*
X770890Y328930D02*
Y357820D01*
X821690Y328930D02*
Y357820D01*
X894080Y328930D02*
Y357820D01*
X835340D02*
X840740Y363220D01*
X821690Y357820D02*
X835340D01*
X840740Y363220D02*
Y398780D01*
X915670Y363220D02*
Y391160D01*
X910270Y357820D02*
X915670Y363220D01*
X894080Y357820D02*
X910270D01*
X955040Y605790D02*
X971550D01*
X981710Y595630D01*
X955360Y585470D02*
X957580Y583250D01*
X944880Y328930D02*
Y357820D01*
X995360D01*
X1008380Y370840D01*
Y612140D01*
X993140Y627380D02*
X1008380Y612140D01*
X955040Y627380D02*
X993140D01*
X812480Y563560D02*
Y613620D01*
X767840Y537210D02*
X777610D01*
X784910Y544510D01*
X793430D01*
X812480Y563560D01*
X845340Y537210D02*
X852460D01*
X838040Y544510D02*
X845340Y537210D01*
X838040Y544510D02*
Y546260D01*
X852460Y537210D02*
X862840D01*
X820480Y563820D02*
X838040Y546260D01*
X820480Y563820D02*
Y613620D01*
X845160Y529910D02*
X852460Y537210D01*
X845160Y495300D02*
Y529910D01*
X784910Y495300D02*
Y529910D01*
X777610Y537210D02*
X784910Y529910D01*
X1056640Y590550D02*
Y685800D01*
X955360Y711200D02*
X1031240D01*
X1056640Y685800D01*
X1021080Y690880D02*
X1045210Y666750D01*
Y543560D02*
Y666750D01*
X955040Y690880D02*
X1021080D01*
X1054100Y731520D02*
X1096010Y689610D01*
Y631510D02*
Y689610D01*
X955360Y731520D02*
X1054100D01*
X1045210Y543560D02*
X1056640Y532130D01*
Y590550D02*
X1064260Y582930D01*
X1089660D02*
X1097280Y575310D01*
X1064260Y582930D02*
X1089660D01*
X1088390Y469900D02*
X1095060Y463230D01*
X1047750Y469900D02*
X1088390D01*
X1033780Y483870D02*
X1047750Y469900D01*
X1095060Y398780D02*
Y409890D01*
X1088390Y416560D02*
X1095060Y409890D01*
X1038860Y416560D02*
X1088390D01*
X1021715Y433705D02*
X1038860Y416560D01*
X1021715Y433705D02*
Y626745D01*
X1000760Y647700D02*
X1021715Y626745D01*
X955360Y647700D02*
X1000760D01*
X1095060Y449580D02*
Y463230D01*
X1033780Y483870D02*
Y650240D01*
X1014730Y669290D02*
X1033780Y650240D01*
X955360Y669290D02*
X1014730D01*
X1093590Y514550D02*
X1096965Y511175D01*
X1093590Y514550D02*
Y525660D01*
X1087120Y532130D02*
X1093590Y525660D01*
X1056640Y532130D02*
X1087120D01*
X1097280Y562290D02*
Y575310D01*
X1096330Y561340D02*
X1097280Y562290D01*
X1096010Y631510D02*
X1096330Y631190D01*
X1122045Y630555D02*
X1122680Y629920D01*
X1096965Y630555D02*
X1122045D01*
X1096330Y631190D02*
X1096965Y630555D01*
X1096330Y561340D02*
X1123950D01*
X1123315Y511175D02*
X1123950Y510540D01*
X1096965Y511175D02*
X1123315D01*
X1095060Y449580D02*
X1123950D01*
X1095060Y398780D02*
X1123950D01*
X1480820Y629920D02*
X1492250D01*
X383540Y35560D02*
X397510Y49530D01*
X1480820Y393700D02*
X1492250D01*
X655320Y35560D02*
Y41910D01*
X662940Y49530D01*
X655320Y35560D02*
X662940Y43180D01*
Y49530D01*
X397510Y43180D02*
X405130Y35560D01*
X397510Y43180D02*
Y49530D01*
X316630Y427990D02*
X316905Y427715D01*
Y387625D02*
Y427715D01*
Y387625D02*
X317180Y387350D01*
X341155Y427515D02*
X341630Y427990D01*
X341155Y387825D02*
Y427515D01*
X340680Y387350D02*
X341155Y387825D01*
X317180Y387350D02*
X317975Y386555D01*
Y364015D02*
Y386555D01*
Y364015D02*
X318770Y363220D01*
Y336550D02*
Y363220D01*
X317500Y335280D02*
X318770Y336550D01*
X317500Y300090D02*
Y335280D01*
X118970Y207010D02*
X138430D01*
X99470D02*
X99740Y207280D01*
Y232140D01*
X100010Y232410D01*
X168910D02*
X176530Y240030D01*
X168910Y232410D02*
X176530Y224790D01*
X123510Y232410D02*
X168910D01*
X1480820Y629920D02*
X1488440Y637540D01*
X1480820Y629920D02*
X1488440Y622300D01*
X1480820Y393700D02*
X1488440Y401320D01*
X1480820Y393700D02*
X1488440Y386080D01*
X1115060Y49530D02*
X1122680Y41910D01*
X1107440D02*
X1115060Y49530D01*
X876300Y48260D02*
X883920Y40640D01*
X868680D02*
X876300Y48260D01*
X662940Y49530D02*
X676910Y35560D01*
X405130D02*
Y41910D01*
X397510Y49530D02*
X405130Y41910D01*
X382270Y35560D02*
X383540D01*
D104*
X120330Y635000D02*
Y656270D01*
X115966Y619044D02*
Y621262D01*
X120330Y656270D02*
X120650Y656590D01*
X120330Y593090D02*
Y614680D01*
X96520Y678180D02*
X120650D01*
X87630Y669290D02*
X96520Y678180D01*
X87630Y643890D02*
Y669290D01*
X82270Y604800D02*
X93980Y593090D01*
X71080Y604800D02*
X82270D01*
X93980Y577850D02*
Y593090D01*
X78598Y634858D02*
X87630Y643890D01*
X71138Y634858D02*
X78598D01*
X71080Y634800D02*
X71138Y634858D01*
X117790Y574040D02*
X120330Y571500D01*
X97790Y574040D02*
X117790D01*
X93980Y577850D02*
X97790Y574040D01*
X143830Y614680D02*
X148194Y619044D01*
X235622Y622753D02*
X248401Y635532D01*
X149818Y622753D02*
X235622D01*
X248401Y635532D02*
Y639502D01*
X250024Y641126D02*
X251116D01*
X248401Y639502D02*
X250024Y641126D01*
X251116D02*
X252730Y642740D01*
Y649590D01*
X148194Y621129D02*
X149818Y622753D01*
X148194Y619044D02*
Y621129D01*
X150138Y626795D02*
X233948D01*
X148514Y628418D02*
X150138Y626795D01*
X241644Y641126D02*
X242736D01*
X244359Y637206D02*
Y639502D01*
X240030Y642740D02*
Y649590D01*
Y642740D02*
X241644Y641126D01*
X233948Y626795D02*
X244359Y637206D01*
X148514Y628418D02*
Y630636D01*
X144150Y635000D02*
X148514Y630636D01*
X242736Y641126D02*
X244359Y639502D01*
X71080Y629800D02*
X71184Y629696D01*
X114662Y626927D02*
X116286Y628551D01*
Y630636D01*
X95893Y629321D02*
X98287Y626927D01*
X78587Y629321D02*
X95893D01*
X78212Y629696D02*
X78587Y629321D01*
X71184Y629696D02*
X78212D01*
X98287Y626927D02*
X114662D01*
X116286Y630636D02*
X120650Y635000D01*
X94219Y625279D02*
X96613Y622886D01*
X71184Y624904D02*
X78212D01*
X96613Y622886D02*
X114342D01*
X71080Y624800D02*
X71184Y624904D01*
X115966Y619044D02*
X120330Y614680D01*
X114342Y622886D02*
X115966Y621262D01*
X78587Y625279D02*
X94219D01*
X78212Y624904D02*
X78587Y625279D01*
X59690Y621424D02*
Y628176D01*
Y621424D02*
X61314Y619800D01*
X71080D01*
X59690Y628176D02*
X61314Y629800D01*
X71080D01*
X71184Y614904D02*
X79656D01*
Y624696D02*
X81280Y623072D01*
Y616528D02*
Y623072D01*
X79656Y614904D02*
X81280Y616528D01*
X71080Y614800D02*
X71184Y614904D01*
X71080Y624800D02*
X71184Y624696D01*
D105*
X123510Y179070D02*
X138430D01*
X698500Y215900D02*
Y252730D01*
X668020Y185420D02*
X698500Y215900D01*
X400370Y185420D02*
X668020D01*
X371160Y156210D02*
X400370Y185420D01*
X944880Y233680D02*
Y252730D01*
X960120Y218440D02*
X1219200D01*
X944880Y233680D02*
X960120Y218440D01*
X1249360Y161290D02*
Y188280D01*
X1219200Y218440D02*
X1249360Y188280D01*
X915670Y158750D02*
X1041080D01*
X894080Y180340D02*
X915670Y158750D01*
X894080Y180340D02*
Y252730D01*
X821370Y252410D02*
X821690Y252730D01*
X821370Y159070D02*
Y252410D01*
X821050Y158750D02*
X821370Y159070D01*
X770890Y194310D02*
Y252730D01*
X734060Y157480D02*
X770890Y194310D01*
X637540Y157480D02*
X734060D01*
D106*
X612660Y809900D02*
D03*
D107*
X677660D02*
D03*
X614160Y764900D02*
D03*
X677660D02*
D03*
D108*
X65330Y579100D02*
D03*
Y665500D02*
D03*
D109*
X25330Y579100D02*
D03*
Y665500D02*
D03*
D110*
X1442720Y27940D02*
D03*
Y78740D02*
D03*
Y129540D02*
D03*
X1174750Y82550D02*
D03*
X1225550D02*
D03*
X1276350D02*
D03*
X962660D02*
D03*
X1013460D02*
D03*
X1064260D02*
D03*
X30480Y81280D02*
D03*
X81280D02*
D03*
X132080D02*
D03*
X612140Y78740D02*
D03*
X561340D02*
D03*
X510540D02*
D03*
X57150Y812800D02*
D03*
X346710Y80010D02*
D03*
X295910D02*
D03*
X245110D02*
D03*
X1215390Y791210D02*
D03*
X1266190D02*
D03*
X1316990D02*
D03*
X825500Y77470D02*
D03*
X774700D02*
D03*
X723900D02*
D03*
X1441450Y793750D02*
D03*
Y742950D02*
D03*
Y692150D02*
D03*
Y579120D02*
D03*
Y528320D02*
D03*
Y477520D02*
D03*
X1443990Y342900D02*
D03*
Y292100D02*
D03*
Y241300D02*
D03*
D111*
X1442720Y180340D02*
D03*
X57150Y762000D02*
D03*
X1441450Y844550D02*
D03*
Y629920D02*
D03*
X1443990Y393700D02*
D03*
D112*
X1327150Y82550D02*
D03*
X1115060D02*
D03*
X182880Y81280D02*
D03*
X662940Y78740D02*
D03*
X397510Y80010D02*
D03*
X1164590Y791210D02*
D03*
X876300Y77470D02*
D03*
D113*
X109930Y284470D02*
D03*
D114*
X79930Y331470D02*
D03*
D115*
X139930D02*
D03*
D116*
X647700Y328930D02*
D03*
X673100D02*
D03*
X698500D02*
D03*
X723900D02*
D03*
Y252730D02*
D03*
X698500D02*
D03*
X673100D02*
D03*
X1123950Y398780D02*
D03*
Y424180D02*
D03*
Y449580D02*
D03*
Y474980D02*
D03*
X1200150D02*
D03*
Y449580D02*
D03*
Y424180D02*
D03*
X1123950Y510540D02*
D03*
Y535940D02*
D03*
Y561340D02*
D03*
Y586740D02*
D03*
X1200150D02*
D03*
Y561340D02*
D03*
Y535940D02*
D03*
X770890Y328930D02*
D03*
X796290D02*
D03*
X821690D02*
D03*
X847090D02*
D03*
Y252730D02*
D03*
X821690D02*
D03*
X796290D02*
D03*
X894080Y328930D02*
D03*
X919480D02*
D03*
X944880D02*
D03*
X970280D02*
D03*
Y252730D02*
D03*
X944880D02*
D03*
X919480D02*
D03*
D117*
X647700D02*
D03*
X770890D02*
D03*
X894080D02*
D03*
D118*
X1200150Y398780D02*
D03*
Y510540D02*
D03*
D119*
X1198880Y629920D02*
D03*
Y655320D02*
D03*
X1122680D02*
D03*
Y629920D02*
D03*
D120*
X339090Y802640D02*
D03*
X364490D02*
D03*
X339090Y777240D02*
D03*
D121*
X364490D02*
D03*
D122*
X341630Y427990D02*
D03*
D123*
X316630D02*
D03*
D124*
X684530Y656590D02*
D03*
X303530Y660400D02*
D03*
X246380Y704850D02*
D03*
X135890Y420370D02*
D03*
Y497840D02*
D03*
X52070Y530860D02*
D03*
D125*
X149860Y582930D02*
D03*
X152400Y668020D02*
D03*
X339090Y308610D02*
D03*
X271780Y570230D02*
D03*
X645160Y825500D02*
D03*
X570230D02*
D03*
X265430Y619760D02*
D03*
X81280Y497840D02*
D03*
X219710Y502920D02*
D03*
X645160Y556260D02*
D03*
Y535940D02*
D03*
X83820Y425450D02*
D03*
X261620Y519430D02*
D03*
X706120Y527050D02*
D03*
X681990D02*
D03*
X1073150Y553720D02*
D03*
X648970Y388620D02*
D03*
X698500D02*
D03*
X770890Y389890D02*
D03*
X821690Y388620D02*
D03*
X894080D02*
D03*
X944880D02*
D03*
X1073150Y389890D02*
D03*
Y440690D02*
D03*
Y504190D02*
D03*
Y614680D02*
D03*
X359410Y388620D02*
D03*
X260350Y389890D02*
D03*
X242570Y326390D02*
D03*
X203200Y420370D02*
D03*
X205740Y473710D02*
D03*
X267970Y802640D02*
D03*
X269240Y775970D02*
D03*
X138430Y179070D02*
D03*
X815340Y474980D02*
D03*
X1360170Y156210D02*
D03*
D126*
X353060Y359410D02*
D03*
Y341630D02*
D03*
X176530Y808990D02*
D03*
X797560Y596900D02*
D03*
X635000Y698500D02*
D03*
X641350Y665480D02*
D03*
X793750Y635000D02*
D03*
X781050D02*
D03*
X579120D02*
D03*
X570230Y643890D02*
D03*
X767080Y727710D02*
D03*
X50800Y590550D02*
D03*
Y654050D02*
D03*
X138430Y207010D02*
D03*
D127*
X711200Y643890D02*
D03*
D128*
X720090Y635000D02*
D03*
M02*
