G04*
G04 #@! TF.GenerationSoftware,Altium Limited,Altium Designer,25.4.2 (15)*
G04*
G04 Layer_Color=2752767*
%FSLAX44Y44*%
%MOMM*%
G71*
G04*
G04 #@! TF.SameCoordinates,AB3986B5-8965-4272-984F-493E451A5069*
G04*
G04*
G04 #@! TF.FilePolarity,Positive*
G04*
G01*
G75*
%ADD16C,0.1270*%
%ADD131C,0.1016*%
%ADD136C,0.1693*%
D16*
X612660Y804820D02*
X607580Y814980D01*
X617740D01*
X612660Y804820D01*
X677660D02*
X672580Y814980D01*
X682740D01*
X677660Y804820D01*
X614160Y759820D02*
X609080Y769980D01*
X619240D01*
X614160Y759820D01*
X677660D02*
X672580Y769980D01*
X682740D01*
X677660Y759820D01*
X20250Y574020D02*
Y584180D01*
X30410D01*
Y574020D01*
X20250D01*
X22282Y576052D02*
Y582148D01*
X28378D01*
Y576052D01*
X22282D01*
X20250Y660420D02*
Y670580D01*
X30410D01*
Y660420D01*
X20250D01*
X22282Y662452D02*
Y668548D01*
X28378D01*
Y662452D01*
X22282D01*
X1437640Y22860D02*
Y33020D01*
X1447800D01*
Y22860D01*
X1437640D01*
Y73660D02*
Y83820D01*
X1447800D01*
Y73660D01*
X1437640D01*
Y124460D02*
Y134620D01*
X1447800D01*
Y124460D01*
X1437640D01*
Y175260D02*
Y185420D01*
X1447800D01*
Y175260D01*
X1437640D01*
X1169670Y77470D02*
Y87630D01*
X1179830D01*
Y77470D01*
X1169670D01*
X1220470D02*
Y87630D01*
X1230630D01*
Y77470D01*
X1220470D01*
X1271270D02*
Y87630D01*
X1281430D01*
Y77470D01*
X1271270D01*
X1322070D02*
Y87630D01*
X1332230D01*
Y77470D01*
X1322070D01*
X957580D02*
Y87630D01*
X967740D01*
Y77470D01*
X957580D01*
X1008380D02*
Y87630D01*
X1018540D01*
Y77470D01*
X1008380D01*
X1059180D02*
Y87630D01*
X1069340D01*
Y77470D01*
X1059180D01*
X1109980D02*
Y87630D01*
X1120140D01*
Y77470D01*
X1109980D01*
X25400Y76200D02*
Y86360D01*
X35560D01*
Y76200D01*
X25400D01*
X76200D02*
Y86360D01*
X86360D01*
Y76200D01*
X76200D01*
X127000D02*
Y86360D01*
X137160D01*
Y76200D01*
X127000D01*
X177800D02*
Y86360D01*
X187960D01*
Y76200D01*
X177800D01*
X657860Y73660D02*
Y83820D01*
X668020D01*
Y73660D01*
X657860D01*
X607060D02*
Y83820D01*
X617220D01*
Y73660D01*
X607060D01*
X556260D02*
Y83820D01*
X566420D01*
Y73660D01*
X556260D01*
X505460D02*
Y83820D01*
X515620D01*
Y73660D01*
X505460D01*
X104850Y279390D02*
X107390D01*
X109930Y281930D01*
X112470Y279390D01*
X115010D01*
Y281930D01*
X112470Y284470D01*
X115010Y287010D01*
Y289550D01*
X112470D01*
X109930Y287010D01*
X107390Y289550D01*
X104850D01*
Y287010D01*
X107390Y284470D01*
X104850Y281930D01*
Y279390D01*
X74850Y326390D02*
X77390D01*
X79930Y328930D01*
X82470Y326390D01*
X85010D01*
Y328930D01*
X82470Y331470D01*
X85010Y334010D01*
Y336550D01*
X82470D01*
X79930Y334010D01*
X77390Y336550D01*
X74850D01*
Y334010D01*
X77390Y331470D01*
X74850Y328930D01*
Y326390D01*
X137390Y328930D02*
Y326390D01*
X142470D01*
Y328930D01*
X145010D01*
Y334010D01*
X142470D01*
Y336550D01*
X137390D01*
Y334010D01*
X134850D01*
Y328930D01*
X137390D01*
X52070Y807720D02*
Y817880D01*
X62230D01*
Y807720D01*
X52070D01*
Y756920D02*
Y767080D01*
X62230D01*
Y756920D01*
X52070D01*
X642620Y323850D02*
X645160Y328930D01*
X642620Y334010D01*
X647700Y331470D01*
X652780Y334010D01*
X650240Y328930D01*
X652780Y323850D01*
X647700Y326390D01*
X642620Y323850D01*
X668020D02*
X670560Y328930D01*
X668020Y334010D01*
X673100Y331470D01*
X678180Y334010D01*
X675640Y328930D01*
X678180Y323850D01*
X673100Y326390D01*
X668020Y323850D01*
X693420D02*
X695960Y328930D01*
X693420Y334010D01*
X698500Y331470D01*
X703580Y334010D01*
X701040Y328930D01*
X703580Y323850D01*
X698500Y326390D01*
X693420Y323850D01*
X718820D02*
X721360Y328930D01*
X718820Y334010D01*
X723900Y331470D01*
X728980Y334010D01*
X726440Y328930D01*
X728980Y323850D01*
X723900Y326390D01*
X718820Y323850D01*
Y247650D02*
X721360Y252730D01*
X718820Y257810D01*
X723900Y255270D01*
X728980Y257810D01*
X726440Y252730D01*
X728980Y247650D01*
X723900Y250190D01*
X718820Y247650D01*
X693420D02*
X695960Y252730D01*
X693420Y257810D01*
X698500Y255270D01*
X703580Y257810D01*
X701040Y252730D01*
X703580Y247650D01*
X698500Y250190D01*
X693420Y247650D01*
X668020D02*
X670560Y252730D01*
X668020Y257810D01*
X673100Y255270D01*
X678180Y257810D01*
X675640Y252730D01*
X678180Y247650D01*
X673100Y250190D01*
X668020Y247650D01*
X642620D02*
X645160Y252730D01*
X642620Y257810D01*
X647700Y255270D01*
X652780Y257810D01*
X650240Y252730D01*
X652780Y247650D01*
X647700Y250190D01*
X642620Y247650D01*
X1118870Y393700D02*
X1121410Y398780D01*
X1118870Y403860D01*
X1123950Y401320D01*
X1129030Y403860D01*
X1126490Y398780D01*
X1129030Y393700D01*
X1123950Y396240D01*
X1118870Y393700D01*
Y419100D02*
X1121410Y424180D01*
X1118870Y429260D01*
X1123950Y426720D01*
X1129030Y429260D01*
X1126490Y424180D01*
X1129030Y419100D01*
X1123950Y421640D01*
X1118870Y419100D01*
Y444500D02*
X1121410Y449580D01*
X1118870Y454660D01*
X1123950Y452120D01*
X1129030Y454660D01*
X1126490Y449580D01*
X1129030Y444500D01*
X1123950Y447040D01*
X1118870Y444500D01*
Y469900D02*
X1121410Y474980D01*
X1118870Y480060D01*
X1123950Y477520D01*
X1129030Y480060D01*
X1126490Y474980D01*
X1129030Y469900D01*
X1123950Y472440D01*
X1118870Y469900D01*
X1195070D02*
X1197610Y474980D01*
X1195070Y480060D01*
X1200150Y477520D01*
X1205230Y480060D01*
X1202690Y474980D01*
X1205230Y469900D01*
X1200150Y472440D01*
X1195070Y469900D01*
Y444500D02*
X1197610Y449580D01*
X1195070Y454660D01*
X1200150Y452120D01*
X1205230Y454660D01*
X1202690Y449580D01*
X1205230Y444500D01*
X1200150Y447040D01*
X1195070Y444500D01*
Y419100D02*
X1197610Y424180D01*
X1195070Y429260D01*
X1200150Y426720D01*
X1205230Y429260D01*
X1202690Y424180D01*
X1205230Y419100D01*
X1200150Y421640D01*
X1195070Y419100D01*
Y393700D02*
X1197610Y398780D01*
X1195070Y403860D01*
X1200150Y401320D01*
X1205230Y403860D01*
X1202690Y398780D01*
X1205230Y393700D01*
X1200150Y396240D01*
X1195070Y393700D01*
X1118870Y505460D02*
X1121410Y510540D01*
X1118870Y515620D01*
X1123950Y513080D01*
X1129030Y515620D01*
X1126490Y510540D01*
X1129030Y505460D01*
X1123950Y508000D01*
X1118870Y505460D01*
Y530860D02*
X1121410Y535940D01*
X1118870Y541020D01*
X1123950Y538480D01*
X1129030Y541020D01*
X1126490Y535940D01*
X1129030Y530860D01*
X1123950Y533400D01*
X1118870Y530860D01*
Y556260D02*
X1121410Y561340D01*
X1118870Y566420D01*
X1123950Y563880D01*
X1129030Y566420D01*
X1126490Y561340D01*
X1129030Y556260D01*
X1123950Y558800D01*
X1118870Y556260D01*
Y581660D02*
X1121410Y586740D01*
X1118870Y591820D01*
X1123950Y589280D01*
X1129030Y591820D01*
X1126490Y586740D01*
X1129030Y581660D01*
X1123950Y584200D01*
X1118870Y581660D01*
X1195070D02*
X1197610Y586740D01*
X1195070Y591820D01*
X1200150Y589280D01*
X1205230Y591820D01*
X1202690Y586740D01*
X1205230Y581660D01*
X1200150Y584200D01*
X1195070Y581660D01*
Y556260D02*
X1197610Y561340D01*
X1195070Y566420D01*
X1200150Y563880D01*
X1205230Y566420D01*
X1202690Y561340D01*
X1205230Y556260D01*
X1200150Y558800D01*
X1195070Y556260D01*
Y530860D02*
X1197610Y535940D01*
X1195070Y541020D01*
X1200150Y538480D01*
X1205230Y541020D01*
X1202690Y535940D01*
X1205230Y530860D01*
X1200150Y533400D01*
X1195070Y530860D01*
Y505460D02*
X1197610Y510540D01*
X1195070Y515620D01*
X1200150Y513080D01*
X1205230Y515620D01*
X1202690Y510540D01*
X1205230Y505460D01*
X1200150Y508000D01*
X1195070Y505460D01*
X392430Y74930D02*
Y85090D01*
X402590D01*
Y74930D01*
X392430D01*
X341630D02*
Y85090D01*
X351790D01*
Y74930D01*
X341630D01*
X290830D02*
Y85090D01*
X300990D01*
Y74930D01*
X290830D01*
X240030D02*
Y85090D01*
X250190D01*
Y74930D01*
X240030D01*
X1159510Y786130D02*
Y796290D01*
X1169670D01*
Y786130D01*
X1159510D01*
X1210310D02*
Y796290D01*
X1220470D01*
Y786130D01*
X1210310D01*
X1261110D02*
Y796290D01*
X1271270D01*
Y786130D01*
X1261110D01*
X1311910D02*
Y796290D01*
X1322070D01*
Y786130D01*
X1311910D01*
X1198880Y624840D02*
X1201420Y627380D01*
X1203960D01*
X1201420Y629920D01*
X1203960Y632460D01*
X1201420D01*
X1198880Y635000D01*
X1196340Y632460D01*
X1193800D01*
X1196340Y629920D01*
X1193800Y627380D01*
X1196340D01*
X1198880Y624840D01*
Y650240D02*
X1201420Y652780D01*
X1203960D01*
X1201420Y655320D01*
X1203960Y657860D01*
X1201420D01*
X1198880Y660400D01*
X1196340Y657860D01*
X1193800D01*
X1196340Y655320D01*
X1193800Y652780D01*
X1196340D01*
X1198880Y650240D01*
X1122680D02*
X1125220Y652780D01*
X1127760D01*
X1125220Y655320D01*
X1127760Y657860D01*
X1125220D01*
X1122680Y660400D01*
X1120140Y657860D01*
X1117600D01*
X1120140Y655320D01*
X1117600Y652780D01*
X1120140D01*
X1122680Y650240D01*
Y624840D02*
X1125220Y627380D01*
X1127760D01*
X1125220Y629920D01*
X1127760Y632460D01*
X1125220D01*
X1122680Y635000D01*
X1120140Y632460D01*
X1117600D01*
X1120140Y629920D01*
X1117600Y627380D01*
X1120140D01*
X1122680Y624840D01*
X765810Y323850D02*
X768350Y328930D01*
X765810Y334010D01*
X770890Y331470D01*
X775970Y334010D01*
X773430Y328930D01*
X775970Y323850D01*
X770890Y326390D01*
X765810Y323850D01*
X791210D02*
X793750Y328930D01*
X791210Y334010D01*
X796290Y331470D01*
X801370Y334010D01*
X798830Y328930D01*
X801370Y323850D01*
X796290Y326390D01*
X791210Y323850D01*
X816610D02*
X819150Y328930D01*
X816610Y334010D01*
X821690Y331470D01*
X826770Y334010D01*
X824230Y328930D01*
X826770Y323850D01*
X821690Y326390D01*
X816610Y323850D01*
X842010D02*
X844550Y328930D01*
X842010Y334010D01*
X847090Y331470D01*
X852170Y334010D01*
X849630Y328930D01*
X852170Y323850D01*
X847090Y326390D01*
X842010Y323850D01*
Y247650D02*
X844550Y252730D01*
X842010Y257810D01*
X847090Y255270D01*
X852170Y257810D01*
X849630Y252730D01*
X852170Y247650D01*
X847090Y250190D01*
X842010Y247650D01*
X816610D02*
X819150Y252730D01*
X816610Y257810D01*
X821690Y255270D01*
X826770Y257810D01*
X824230Y252730D01*
X826770Y247650D01*
X821690Y250190D01*
X816610Y247650D01*
X791210D02*
X793750Y252730D01*
X791210Y257810D01*
X796290Y255270D01*
X801370Y257810D01*
X798830Y252730D01*
X801370Y247650D01*
X796290Y250190D01*
X791210Y247650D01*
X765810D02*
X768350Y252730D01*
X765810Y257810D01*
X770890Y255270D01*
X775970Y257810D01*
X773430Y252730D01*
X775970Y247650D01*
X770890Y250190D01*
X765810Y247650D01*
X871220Y72390D02*
Y82550D01*
X881380D01*
Y72390D01*
X871220D01*
X820420D02*
Y82550D01*
X830580D01*
Y72390D01*
X820420D01*
X769620D02*
Y82550D01*
X779780D01*
Y72390D01*
X769620D01*
X718820D02*
Y82550D01*
X728980D01*
Y72390D01*
X718820D01*
X1436370Y839470D02*
Y849630D01*
X1446530D01*
Y839470D01*
X1436370D01*
Y788670D02*
Y798830D01*
X1446530D01*
Y788670D01*
X1436370D01*
Y737870D02*
Y748030D01*
X1446530D01*
Y737870D01*
X1436370D01*
Y687070D02*
Y697230D01*
X1446530D01*
Y687070D01*
X1436370D01*
Y624840D02*
Y635000D01*
X1446530D01*
Y624840D01*
X1436370D01*
Y574040D02*
Y584200D01*
X1446530D01*
Y574040D01*
X1436370D01*
Y523240D02*
Y533400D01*
X1446530D01*
Y523240D01*
X1436370D01*
Y472440D02*
Y482600D01*
X1446530D01*
Y472440D01*
X1436370D01*
X1438910Y388620D02*
Y398780D01*
X1449070D01*
Y388620D01*
X1438910D01*
Y337820D02*
Y347980D01*
X1449070D01*
Y337820D01*
X1438910D01*
Y287020D02*
Y297180D01*
X1449070D01*
Y287020D01*
X1438910D01*
Y236220D02*
Y246380D01*
X1449070D01*
Y236220D01*
X1438910D01*
X889000Y323850D02*
X891540Y328930D01*
X889000Y334010D01*
X894080Y331470D01*
X899160Y334010D01*
X896620Y328930D01*
X899160Y323850D01*
X894080Y326390D01*
X889000Y323850D01*
X914400D02*
X916940Y328930D01*
X914400Y334010D01*
X919480Y331470D01*
X924560Y334010D01*
X922020Y328930D01*
X924560Y323850D01*
X919480Y326390D01*
X914400Y323850D01*
X939800D02*
X942340Y328930D01*
X939800Y334010D01*
X944880Y331470D01*
X949960Y334010D01*
X947420Y328930D01*
X949960Y323850D01*
X944880Y326390D01*
X939800Y323850D01*
X965200D02*
X967740Y328930D01*
X965200Y334010D01*
X970280Y331470D01*
X975360Y334010D01*
X972820Y328930D01*
X975360Y323850D01*
X970280Y326390D01*
X965200Y323850D01*
Y247650D02*
X967740Y252730D01*
X965200Y257810D01*
X970280Y255270D01*
X975360Y257810D01*
X972820Y252730D01*
X975360Y247650D01*
X970280Y250190D01*
X965200Y247650D01*
X939800D02*
X942340Y252730D01*
X939800Y257810D01*
X944880Y255270D01*
X949960Y257810D01*
X947420Y252730D01*
X949960Y247650D01*
X944880Y250190D01*
X939800Y247650D01*
X914400D02*
X916940Y252730D01*
X914400Y257810D01*
X919480Y255270D01*
X924560Y257810D01*
X922020Y252730D01*
X924560Y247650D01*
X919480Y250190D01*
X914400Y247650D01*
X889000D02*
X891540Y252730D01*
X889000Y257810D01*
X894080Y255270D01*
X899160Y257810D01*
X896620Y252730D01*
X899160Y247650D01*
X894080Y250190D01*
X889000Y247650D01*
X336550Y427990D02*
X341630Y433070D01*
X346710Y427990D01*
X341630Y422910D01*
X336550Y427990D01*
X311550D02*
X316630Y433070D01*
X321710Y427990D01*
X316630Y422910D01*
X311550Y427990D01*
X684530Y651510D02*
X679450Y661670D01*
X689610D01*
X684530Y651510D01*
Y653542D02*
X681482Y659638D01*
X687578D01*
X684530Y653542D01*
X149860Y577850D02*
X152400Y580390D01*
X154940D01*
X152400Y582930D01*
X154940Y585470D01*
X152400D01*
X149860Y588010D01*
X147320Y585470D01*
X144780D01*
X147320Y582930D01*
X144780Y580390D01*
X147320D01*
X149860Y577850D01*
Y579882D02*
X151384Y581406D01*
X152908D01*
X151384Y582930D01*
X152908Y584454D01*
X151384D01*
X149860Y585978D01*
X148336Y584454D01*
X146812D01*
X148336Y582930D01*
X146812Y581406D01*
X148336D01*
X149860Y579882D01*
X152400Y662940D02*
X154940Y665480D01*
X157480D01*
X154940Y668020D01*
X157480Y670560D01*
X154940D01*
X152400Y673100D01*
X149860Y670560D01*
X147320D01*
X149860Y668020D01*
X147320Y665480D01*
X149860D01*
X152400Y662940D01*
Y664972D02*
X153924Y666496D01*
X155448D01*
X153924Y668020D01*
X155448Y669544D01*
X153924D01*
X152400Y671068D01*
X150876Y669544D01*
X149352D01*
X150876Y668020D01*
X149352Y666496D01*
X150876D01*
X152400Y664972D01*
X339090Y303530D02*
X341630Y306070D01*
X344170D01*
X341630Y308610D01*
X344170Y311150D01*
X341630D01*
X339090Y313690D01*
X336550Y311150D01*
X334010D01*
X336550Y308610D01*
X334010Y306070D01*
X336550D01*
X339090Y303530D01*
Y305562D02*
X340614Y307086D01*
X342138D01*
X340614Y308610D01*
X342138Y310134D01*
X340614D01*
X339090Y311658D01*
X337566Y310134D01*
X336042D01*
X337566Y308610D01*
X336042Y307086D01*
X337566D01*
X339090Y305562D01*
X303530Y655320D02*
X298450Y665480D01*
X308610D01*
X303530Y655320D01*
Y657352D02*
X300482Y663448D01*
X306578D01*
X303530Y657352D01*
X271780Y565150D02*
X274320Y567690D01*
X276860D01*
X274320Y570230D01*
X276860Y572770D01*
X274320D01*
X271780Y575310D01*
X269240Y572770D01*
X266700D01*
X269240Y570230D01*
X266700Y567690D01*
X269240D01*
X271780Y565150D01*
Y567182D02*
X273304Y568706D01*
X274828D01*
X273304Y570230D01*
X274828Y571754D01*
X273304D01*
X271780Y573278D01*
X270256Y571754D01*
X268732D01*
X270256Y570230D01*
X268732Y568706D01*
X270256D01*
X271780Y567182D01*
X246380Y699770D02*
X241300Y709930D01*
X251460D01*
X246380Y699770D01*
Y701802D02*
X243332Y707898D01*
X249428D01*
X246380Y701802D01*
X645160Y820420D02*
X647700Y822960D01*
X650240D01*
X647700Y825500D01*
X650240Y828040D01*
X647700D01*
X645160Y830580D01*
X642620Y828040D01*
X640080D01*
X642620Y825500D01*
X640080Y822960D01*
X642620D01*
X645160Y820420D01*
Y822452D02*
X646684Y823976D01*
X648208D01*
X646684Y825500D01*
X648208Y827024D01*
X646684D01*
X645160Y828548D01*
X643636Y827024D01*
X642112D01*
X643636Y825500D01*
X642112Y823976D01*
X643636D01*
X645160Y822452D01*
X570230Y820420D02*
X572770Y822960D01*
X575310D01*
X572770Y825500D01*
X575310Y828040D01*
X572770D01*
X570230Y830580D01*
X567690Y828040D01*
X565150D01*
X567690Y825500D01*
X565150Y822960D01*
X567690D01*
X570230Y820420D01*
Y822452D02*
X571754Y823976D01*
X573278D01*
X571754Y825500D01*
X573278Y827024D01*
X571754D01*
X570230Y828548D01*
X568706Y827024D01*
X567182D01*
X568706Y825500D01*
X567182Y823976D01*
X568706D01*
X570230Y822452D01*
X353060Y354330D02*
X347980Y364490D01*
X358140D01*
X353060Y354330D01*
Y356362D02*
X350012Y362458D01*
X356108D01*
X353060Y356362D01*
Y336550D02*
X347980Y346710D01*
X358140D01*
X353060Y336550D01*
Y338582D02*
X350012Y344678D01*
X356108D01*
X353060Y338582D01*
X171450Y803910D02*
X173990Y808990D01*
X171450Y814070D01*
X176530Y811530D01*
X181610Y814070D01*
X179070Y808990D01*
X181610Y803910D01*
X176530Y806450D01*
X171450Y803910D01*
X173482Y805942D02*
X175006Y808990D01*
X173482Y812038D01*
X176530Y810514D01*
X179578Y812038D01*
X178054Y808990D01*
X179578Y805942D01*
X176530Y807466D01*
X173482Y805942D01*
X792480Y591820D02*
X795020Y596900D01*
X792480Y601980D01*
X797560Y599440D01*
X802640Y601980D01*
X800100Y596900D01*
X802640Y591820D01*
X797560Y594360D01*
X792480Y591820D01*
X794512Y593852D02*
X796036Y596900D01*
X794512Y599948D01*
X797560Y598424D01*
X800608Y599948D01*
X799084Y596900D01*
X800608Y593852D01*
X797560Y595376D01*
X794512Y593852D01*
X629920Y693420D02*
X632460Y698500D01*
X629920Y703580D01*
X635000Y701040D01*
X640080Y703580D01*
X637540Y698500D01*
X640080Y693420D01*
X635000Y695960D01*
X629920Y693420D01*
X631952Y695452D02*
X633476Y698500D01*
X631952Y701548D01*
X635000Y700024D01*
X638048Y701548D01*
X636524Y698500D01*
X638048Y695452D01*
X635000Y696976D01*
X631952Y695452D01*
X265430Y614680D02*
X267970Y617220D01*
X270510D01*
X267970Y619760D01*
X270510Y622300D01*
X267970D01*
X265430Y624840D01*
X262890Y622300D01*
X260350D01*
X262890Y619760D01*
X260350Y617220D01*
X262890D01*
X265430Y614680D01*
Y616712D02*
X266954Y618236D01*
X268478D01*
X266954Y619760D01*
X268478Y621284D01*
X266954D01*
X265430Y622808D01*
X263906Y621284D01*
X262382D01*
X263906Y619760D01*
X262382Y618236D01*
X263906D01*
X265430Y616712D01*
X135890Y415290D02*
X130810Y425450D01*
X140970D01*
X135890Y415290D01*
Y417322D02*
X132842Y423418D01*
X138938D01*
X135890Y417322D01*
X81280Y492760D02*
X83820Y495300D01*
X86360D01*
X83820Y497840D01*
X86360Y500380D01*
X83820D01*
X81280Y502920D01*
X78740Y500380D01*
X76200D01*
X78740Y497840D01*
X76200Y495300D01*
X78740D01*
X81280Y492760D01*
Y494792D02*
X82804Y496316D01*
X84328D01*
X82804Y497840D01*
X84328Y499364D01*
X82804D01*
X81280Y500888D01*
X79756Y499364D01*
X78232D01*
X79756Y497840D01*
X78232Y496316D01*
X79756D01*
X81280Y494792D01*
X135890Y492760D02*
X130810Y502920D01*
X140970D01*
X135890Y492760D01*
Y494792D02*
X132842Y500888D01*
X138938D01*
X135890Y494792D01*
X219710Y497840D02*
X222250Y500380D01*
X224790D01*
X222250Y502920D01*
X224790Y505460D01*
X222250D01*
X219710Y508000D01*
X217170Y505460D01*
X214630D01*
X217170Y502920D01*
X214630Y500380D01*
X217170D01*
X219710Y497840D01*
Y499872D02*
X221234Y501396D01*
X222758D01*
X221234Y502920D01*
X222758Y504444D01*
X221234D01*
X219710Y505968D01*
X218186Y504444D01*
X216662D01*
X218186Y502920D01*
X216662Y501396D01*
X218186D01*
X219710Y499872D01*
X636270Y660400D02*
X638810Y665480D01*
X636270Y670560D01*
X641350Y668020D01*
X646430Y670560D01*
X643890Y665480D01*
X646430Y660400D01*
X641350Y662940D01*
X636270Y660400D01*
X638302Y662432D02*
X639826Y665480D01*
X638302Y668528D01*
X641350Y667004D01*
X644398Y668528D01*
X642874Y665480D01*
X644398Y662432D01*
X641350Y663956D01*
X638302Y662432D01*
X788670Y629920D02*
X791210Y635000D01*
X788670Y640080D01*
X793750Y637540D01*
X798830Y640080D01*
X796290Y635000D01*
X798830Y629920D01*
X793750Y632460D01*
X788670Y629920D01*
X790702Y631952D02*
X792226Y635000D01*
X790702Y638048D01*
X793750Y636524D01*
X796798Y638048D01*
X795274Y635000D01*
X796798Y631952D01*
X793750Y633476D01*
X790702Y631952D01*
X775970Y629920D02*
X778510Y635000D01*
X775970Y640080D01*
X781050Y637540D01*
X786130Y640080D01*
X783590Y635000D01*
X786130Y629920D01*
X781050Y632460D01*
X775970Y629920D01*
X778002Y631952D02*
X779526Y635000D01*
X778002Y638048D01*
X781050Y636524D01*
X784098Y638048D01*
X782574Y635000D01*
X784098Y631952D01*
X781050Y633476D01*
X778002Y631952D01*
X645160Y551180D02*
X647700Y553720D01*
X650240D01*
X647700Y556260D01*
X650240Y558800D01*
X647700D01*
X645160Y561340D01*
X642620Y558800D01*
X640080D01*
X642620Y556260D01*
X640080Y553720D01*
X642620D01*
X645160Y551180D01*
Y553212D02*
X646684Y554736D01*
X648208D01*
X646684Y556260D01*
X648208Y557784D01*
X646684D01*
X645160Y559308D01*
X643636Y557784D01*
X642112D01*
X643636Y556260D01*
X642112Y554736D01*
X643636D01*
X645160Y553212D01*
Y530860D02*
X647700Y533400D01*
X650240D01*
X647700Y535940D01*
X650240Y538480D01*
X647700D01*
X645160Y541020D01*
X642620Y538480D01*
X640080D01*
X642620Y535940D01*
X640080Y533400D01*
X642620D01*
X645160Y530860D01*
Y532892D02*
X646684Y534416D01*
X648208D01*
X646684Y535940D01*
X648208Y537464D01*
X646684D01*
X645160Y538988D01*
X643636Y537464D01*
X642112D01*
X643636Y535940D01*
X642112Y534416D01*
X643636D01*
X645160Y532892D01*
X83820Y420370D02*
X86360Y422910D01*
X88900D01*
X86360Y425450D01*
X88900Y427990D01*
X86360D01*
X83820Y430530D01*
X81280Y427990D01*
X78740D01*
X81280Y425450D01*
X78740Y422910D01*
X81280D01*
X83820Y420370D01*
Y422402D02*
X85344Y423926D01*
X86868D01*
X85344Y425450D01*
X86868Y426974D01*
X85344D01*
X83820Y428498D01*
X82296Y426974D01*
X80772D01*
X82296Y425450D01*
X80772Y423926D01*
X82296D01*
X83820Y422402D01*
X261620Y514350D02*
X264160Y516890D01*
X266700D01*
X264160Y519430D01*
X266700Y521970D01*
X264160D01*
X261620Y524510D01*
X259080Y521970D01*
X256540D01*
X259080Y519430D01*
X256540Y516890D01*
X259080D01*
X261620Y514350D01*
Y516382D02*
X263144Y517906D01*
X264668D01*
X263144Y519430D01*
X264668Y520954D01*
X263144D01*
X261620Y522478D01*
X260096Y520954D01*
X258572D01*
X260096Y519430D01*
X258572Y517906D01*
X260096D01*
X261620Y516382D01*
X574040Y629920D02*
X576580Y635000D01*
X574040Y640080D01*
X579120Y637540D01*
X584200Y640080D01*
X581660Y635000D01*
X584200Y629920D01*
X579120Y632460D01*
X574040Y629920D01*
X576072Y631952D02*
X577596Y635000D01*
X576072Y638048D01*
X579120Y636524D01*
X582168Y638048D01*
X580644Y635000D01*
X582168Y631952D01*
X579120Y633476D01*
X576072Y631952D01*
X565150Y638810D02*
X567690Y643890D01*
X565150Y648970D01*
X570230Y646430D01*
X575310Y648970D01*
X572770Y643890D01*
X575310Y638810D01*
X570230Y641350D01*
X565150Y638810D01*
X567182Y640842D02*
X568706Y643890D01*
X567182Y646938D01*
X570230Y645414D01*
X573278Y646938D01*
X571754Y643890D01*
X573278Y640842D01*
X570230Y642366D01*
X567182Y640842D01*
X706120Y638810D02*
X708660Y643890D01*
X706120Y648970D01*
X711200Y646430D01*
X716280Y648970D01*
X713740Y643890D01*
X716280Y638810D01*
X711200Y641350D01*
X706120Y638810D01*
X708152Y640842D02*
X709676Y643890D01*
X708152Y646938D01*
X711200Y645414D01*
X714248Y646938D01*
X712724Y643890D01*
X714248Y640842D01*
X711200Y642366D01*
X708152Y640842D01*
X715010Y629920D02*
X717550Y635000D01*
X715010Y640080D01*
X720090Y637540D01*
X725170Y640080D01*
X722630Y635000D01*
X725170Y629920D01*
X720090Y632460D01*
X715010Y629920D01*
X717042Y631952D02*
X718566Y635000D01*
X717042Y638048D01*
X720090Y636524D01*
X723138Y638048D01*
X721614Y635000D01*
X723138Y631952D01*
X720090Y633476D01*
X717042Y631952D01*
X706120Y521970D02*
X708660Y524510D01*
X711200D01*
X708660Y527050D01*
X711200Y529590D01*
X708660D01*
X706120Y532130D01*
X703580Y529590D01*
X701040D01*
X703580Y527050D01*
X701040Y524510D01*
X703580D01*
X706120Y521970D01*
Y524002D02*
X707644Y525526D01*
X709168D01*
X707644Y527050D01*
X709168Y528574D01*
X707644D01*
X706120Y530098D01*
X704596Y528574D01*
X703072D01*
X704596Y527050D01*
X703072Y525526D01*
X704596D01*
X706120Y524002D01*
X681990Y521970D02*
X684530Y524510D01*
X687070D01*
X684530Y527050D01*
X687070Y529590D01*
X684530D01*
X681990Y532130D01*
X679450Y529590D01*
X676910D01*
X679450Y527050D01*
X676910Y524510D01*
X679450D01*
X681990Y521970D01*
Y524002D02*
X683514Y525526D01*
X685038D01*
X683514Y527050D01*
X685038Y528574D01*
X683514D01*
X681990Y530098D01*
X680466Y528574D01*
X678942D01*
X680466Y527050D01*
X678942Y525526D01*
X680466D01*
X681990Y524002D01*
X1073150Y548640D02*
X1075690Y551180D01*
X1078230D01*
X1075690Y553720D01*
X1078230Y556260D01*
X1075690D01*
X1073150Y558800D01*
X1070610Y556260D01*
X1068070D01*
X1070610Y553720D01*
X1068070Y551180D01*
X1070610D01*
X1073150Y548640D01*
Y550672D02*
X1074674Y552196D01*
X1076198D01*
X1074674Y553720D01*
X1076198Y555244D01*
X1074674D01*
X1073150Y556768D01*
X1071626Y555244D01*
X1070102D01*
X1071626Y553720D01*
X1070102Y552196D01*
X1071626D01*
X1073150Y550672D01*
X648970Y383540D02*
X651510Y386080D01*
X654050D01*
X651510Y388620D01*
X654050Y391160D01*
X651510D01*
X648970Y393700D01*
X646430Y391160D01*
X643890D01*
X646430Y388620D01*
X643890Y386080D01*
X646430D01*
X648970Y383540D01*
Y385572D02*
X650494Y387096D01*
X652018D01*
X650494Y388620D01*
X652018Y390144D01*
X650494D01*
X648970Y391668D01*
X647446Y390144D01*
X645922D01*
X647446Y388620D01*
X645922Y387096D01*
X647446D01*
X648970Y385572D01*
X698500Y383540D02*
X701040Y386080D01*
X703580D01*
X701040Y388620D01*
X703580Y391160D01*
X701040D01*
X698500Y393700D01*
X695960Y391160D01*
X693420D01*
X695960Y388620D01*
X693420Y386080D01*
X695960D01*
X698500Y383540D01*
Y385572D02*
X700024Y387096D01*
X701548D01*
X700024Y388620D01*
X701548Y390144D01*
X700024D01*
X698500Y391668D01*
X696976Y390144D01*
X695452D01*
X696976Y388620D01*
X695452Y387096D01*
X696976D01*
X698500Y385572D01*
X770890Y384810D02*
X773430Y387350D01*
X775970D01*
X773430Y389890D01*
X775970Y392430D01*
X773430D01*
X770890Y394970D01*
X768350Y392430D01*
X765810D01*
X768350Y389890D01*
X765810Y387350D01*
X768350D01*
X770890Y384810D01*
Y386842D02*
X772414Y388366D01*
X773938D01*
X772414Y389890D01*
X773938Y391414D01*
X772414D01*
X770890Y392938D01*
X769366Y391414D01*
X767842D01*
X769366Y389890D01*
X767842Y388366D01*
X769366D01*
X770890Y386842D01*
X821690Y383540D02*
X824230Y386080D01*
X826770D01*
X824230Y388620D01*
X826770Y391160D01*
X824230D01*
X821690Y393700D01*
X819150Y391160D01*
X816610D01*
X819150Y388620D01*
X816610Y386080D01*
X819150D01*
X821690Y383540D01*
Y385572D02*
X823214Y387096D01*
X824738D01*
X823214Y388620D01*
X824738Y390144D01*
X823214D01*
X821690Y391668D01*
X820166Y390144D01*
X818642D01*
X820166Y388620D01*
X818642Y387096D01*
X820166D01*
X821690Y385572D01*
X894080Y383540D02*
X896620Y386080D01*
X899160D01*
X896620Y388620D01*
X899160Y391160D01*
X896620D01*
X894080Y393700D01*
X891540Y391160D01*
X889000D01*
X891540Y388620D01*
X889000Y386080D01*
X891540D01*
X894080Y383540D01*
Y385572D02*
X895604Y387096D01*
X897128D01*
X895604Y388620D01*
X897128Y390144D01*
X895604D01*
X894080Y391668D01*
X892556Y390144D01*
X891032D01*
X892556Y388620D01*
X891032Y387096D01*
X892556D01*
X894080Y385572D01*
X944880Y383540D02*
X947420Y386080D01*
X949960D01*
X947420Y388620D01*
X949960Y391160D01*
X947420D01*
X944880Y393700D01*
X942340Y391160D01*
X939800D01*
X942340Y388620D01*
X939800Y386080D01*
X942340D01*
X944880Y383540D01*
Y385572D02*
X946404Y387096D01*
X947928D01*
X946404Y388620D01*
X947928Y390144D01*
X946404D01*
X944880Y391668D01*
X943356Y390144D01*
X941832D01*
X943356Y388620D01*
X941832Y387096D01*
X943356D01*
X944880Y385572D01*
X1073150Y384810D02*
X1075690Y387350D01*
X1078230D01*
X1075690Y389890D01*
X1078230Y392430D01*
X1075690D01*
X1073150Y394970D01*
X1070610Y392430D01*
X1068070D01*
X1070610Y389890D01*
X1068070Y387350D01*
X1070610D01*
X1073150Y384810D01*
Y386842D02*
X1074674Y388366D01*
X1076198D01*
X1074674Y389890D01*
X1076198Y391414D01*
X1074674D01*
X1073150Y392938D01*
X1071626Y391414D01*
X1070102D01*
X1071626Y389890D01*
X1070102Y388366D01*
X1071626D01*
X1073150Y386842D01*
Y435610D02*
X1075690Y438150D01*
X1078230D01*
X1075690Y440690D01*
X1078230Y443230D01*
X1075690D01*
X1073150Y445770D01*
X1070610Y443230D01*
X1068070D01*
X1070610Y440690D01*
X1068070Y438150D01*
X1070610D01*
X1073150Y435610D01*
Y437642D02*
X1074674Y439166D01*
X1076198D01*
X1074674Y440690D01*
X1076198Y442214D01*
X1074674D01*
X1073150Y443738D01*
X1071626Y442214D01*
X1070102D01*
X1071626Y440690D01*
X1070102Y439166D01*
X1071626D01*
X1073150Y437642D01*
Y499110D02*
X1075690Y501650D01*
X1078230D01*
X1075690Y504190D01*
X1078230Y506730D01*
X1075690D01*
X1073150Y509270D01*
X1070610Y506730D01*
X1068070D01*
X1070610Y504190D01*
X1068070Y501650D01*
X1070610D01*
X1073150Y499110D01*
Y501142D02*
X1074674Y502666D01*
X1076198D01*
X1074674Y504190D01*
X1076198Y505714D01*
X1074674D01*
X1073150Y507238D01*
X1071626Y505714D01*
X1070102D01*
X1071626Y504190D01*
X1070102Y502666D01*
X1071626D01*
X1073150Y501142D01*
Y609600D02*
X1075690Y612140D01*
X1078230D01*
X1075690Y614680D01*
X1078230Y617220D01*
X1075690D01*
X1073150Y619760D01*
X1070610Y617220D01*
X1068070D01*
X1070610Y614680D01*
X1068070Y612140D01*
X1070610D01*
X1073150Y609600D01*
Y611632D02*
X1074674Y613156D01*
X1076198D01*
X1074674Y614680D01*
X1076198Y616204D01*
X1074674D01*
X1073150Y617728D01*
X1071626Y616204D01*
X1070102D01*
X1071626Y614680D01*
X1070102Y613156D01*
X1071626D01*
X1073150Y611632D01*
X359410Y383540D02*
X361950Y386080D01*
X364490D01*
X361950Y388620D01*
X364490Y391160D01*
X361950D01*
X359410Y393700D01*
X356870Y391160D01*
X354330D01*
X356870Y388620D01*
X354330Y386080D01*
X356870D01*
X359410Y383540D01*
Y385572D02*
X360934Y387096D01*
X362458D01*
X360934Y388620D01*
X362458Y390144D01*
X360934D01*
X359410Y391668D01*
X357886Y390144D01*
X356362D01*
X357886Y388620D01*
X356362Y387096D01*
X357886D01*
X359410Y385572D01*
X260350Y384810D02*
X262890Y387350D01*
X265430D01*
X262890Y389890D01*
X265430Y392430D01*
X262890D01*
X260350Y394970D01*
X257810Y392430D01*
X255270D01*
X257810Y389890D01*
X255270Y387350D01*
X257810D01*
X260350Y384810D01*
Y386842D02*
X261874Y388366D01*
X263398D01*
X261874Y389890D01*
X263398Y391414D01*
X261874D01*
X260350Y392938D01*
X258826Y391414D01*
X257302D01*
X258826Y389890D01*
X257302Y388366D01*
X258826D01*
X260350Y386842D01*
X242570Y321310D02*
X245110Y323850D01*
X247650D01*
X245110Y326390D01*
X247650Y328930D01*
X245110D01*
X242570Y331470D01*
X240030Y328930D01*
X237490D01*
X240030Y326390D01*
X237490Y323850D01*
X240030D01*
X242570Y321310D01*
Y323342D02*
X244094Y324866D01*
X245618D01*
X244094Y326390D01*
X245618Y327914D01*
X244094D01*
X242570Y329438D01*
X241046Y327914D01*
X239522D01*
X241046Y326390D01*
X239522Y324866D01*
X241046D01*
X242570Y323342D01*
X203200Y415290D02*
X205740Y417830D01*
X208280D01*
X205740Y420370D01*
X208280Y422910D01*
X205740D01*
X203200Y425450D01*
X200660Y422910D01*
X198120D01*
X200660Y420370D01*
X198120Y417830D01*
X200660D01*
X203200Y415290D01*
Y417322D02*
X204724Y418846D01*
X206248D01*
X204724Y420370D01*
X206248Y421894D01*
X204724D01*
X203200Y423418D01*
X201676Y421894D01*
X200152D01*
X201676Y420370D01*
X200152Y418846D01*
X201676D01*
X203200Y417322D01*
X205740Y468630D02*
X208280Y471170D01*
X210820D01*
X208280Y473710D01*
X210820Y476250D01*
X208280D01*
X205740Y478790D01*
X203200Y476250D01*
X200660D01*
X203200Y473710D01*
X200660Y471170D01*
X203200D01*
X205740Y468630D01*
Y470662D02*
X207264Y472186D01*
X208788D01*
X207264Y473710D01*
X208788Y475234D01*
X207264D01*
X205740Y476758D01*
X204216Y475234D01*
X202692D01*
X204216Y473710D01*
X202692Y472186D01*
X204216D01*
X205740Y470662D01*
X762000Y722630D02*
X764540Y727710D01*
X762000Y732790D01*
X767080Y730250D01*
X772160Y732790D01*
X769620Y727710D01*
X772160Y722630D01*
X767080Y725170D01*
X762000Y722630D01*
X764032Y724662D02*
X765556Y727710D01*
X764032Y730758D01*
X767080Y729234D01*
X770128Y730758D01*
X768604Y727710D01*
X770128Y724662D01*
X767080Y726186D01*
X764032Y724662D01*
X267970Y797560D02*
X270510Y800100D01*
X273050D01*
X270510Y802640D01*
X273050Y805180D01*
X270510D01*
X267970Y807720D01*
X265430Y805180D01*
X262890D01*
X265430Y802640D01*
X262890Y800100D01*
X265430D01*
X267970Y797560D01*
Y799592D02*
X269494Y801116D01*
X271018D01*
X269494Y802640D01*
X271018Y804164D01*
X269494D01*
X267970Y805688D01*
X266446Y804164D01*
X264922D01*
X266446Y802640D01*
X264922Y801116D01*
X266446D01*
X267970Y799592D01*
X269240Y770890D02*
X271780Y773430D01*
X274320D01*
X271780Y775970D01*
X274320Y778510D01*
X271780D01*
X269240Y781050D01*
X266700Y778510D01*
X264160D01*
X266700Y775970D01*
X264160Y773430D01*
X266700D01*
X269240Y770890D01*
Y772922D02*
X270764Y774446D01*
X272288D01*
X270764Y775970D01*
X272288Y777494D01*
X270764D01*
X269240Y779018D01*
X267716Y777494D01*
X266192D01*
X267716Y775970D01*
X266192Y774446D01*
X267716D01*
X269240Y772922D01*
X52070Y525780D02*
X46990Y535940D01*
X57150D01*
X52070Y525780D01*
Y527812D02*
X49022Y533908D01*
X55118D01*
X52070Y527812D01*
X45720Y585470D02*
X48260Y590550D01*
X45720Y595630D01*
X50800Y593090D01*
X55880Y595630D01*
X53340Y590550D01*
X55880Y585470D01*
X50800Y588010D01*
X45720Y585470D01*
X47752Y587502D02*
X49276Y590550D01*
X47752Y593598D01*
X50800Y592074D01*
X53848Y593598D01*
X52324Y590550D01*
X53848Y587502D01*
X50800Y589026D01*
X47752Y587502D01*
X45720Y648970D02*
X48260Y654050D01*
X45720Y659130D01*
X50800Y656590D01*
X55880Y659130D01*
X53340Y654050D01*
X55880Y648970D01*
X50800Y651510D01*
X45720Y648970D01*
X47752Y651002D02*
X49276Y654050D01*
X47752Y657098D01*
X50800Y655574D01*
X53848Y657098D01*
X52324Y654050D01*
X53848Y651002D01*
X50800Y652526D01*
X47752Y651002D01*
X138430Y173990D02*
X140970Y176530D01*
X143510D01*
X140970Y179070D01*
X143510Y181610D01*
X140970D01*
X138430Y184150D01*
X135890Y181610D01*
X133350D01*
X135890Y179070D01*
X133350Y176530D01*
X135890D01*
X138430Y173990D01*
Y176022D02*
X139954Y177546D01*
X141478D01*
X139954Y179070D01*
X141478Y180594D01*
X139954D01*
X138430Y182118D01*
X136906Y180594D01*
X135382D01*
X136906Y179070D01*
X135382Y177546D01*
X136906D01*
X138430Y176022D01*
X815340Y469900D02*
X817880Y472440D01*
X820420D01*
X817880Y474980D01*
X820420Y477520D01*
X817880D01*
X815340Y480060D01*
X812800Y477520D01*
X810260D01*
X812800Y474980D01*
X810260Y472440D01*
X812800D01*
X815340Y469900D01*
Y471932D02*
X816864Y473456D01*
X818388D01*
X816864Y474980D01*
X818388Y476504D01*
X816864D01*
X815340Y478028D01*
X813816Y476504D01*
X812292D01*
X813816Y474980D01*
X812292Y473456D01*
X813816D01*
X815340Y471932D01*
X1360170Y151130D02*
X1362710Y153670D01*
X1365250D01*
X1362710Y156210D01*
X1365250Y158750D01*
X1362710D01*
X1360170Y161290D01*
X1357630Y158750D01*
X1355090D01*
X1357630Y156210D01*
X1355090Y153670D01*
X1357630D01*
X1360170Y151130D01*
Y153162D02*
X1361694Y154686D01*
X1363218D01*
X1361694Y156210D01*
X1363218Y157734D01*
X1361694D01*
X1360170Y159258D01*
X1358646Y157734D01*
X1357122D01*
X1358646Y156210D01*
X1357122Y154686D01*
X1358646D01*
X1360170Y153162D01*
X138430Y201930D02*
X133350Y212090D01*
X143510D01*
X138430Y201930D01*
Y203962D02*
X135382Y210058D01*
X141478D01*
X138430Y203962D01*
D131*
X68378Y579100D02*
G03*
X68378Y579100I-3048J0D01*
G01*
Y665500D02*
G03*
X68378Y665500I-3048J0D01*
G01*
D136*
X70410Y579100D02*
G03*
X70410Y579100I-5080J0D01*
G01*
Y665500D02*
G03*
X70410Y665500I-5080J0D01*
G01*
X344170Y802640D02*
G03*
X344170Y802640I-5080J0D01*
G01*
X369570D02*
G03*
X369570Y802640I-5080J0D01*
G01*
X344170Y777240D02*
G03*
X344170Y777240I-5080J0D01*
G01*
X369570D02*
G03*
X369570Y777240I-5080J0D01*
G01*
M02*
