G04*
G04 #@! TF.GenerationSoftware,Altium Limited,Altium Designer,25.4.2 (15)*
G04*
G04 Layer_Color=65535*
%FSLAX44Y44*%
%MOMM*%
G71*
G04*
G04 #@! TF.SameCoordinates,AB3986B5-8965-4272-984F-493E451A5069*
G04*
G04*
G04 #@! TF.FilePolarity,Positive*
G04*
G01*
G75*
%ADD10C,0.2000*%
%ADD11C,0.4000*%
%ADD12C,0.1524*%
%ADD13C,0.0000*%
%ADD14C,0.3000*%
G04:AMPARAMS|DCode=15|XSize=1.84mm|YSize=3.19mm|CornerRadius=0.23mm|HoleSize=0mm|Usage=FLASHONLY|Rotation=270.000|XOffset=0mm|YOffset=0mm|HoleType=Round|Shape=RoundedRectangle|*
%AMROUNDEDRECTD15*
21,1,1.8400,2.7300,0,0,270.0*
21,1,1.3800,3.1900,0,0,270.0*
1,1,0.4600,-1.3650,-0.6900*
1,1,0.4600,-1.3650,0.6900*
1,1,0.4600,1.3650,0.6900*
1,1,0.4600,1.3650,-0.6900*
%
%ADD15ROUNDEDRECTD15*%
%ADD16C,0.1270*%
%ADD17C,0.2500*%
%ADD18C,0.1500*%
%ADD19C,0.2540*%
D10*
X309530Y666290D02*
G03*
X309530Y666290I-1000J0D01*
G01*
X339730Y315470D02*
G03*
X339730Y315470I-1000J0D01*
G01*
X1373720Y180340D02*
G03*
X1373720Y180340I-1000J0D01*
G01*
X1328150Y152550D02*
G03*
X1328150Y152550I-1000J0D01*
G01*
X1116060D02*
G03*
X1116060Y152550I-1000J0D01*
G01*
X183880Y151280D02*
G03*
X183880Y151280I-1000J0D01*
G01*
X663940Y148740D02*
G03*
X663940Y148740I-1000J0D01*
G01*
X117150Y762000D02*
G03*
X117150Y762000I-1000J0D01*
G01*
X649914Y239130D02*
G03*
X649914Y239130I-1414J0D01*
G01*
X1215164Y399580D02*
G03*
X1215164Y399580I-1414J0D01*
G01*
Y511340D02*
G03*
X1215164Y511340I-1414J0D01*
G01*
X398510Y150010D02*
G03*
X398510Y150010I-1000J0D01*
G01*
X1165590Y721210D02*
G03*
X1165590Y721210I-1000J0D01*
G01*
X773104Y239130D02*
G03*
X773104Y239130I-1414J0D01*
G01*
X877300Y147470D02*
G03*
X877300Y147470I-1000J0D01*
G01*
X1372450Y844550D02*
G03*
X1372450Y844550I-1000J0D01*
G01*
Y629920D02*
G03*
X1372450Y629920I-1000J0D01*
G01*
X1374990Y393700D02*
G03*
X1374990Y393700I-1000J0D01*
G01*
X896294Y239130D02*
G03*
X896294Y239130I-1414J0D01*
G01*
X365490Y758040D02*
G03*
X365490Y758040I-1000J0D01*
G01*
X765480Y596920D02*
G03*
X765480Y596920I-1000J0D01*
G01*
X127760Y431610D02*
G03*
X127760Y431610I-1000J0D01*
G01*
X374530Y427990D02*
G03*
X374530Y427990I-1000J0D01*
G01*
X377190Y764540D02*
Y815340D01*
X326390Y764540D02*
Y815340D01*
X377190D01*
X326390Y764540D02*
X377190D01*
X202550Y284540D02*
Y335580D01*
X175260Y279580D02*
X175910Y335580D01*
X175260Y279580D02*
X179070Y275770D01*
X196850D01*
X202550Y281470D01*
X175910Y335580D02*
Y343730D01*
X176530Y344350D01*
X201930D01*
X202550Y343730D01*
Y335580D02*
Y343730D01*
X179070Y302440D02*
X198120D01*
X179070Y311330D02*
X198120D01*
X188595Y302440D02*
Y303075D01*
X181610Y311330D02*
X196850D01*
X188595Y303075D02*
X196850Y311330D01*
X181610D02*
X188595Y304345D01*
X202550Y281470D02*
Y284540D01*
D11*
X161930Y331470D02*
G03*
X161930Y331470I-2000J0D01*
G01*
D12*
X1170940Y617220D02*
G03*
X1150620Y617220I-10160J0D01*
G01*
X869950Y513080D02*
G03*
X872490Y515620I0J2540D01*
G01*
X758190D02*
G03*
X760730Y513080I2540J0D01*
G01*
X872490Y558800D02*
G03*
X869950Y561340I-2540J0D01*
G01*
X760730D02*
G03*
X758190Y558800I0J-2540D01*
G01*
X1131570Y617220D02*
Y668020D01*
X1189990Y617220D02*
Y668020D01*
X1131570D02*
X1189990D01*
X1131570Y617220D02*
X1150620D01*
X1170940D02*
X1189990D01*
X188214Y763524D02*
X230886D01*
X188214Y816356D02*
X230886D01*
X760730Y513080D02*
X869950D01*
X760730Y561340D02*
X869950D01*
D13*
X739110Y549710D02*
G03*
X739110Y549710I-1270J0D01*
G01*
D14*
X132220Y207010D02*
G03*
X132220Y207010I-1000J0D01*
G01*
D15*
X316230Y237120D02*
D03*
D16*
X1081780Y624940D02*
X1087380D01*
X1081780Y637440D02*
X1087380D01*
X615160Y779900D02*
Y794900D01*
X630160Y817400D02*
X660160D01*
X675160Y779900D02*
Y794900D01*
X630160Y757400D02*
X660160D01*
X309730Y605340D02*
Y644340D01*
X208430Y605340D02*
Y644340D01*
X283730Y285470D02*
X348730D01*
X283730Y250470D02*
Y285470D01*
Y250470D02*
X348730D01*
Y285470D01*
X1382720Y2540D02*
Y205740D01*
X1521620Y2540D02*
Y205740D01*
X1382720Y2540D02*
X1521620D01*
X1382720Y205740D02*
X1521620D01*
X1258310Y167540D02*
X1263910D01*
X1258310Y155040D02*
X1263910D01*
X1149350Y142550D02*
X1352550D01*
X1149350Y3650D02*
X1352550D01*
X1149350D02*
Y142550D01*
X1352550Y3650D02*
Y142550D01*
X937260D02*
X1140460D01*
X937260Y3650D02*
X1140460D01*
X937260D02*
Y142550D01*
X1140460Y3650D02*
Y142550D01*
X5080Y141280D02*
X208280D01*
X5080Y2380D02*
X208280D01*
X5080D02*
Y141280D01*
X208280Y2380D02*
Y141280D01*
X688340Y-160D02*
Y138740D01*
X485140Y-160D02*
Y138740D01*
Y-160D02*
X688340D01*
X485140Y138740D02*
X688340D01*
X146930Y286470D02*
Y305970D01*
X2930Y286470D02*
X84430D01*
X146930Y357970D02*
Y376470D01*
X135430Y286470D02*
X146930D01*
X2930Y376470D02*
X146930D01*
X2930Y286470D02*
Y376470D01*
X665250Y708810D02*
X668250D01*
X665250Y695810D02*
X668250D01*
X274220Y821750D02*
Y827350D01*
X261720Y821750D02*
Y827350D01*
X297080Y821750D02*
Y827350D01*
X284580Y821750D02*
Y827350D01*
X262990Y752530D02*
Y758130D01*
X275490Y752530D02*
Y758130D01*
X285850Y752530D02*
Y758130D01*
X298350Y752530D02*
Y758130D01*
X106150Y736600D02*
Y838200D01*
X3650Y736600D02*
Y838200D01*
X106150D01*
X3650Y736600D02*
X106150D01*
X152500Y810000D02*
Y815600D01*
X165000Y810000D02*
Y815600D01*
X144680Y786190D02*
Y791790D01*
X132180Y786190D02*
Y791790D01*
X704750Y366770D02*
Y372370D01*
X692250Y366770D02*
Y372370D01*
X655220Y366770D02*
Y372370D01*
X642720Y366770D02*
Y372370D01*
X733300Y325830D02*
X736700D01*
Y255830D02*
Y325830D01*
X734300Y255830D02*
X736700D01*
X634900Y325830D02*
X638300D01*
X634900Y255830D02*
Y325830D01*
Y255830D02*
X637300D01*
X1127050Y484380D02*
Y487780D01*
X1197050D01*
Y485380D02*
Y487780D01*
X1127050Y385980D02*
Y389380D01*
Y385980D02*
X1197050D01*
Y388380D01*
X1127050Y596140D02*
Y599540D01*
X1197050D01*
Y597140D02*
Y599540D01*
X1127050Y497740D02*
Y501140D01*
Y497740D02*
X1197050D01*
Y500140D01*
X422910Y1110D02*
Y140010D01*
X219710Y1110D02*
Y140010D01*
Y1110D02*
X422910D01*
X219710Y140010D02*
X422910D01*
X1139190Y731210D02*
Y870110D01*
X1342390Y731210D02*
Y870110D01*
X1139190D02*
X1342390D01*
X1139190Y731210D02*
X1342390D01*
X827940Y366770D02*
Y372370D01*
X815440Y366770D02*
Y372370D01*
X777140Y366770D02*
Y372370D01*
X764640Y366770D02*
Y372370D01*
X622990Y151230D02*
X628590D01*
X622990Y163730D02*
X628590D01*
X830000Y165000D02*
X835600D01*
X830000Y152500D02*
X835600D01*
X856490Y325830D02*
X859890D01*
Y255830D02*
Y325830D01*
X857490Y255830D02*
X859890D01*
X758090Y325830D02*
X761490D01*
X758090Y255830D02*
Y325830D01*
Y255830D02*
X760490D01*
X901700Y-1430D02*
Y137470D01*
X698500Y-1430D02*
Y137470D01*
Y-1430D02*
X901700D01*
X698500Y137470D02*
X901700D01*
X663950Y601880D02*
X669550D01*
X663950Y589380D02*
X669550D01*
X940810Y579220D02*
X946410D01*
X940810Y591720D02*
X946410D01*
X1081780Y567590D02*
X1087380D01*
X1081780Y555090D02*
X1087380D01*
X1081780Y518060D02*
X1087380D01*
X1081780Y505560D02*
X1087380D01*
X1222750Y701140D02*
X1228350D01*
X1222750Y713640D02*
X1228350D01*
X1381450Y869950D02*
X1520350D01*
X1381450Y666750D02*
X1520350D01*
Y869950D01*
X1381450Y666750D02*
Y869950D01*
X940810Y725270D02*
X946410D01*
X940810Y737770D02*
X946410D01*
X940810Y704950D02*
X946410D01*
X940810Y717450D02*
X946410D01*
X940490Y684630D02*
X946090D01*
X940490Y697130D02*
X946090D01*
X1357730Y780790D02*
Y786390D01*
X1370230Y780790D02*
Y786390D01*
X1353920Y563620D02*
Y569220D01*
X1366420Y563620D02*
Y569220D01*
X1381450Y655320D02*
X1520350D01*
X1381450Y452120D02*
X1520350D01*
Y655320D01*
X1381450Y452120D02*
Y655320D01*
X1082100Y455830D02*
X1087700D01*
X1082100Y443330D02*
X1087700D01*
X1082100Y405030D02*
X1087700D01*
X1082100Y392530D02*
X1087700D01*
X940810Y663040D02*
X946410D01*
X940810Y675540D02*
X946410D01*
X940810Y641450D02*
X946410D01*
X940810Y653950D02*
X946410D01*
X1366420Y352800D02*
Y358400D01*
X1353920Y352800D02*
Y358400D01*
X1383990Y419100D02*
X1522890D01*
X1383990Y215900D02*
X1522890D01*
Y419100D01*
X1383990Y215900D02*
Y419100D01*
X1365150Y184210D02*
Y189810D01*
X1352650Y184210D02*
Y189810D01*
X900330Y366770D02*
Y372370D01*
X887830Y366770D02*
Y372370D01*
X951130Y366770D02*
Y372370D01*
X938630Y366770D02*
Y372370D01*
X1050030Y165000D02*
X1055630D01*
X1050030Y152500D02*
X1055630D01*
X979680Y325830D02*
X983080D01*
Y255830D02*
Y325830D01*
X980680Y255830D02*
X983080D01*
X881280Y325830D02*
X884680D01*
X881280Y255830D02*
Y325830D01*
Y255830D02*
X883680D01*
X940490Y599540D02*
X946090D01*
X940490Y612040D02*
X946090D01*
X940490Y621130D02*
X946090D01*
X940490Y633630D02*
X946090D01*
X663630Y645060D02*
X669230D01*
X663630Y632560D02*
X669230D01*
X663950Y623470D02*
X669550D01*
X663950Y610970D02*
X669550D01*
X356610Y149960D02*
X362210D01*
X356610Y162460D02*
X362210D01*
X108960Y172820D02*
X114560D01*
X108960Y185320D02*
X114560D01*
X255120Y694460D02*
Y697460D01*
X268120Y694460D02*
Y697460D01*
X791590Y734210D02*
X794590D01*
X791590Y721210D02*
X794590D01*
X834160Y488800D02*
X837160D01*
X834160Y501800D02*
X837160D01*
X792910D02*
X795910D01*
X792910Y488800D02*
X795910D01*
X663630Y686970D02*
X669230D01*
X663630Y674470D02*
X669230D01*
X665910Y653900D02*
X668910D01*
X665910Y666900D02*
X668910D01*
X827480Y689270D02*
Y690320D01*
X757480Y689270D02*
Y690320D01*
X827480Y620320D02*
Y621370D01*
X757480Y620320D02*
Y621370D01*
X826430Y690320D02*
X827480D01*
X757480D02*
X758530D01*
X826430Y620320D02*
X827480D01*
X757480D02*
X758530D01*
X675490Y544600D02*
Y547600D01*
X688490Y544600D02*
Y547600D01*
X699620Y544600D02*
Y547600D01*
X712620Y544600D02*
Y547600D01*
X650090Y544600D02*
Y547600D01*
X663090Y544600D02*
Y547600D01*
X290600Y576730D02*
X293600D01*
X290600Y563730D02*
X293600D01*
X129600Y671930D02*
X135200D01*
X129600Y684430D02*
X135200D01*
X211940Y531900D02*
Y534900D01*
X224940Y531900D02*
Y534900D01*
X129280Y577750D02*
X134880D01*
X129280Y565250D02*
X134880D01*
X129600Y662840D02*
X135200D01*
X129600Y650340D02*
X135200D01*
X129280Y599340D02*
X134880D01*
X129280Y586840D02*
X134880D01*
X129600Y641250D02*
X135200D01*
X129600Y628750D02*
X135200D01*
X129280Y620930D02*
X134880D01*
X129280Y608430D02*
X134880D01*
X237590Y529330D02*
Y534930D01*
X250090Y529330D02*
Y534930D01*
X70890Y548790D02*
X73890D01*
X70890Y535790D02*
X73890D01*
X326130Y393600D02*
X331730D01*
X326130Y381100D02*
X331730D01*
X326770Y356720D02*
X329770D01*
X326770Y369720D02*
X329770D01*
X326770Y330050D02*
X329770D01*
X326770Y343050D02*
X329770D01*
X99220Y216960D02*
X119220D01*
X99220Y197060D02*
X119220D01*
X172460Y403960D02*
X178060D01*
X172460Y416460D02*
X178060D01*
X172460Y383640D02*
X178060D01*
X172460Y396140D02*
X178060D01*
X66860Y429410D02*
X105860D01*
X66860Y479910D02*
X105860D01*
X172460Y467460D02*
X178060D01*
X172460Y479960D02*
X178060D01*
X172460Y459640D02*
X178060D01*
X172460Y447140D02*
X178060D01*
X90320Y404900D02*
Y407900D01*
X77320Y404900D02*
Y407900D01*
X108960Y226160D02*
X114560D01*
X108960Y238660D02*
X114560D01*
X292130Y461990D02*
X366130D01*
X292130Y404490D02*
Y461990D01*
Y404490D02*
X366130D01*
Y461990D01*
X263040Y295680D02*
Y298680D01*
X250040Y295680D02*
Y298680D01*
X236370Y295680D02*
Y298680D01*
X223370Y295680D02*
Y298680D01*
X175030Y425300D02*
X178030D01*
X175030Y438300D02*
X178030D01*
D17*
X326390Y789940D02*
X377190D01*
D18*
X2830Y668500D02*
X11130D01*
X2830Y576100D02*
Y668500D01*
Y576100D02*
X11130D01*
X39530D02*
X53130D01*
X39530Y668500D02*
X53130D01*
D19*
X394971Y797558D02*
X389893D01*
X392432D01*
Y784862D01*
X389893Y782322D01*
X387353D01*
X384814Y784862D01*
X410206Y797558D02*
X400049D01*
Y789940D01*
X405127Y792479D01*
X407667D01*
X410206Y789940D01*
Y784862D01*
X407667Y782322D01*
X402588D01*
X400049Y784862D01*
X758194Y589277D02*
Y576582D01*
X760733Y574043D01*
X765812D01*
X768351Y576582D01*
Y589277D01*
X773429Y586738D02*
X775968Y589277D01*
X781047D01*
X783586Y586738D01*
Y584199D01*
X781047Y581660D01*
X778508D01*
X781047D01*
X783586Y579121D01*
Y576582D01*
X781047Y574043D01*
X775968D01*
X773429Y576582D01*
X910593Y547368D02*
Y544828D01*
X915672Y539750D01*
X920750Y544828D01*
Y547368D01*
X915672Y539750D02*
Y532132D01*
X925828D02*
X930907D01*
X928368D01*
Y547368D01*
X925828Y544828D01*
X358146Y276857D02*
Y266701D01*
X363224Y261623D01*
X368302Y266701D01*
Y276857D01*
X373381Y261623D02*
Y276857D01*
X380998D01*
X383538Y274318D01*
Y269240D01*
X380998Y266701D01*
X373381D01*
X378459D02*
X383538Y261623D01*
X388616D02*
X393694D01*
X391155D01*
Y276857D01*
X388616Y274318D01*
X1215396Y654047D02*
Y641352D01*
X1217935Y638812D01*
X1223013D01*
X1225553Y641352D01*
Y654047D01*
X1230631Y641352D02*
X1233170Y638812D01*
X1238248D01*
X1240788Y641352D01*
Y643891D01*
X1238248Y646430D01*
X1233170D01*
X1230631Y648969D01*
Y651508D01*
X1233170Y654047D01*
X1238248D01*
X1240788Y651508D01*
X1235709Y654047D02*
Y638812D01*
X1245866D02*
X1250944D01*
X1248405D01*
Y654047D01*
X1245866Y651508D01*
X763274Y226057D02*
Y213362D01*
X765813Y210823D01*
X770892D01*
X773431Y213362D01*
Y226057D01*
X778509Y213362D02*
X781048Y210823D01*
X786127D01*
X788666Y213362D01*
Y223518D01*
X786127Y226057D01*
X781048D01*
X778509Y223518D01*
Y220979D01*
X781048Y218440D01*
X788666D01*
X1219204Y467357D02*
Y454662D01*
X1221743Y452122D01*
X1226822D01*
X1229361Y454662D01*
Y467357D01*
X1234439Y464818D02*
X1236978Y467357D01*
X1242057D01*
X1244596Y464818D01*
Y462279D01*
X1242057Y459740D01*
X1244596Y457201D01*
Y454662D01*
X1242057Y452122D01*
X1236978D01*
X1234439Y454662D01*
Y457201D01*
X1236978Y459740D01*
X1234439Y462279D01*
Y464818D01*
X1236978Y459740D02*
X1242057D01*
X1219204Y598167D02*
Y585472D01*
X1221743Y582933D01*
X1226822D01*
X1229361Y585472D01*
Y598167D01*
X1234439D02*
X1244596D01*
Y595628D01*
X1234439Y585472D01*
Y582933D01*
X886464Y226057D02*
Y213362D01*
X889003Y210823D01*
X894082D01*
X896621Y213362D01*
Y226057D01*
X911856D02*
X906777Y223518D01*
X901699Y218440D01*
Y213362D01*
X904238Y210823D01*
X909317D01*
X911856Y213362D01*
Y215901D01*
X909317Y218440D01*
X901699D01*
X641354Y227327D02*
Y214632D01*
X643893Y212092D01*
X648972D01*
X651511Y214632D01*
Y227327D01*
X666746D02*
X656589D01*
Y219710D01*
X661667Y222249D01*
X664207D01*
X666746Y219710D01*
Y214632D01*
X664207Y212092D01*
X659128D01*
X656589Y214632D01*
X179074Y755648D02*
Y742952D01*
X181613Y740413D01*
X186692D01*
X189231Y742952D01*
Y755648D01*
X201927Y740413D02*
Y755648D01*
X194309Y748030D01*
X204466D01*
X317504Y605788D02*
Y593092D01*
X320043Y590552D01*
X325122D01*
X327661Y593092D01*
Y605788D01*
X342896Y590552D02*
X332739D01*
X342896Y600709D01*
Y603248D01*
X340357Y605788D01*
X335278D01*
X332739Y603248D01*
X24133Y453387D02*
Y440692D01*
X26672Y438153D01*
X31751D01*
X34290Y440692D01*
Y453387D01*
X39368Y438153D02*
X44447D01*
X41908D01*
Y453387D01*
X39368Y450848D01*
X129543Y447038D02*
X139700D01*
X134622D01*
Y431802D01*
X144778D02*
X149857D01*
X147318D01*
Y447038D01*
X144778Y444498D01*
X702312Y795018D02*
X699773Y797558D01*
X694695D01*
X692156Y795018D01*
Y792479D01*
X694695Y789940D01*
X699773D01*
X702312Y787401D01*
Y784862D01*
X699773Y782322D01*
X694695D01*
X692156Y784862D01*
X707391Y797558D02*
Y782322D01*
X712469Y787401D01*
X717548Y782322D01*
Y797558D01*
X722626Y782322D02*
X727704D01*
X725165D01*
Y797558D01*
X722626Y795018D01*
X161296Y627383D02*
Y642617D01*
X168913D01*
X171453Y640078D01*
Y635000D01*
X168913Y632461D01*
X161296D01*
X166374D02*
X171453Y627383D01*
X186688Y642617D02*
X176531D01*
Y635000D01*
X181609Y637539D01*
X184148D01*
X186688Y635000D01*
Y629922D01*
X184148Y627383D01*
X179070D01*
X176531Y629922D01*
X191766Y627383D02*
X196844D01*
X194305D01*
Y642617D01*
X191766Y640078D01*
X161297Y607062D02*
Y622298D01*
X168914D01*
X171453Y619758D01*
Y614680D01*
X168914Y612141D01*
X161297D01*
X166375D02*
X171453Y607062D01*
X186688Y622298D02*
X176532D01*
Y614680D01*
X181610Y617219D01*
X184149D01*
X186688Y614680D01*
Y609602D01*
X184149Y607062D01*
X179071D01*
X176532Y609602D01*
X191767Y619758D02*
X194306Y622298D01*
X199384D01*
X201923Y619758D01*
Y609602D01*
X199384Y607062D01*
X194306D01*
X191767Y609602D01*
Y619758D01*
X967747Y575312D02*
Y590547D01*
X975364D01*
X977903Y588008D01*
Y582930D01*
X975364Y580391D01*
X967747D01*
X972825D02*
X977903Y575312D01*
X990599D02*
Y590547D01*
X982982Y582930D01*
X993138D01*
X998217Y577852D02*
X1000756Y575312D01*
X1005834D01*
X1008373Y577852D01*
Y588008D01*
X1005834Y590547D01*
X1000756D01*
X998217Y588008D01*
Y585469D01*
X1000756Y582930D01*
X1008373D01*
X967747Y661673D02*
Y676908D01*
X975364D01*
X977903Y674368D01*
Y669290D01*
X975364Y666751D01*
X967747D01*
X972825D02*
X977903Y661673D01*
X990599D02*
Y676908D01*
X982982Y669290D01*
X993138D01*
X998217Y674368D02*
X1000756Y676908D01*
X1005834D01*
X1008373Y674368D01*
Y671829D01*
X1005834Y669290D01*
X1008373Y666751D01*
Y664212D01*
X1005834Y661673D01*
X1000756D01*
X998217Y664212D01*
Y666751D01*
X1000756Y669290D01*
X998217Y671829D01*
Y674368D01*
X1000756Y669290D02*
X1005834D01*
X766767Y151132D02*
Y166367D01*
X774384D01*
X776923Y163828D01*
Y158750D01*
X774384Y156211D01*
X766767D01*
X771845D02*
X776923Y151132D01*
X789619D02*
Y166367D01*
X782002Y158750D01*
X792158D01*
X797237Y166367D02*
X807393D01*
Y163828D01*
X797237Y153672D01*
Y151132D01*
X1303027Y346393D02*
Y361628D01*
X1310644D01*
X1313183Y359088D01*
Y354010D01*
X1310644Y351471D01*
X1303027D01*
X1308105D02*
X1313183Y346393D01*
X1325879D02*
Y361628D01*
X1318262Y354010D01*
X1328418D01*
X1343653Y361628D02*
X1338575Y359088D01*
X1333497Y354010D01*
Y348932D01*
X1336036Y346393D01*
X1341114D01*
X1343653Y348932D01*
Y351471D01*
X1341114Y354010D01*
X1333497D01*
X967747Y703583D02*
Y718818D01*
X975364D01*
X977903Y716278D01*
Y711200D01*
X975364Y708661D01*
X967747D01*
X972825D02*
X977903Y703583D01*
X990599D02*
Y718818D01*
X982982Y711200D01*
X993138D01*
X1008373Y718818D02*
X998217D01*
Y711200D01*
X1003295Y713739D01*
X1005834D01*
X1008373Y711200D01*
Y706122D01*
X1005834Y703583D01*
X1000756D01*
X998217Y706122D01*
X598177Y586743D02*
Y601978D01*
X605794D01*
X608333Y599438D01*
Y594360D01*
X605794Y591821D01*
X598177D01*
X603255D02*
X608333Y586743D01*
X621029D02*
Y601978D01*
X613412Y594360D01*
X623568D01*
X636264Y586743D02*
Y601978D01*
X628647Y594360D01*
X638803D01*
X967747Y640082D02*
Y655318D01*
X975364D01*
X977903Y652778D01*
Y647700D01*
X975364Y645161D01*
X967747D01*
X972825D02*
X977903Y640082D01*
X990599D02*
Y655318D01*
X982982Y647700D01*
X993138D01*
X998217Y652778D02*
X1000756Y655318D01*
X1005834D01*
X1008373Y652778D01*
Y650239D01*
X1005834Y647700D01*
X1003295D01*
X1005834D01*
X1008373Y645161D01*
Y642622D01*
X1005834Y640082D01*
X1000756D01*
X998217Y642622D01*
X753117Y396242D02*
Y411478D01*
X760734D01*
X763273Y408938D01*
Y403860D01*
X760734Y401321D01*
X753117D01*
X758195D02*
X763273Y396242D01*
X775969D02*
Y411478D01*
X768352Y403860D01*
X778508D01*
X793743Y396242D02*
X783587D01*
X793743Y406399D01*
Y408938D01*
X791204Y411478D01*
X786126D01*
X783587Y408938D01*
X1067126Y411483D02*
Y426717D01*
X1074743D01*
X1077282Y424178D01*
Y419100D01*
X1074743Y416561D01*
X1067126D01*
X1072204D02*
X1077282Y411483D01*
X1089978D02*
Y426717D01*
X1082361Y419100D01*
X1092518D01*
X1097596Y411483D02*
X1102674D01*
X1100135D01*
Y426717D01*
X1097596Y424178D01*
X810267Y397513D02*
Y412747D01*
X817884D01*
X820423Y410208D01*
Y405130D01*
X817884Y402591D01*
X810267D01*
X815345D02*
X820423Y397513D01*
X833119D02*
Y412747D01*
X825502Y405130D01*
X835658D01*
X840737Y410208D02*
X843276Y412747D01*
X848354D01*
X850893Y410208D01*
Y400052D01*
X848354Y397513D01*
X843276D01*
X840737Y400052D01*
Y410208D01*
X1371597Y710257D02*
X1356362D01*
Y717874D01*
X1358902Y720413D01*
X1363980D01*
X1366519Y717874D01*
Y710257D01*
Y715335D02*
X1371597Y720413D01*
X1358902Y725492D02*
X1356362Y728031D01*
Y733109D01*
X1358902Y735648D01*
X1361441D01*
X1363980Y733109D01*
Y730570D01*
Y733109D01*
X1366519Y735648D01*
X1369058D01*
X1371597Y733109D01*
Y728031D01*
X1369058Y725492D01*
Y740727D02*
X1371597Y743266D01*
Y748344D01*
X1369058Y750883D01*
X1358902D01*
X1356362Y748344D01*
Y743266D01*
X1358902Y740727D01*
X1361441D01*
X1363980Y743266D01*
Y750883D01*
X1067447Y461012D02*
Y476247D01*
X1075064D01*
X1077603Y473708D01*
Y468630D01*
X1075064Y466091D01*
X1067447D01*
X1072525D02*
X1077603Y461012D01*
X1082682Y473708D02*
X1085221Y476247D01*
X1090299D01*
X1092838Y473708D01*
Y471169D01*
X1090299Y468630D01*
X1087760D01*
X1090299D01*
X1092838Y466091D01*
Y463552D01*
X1090299Y461012D01*
X1085221D01*
X1082682Y463552D01*
X1097917Y473708D02*
X1100456Y476247D01*
X1105534D01*
X1108073Y473708D01*
Y471169D01*
X1105534Y468630D01*
X1108073Y466091D01*
Y463552D01*
X1105534Y461012D01*
X1100456D01*
X1097917Y463552D01*
Y466091D01*
X1100456Y468630D01*
X1097917Y471169D01*
Y473708D01*
X1100456Y468630D02*
X1105534D01*
X557537Y148593D02*
Y163827D01*
X565154D01*
X567693Y161288D01*
Y156210D01*
X565154Y153671D01*
X557537D01*
X562615D02*
X567693Y148593D01*
X572772Y161288D02*
X575311Y163827D01*
X580389D01*
X582928Y161288D01*
Y158749D01*
X580389Y156210D01*
X577850D01*
X580389D01*
X582928Y153671D01*
Y151132D01*
X580389Y148593D01*
X575311D01*
X572772Y151132D01*
X588007Y163827D02*
X598163D01*
Y161288D01*
X588007Y151132D01*
Y148593D01*
X1304297Y172722D02*
Y187957D01*
X1311914D01*
X1314453Y185418D01*
Y180340D01*
X1311914Y177801D01*
X1304297D01*
X1309375D02*
X1314453Y172722D01*
X1319532Y185418D02*
X1322071Y187957D01*
X1327149D01*
X1329688Y185418D01*
Y182879D01*
X1327149Y180340D01*
X1324610D01*
X1327149D01*
X1329688Y177801D01*
Y175262D01*
X1327149Y172722D01*
X1322071D01*
X1319532Y175262D01*
X1344923Y187957D02*
X1339845Y185418D01*
X1334767Y180340D01*
Y175262D01*
X1337306Y172722D01*
X1342384D01*
X1344923Y175262D01*
Y177801D01*
X1342384Y180340D01*
X1334767D01*
X967747Y683262D02*
Y698497D01*
X975364D01*
X977903Y695958D01*
Y690880D01*
X975364Y688341D01*
X967747D01*
X972825D02*
X977903Y683262D01*
X982982Y695958D02*
X985521Y698497D01*
X990599D01*
X993138Y695958D01*
Y693419D01*
X990599Y690880D01*
X988060D01*
X990599D01*
X993138Y688341D01*
Y685802D01*
X990599Y683262D01*
X985521D01*
X982982Y685802D01*
X1008373Y698497D02*
X998217D01*
Y690880D01*
X1003295Y693419D01*
X1005834D01*
X1008373Y690880D01*
Y685802D01*
X1005834Y683262D01*
X1000756D01*
X998217Y685802D01*
X1065537Y523242D02*
Y538478D01*
X1073154D01*
X1075693Y535938D01*
Y530860D01*
X1073154Y528321D01*
X1065537D01*
X1070615D02*
X1075693Y523242D01*
X1080772Y535938D02*
X1083311Y538478D01*
X1088389D01*
X1090928Y535938D01*
Y533399D01*
X1088389Y530860D01*
X1085850D01*
X1088389D01*
X1090928Y528321D01*
Y525782D01*
X1088389Y523242D01*
X1083311D01*
X1080772Y525782D01*
X1103624Y523242D02*
Y538478D01*
X1096007Y530860D01*
X1106163D01*
X1066807Y574043D02*
Y589277D01*
X1074424D01*
X1076963Y586738D01*
Y581660D01*
X1074424Y579121D01*
X1066807D01*
X1071885D02*
X1076963Y574043D01*
X1082042Y586738D02*
X1084581Y589277D01*
X1089659D01*
X1092198Y586738D01*
Y584199D01*
X1089659Y581660D01*
X1087120D01*
X1089659D01*
X1092198Y579121D01*
Y576582D01*
X1089659Y574043D01*
X1084581D01*
X1082042Y576582D01*
X1097277Y586738D02*
X1099816Y589277D01*
X1104894D01*
X1107433Y586738D01*
Y584199D01*
X1104894Y581660D01*
X1102355D01*
X1104894D01*
X1107433Y579121D01*
Y576582D01*
X1104894Y574043D01*
X1099816D01*
X1097277Y576582D01*
X967427Y619762D02*
Y634997D01*
X975044D01*
X977583Y632458D01*
Y627380D01*
X975044Y624841D01*
X967427D01*
X972505D02*
X977583Y619762D01*
X982662Y632458D02*
X985201Y634997D01*
X990279D01*
X992818Y632458D01*
Y629919D01*
X990279Y627380D01*
X987740D01*
X990279D01*
X992818Y624841D01*
Y622302D01*
X990279Y619762D01*
X985201D01*
X982662Y622302D01*
X1008054Y619762D02*
X997897D01*
X1008054Y629919D01*
Y632458D01*
X1005514Y634997D01*
X1000436D01*
X997897Y632458D01*
X1310646Y557533D02*
Y572767D01*
X1318263D01*
X1320802Y570228D01*
Y565150D01*
X1318263Y562611D01*
X1310646D01*
X1315724D02*
X1320802Y557533D01*
X1325881Y570228D02*
X1328420Y572767D01*
X1333498D01*
X1336038Y570228D01*
Y567689D01*
X1333498Y565150D01*
X1330959D01*
X1333498D01*
X1336038Y562611D01*
Y560072D01*
X1333498Y557533D01*
X1328420D01*
X1325881Y560072D01*
X1341116Y557533D02*
X1346194D01*
X1343655D01*
Y572767D01*
X1341116Y570228D01*
X598177Y608332D02*
Y623568D01*
X605794D01*
X608333Y621028D01*
Y615950D01*
X605794Y613411D01*
X598177D01*
X603255D02*
X608333Y608332D01*
X613412Y621028D02*
X615951Y623568D01*
X621029D01*
X623568Y621028D01*
Y618489D01*
X621029Y615950D01*
X618490D01*
X621029D01*
X623568Y613411D01*
Y610872D01*
X621029Y608332D01*
X615951D01*
X613412Y610872D01*
X628647Y621028D02*
X631186Y623568D01*
X636264D01*
X638803Y621028D01*
Y610872D01*
X636264Y608332D01*
X631186D01*
X628647Y610872D01*
Y621028D01*
X1196347Y153673D02*
Y168908D01*
X1203964D01*
X1206503Y166368D01*
Y161290D01*
X1203964Y158751D01*
X1196347D01*
X1201425D02*
X1206503Y153673D01*
X1221738D02*
X1211582D01*
X1221738Y163829D01*
Y166368D01*
X1219199Y168908D01*
X1214121D01*
X1211582Y166368D01*
X1226817Y156212D02*
X1229356Y153673D01*
X1234434D01*
X1236973Y156212D01*
Y166368D01*
X1234434Y168908D01*
X1229356D01*
X1226817Y166368D01*
Y163829D01*
X1229356Y161290D01*
X1236973D01*
X967747Y598172D02*
Y613408D01*
X975364D01*
X977903Y610868D01*
Y605790D01*
X975364Y603251D01*
X967747D01*
X972825D02*
X977903Y598172D01*
X993138D02*
X982982D01*
X993138Y608329D01*
Y610868D01*
X990599Y613408D01*
X985521D01*
X982982Y610868D01*
X998217D02*
X1000756Y613408D01*
X1005834D01*
X1008373Y610868D01*
Y608329D01*
X1005834Y605790D01*
X1008373Y603251D01*
Y600712D01*
X1005834Y598172D01*
X1000756D01*
X998217Y600712D01*
Y603251D01*
X1000756Y605790D01*
X998217Y608329D01*
Y610868D01*
X1000756Y605790D02*
X1005834D01*
X598177Y631193D02*
Y646428D01*
X605794D01*
X608333Y643888D01*
Y638810D01*
X605794Y636271D01*
X598177D01*
X603255D02*
X608333Y631193D01*
X623568D02*
X613412D01*
X623568Y641349D01*
Y643888D01*
X621029Y646428D01*
X615951D01*
X613412Y643888D01*
X628647Y646428D02*
X638803D01*
Y643888D01*
X628647Y633732D01*
Y631193D01*
X967747Y723903D02*
Y739137D01*
X975364D01*
X977903Y736598D01*
Y731520D01*
X975364Y728981D01*
X967747D01*
X972825D02*
X977903Y723903D01*
X993138D02*
X982982D01*
X993138Y734059D01*
Y736598D01*
X990599Y739137D01*
X985521D01*
X982982Y736598D01*
X1008373Y739137D02*
X1003295Y736598D01*
X998217Y731520D01*
Y726442D01*
X1000756Y723903D01*
X1005834D01*
X1008373Y726442D01*
Y728981D01*
X1005834Y731520D01*
X998217D01*
X878847Y398783D02*
Y414017D01*
X886464D01*
X889003Y411478D01*
Y406400D01*
X886464Y403861D01*
X878847D01*
X883925D02*
X889003Y398783D01*
X904238D02*
X894082D01*
X904238Y408939D01*
Y411478D01*
X901699Y414017D01*
X896621D01*
X894082Y411478D01*
X919473Y414017D02*
X909317D01*
Y406400D01*
X914395Y408939D01*
X916934D01*
X919473Y406400D01*
Y401322D01*
X916934Y398783D01*
X911856D01*
X909317Y401322D01*
X932187Y398783D02*
Y414017D01*
X939804D01*
X942343Y411478D01*
Y406400D01*
X939804Y403861D01*
X932187D01*
X937265D02*
X942343Y398783D01*
X957578D02*
X947422D01*
X957578Y408939D01*
Y411478D01*
X955039Y414017D01*
X949961D01*
X947422Y411478D01*
X970274Y398783D02*
Y414017D01*
X962657Y406400D01*
X972813D01*
X289567Y148593D02*
Y163827D01*
X297184D01*
X299723Y161288D01*
Y156210D01*
X297184Y153671D01*
X289567D01*
X294645D02*
X299723Y148593D01*
X314958D02*
X304802D01*
X314958Y158749D01*
Y161288D01*
X312419Y163827D01*
X307341D01*
X304802Y161288D01*
X320037D02*
X322576Y163827D01*
X327654D01*
X330193Y161288D01*
Y158749D01*
X327654Y156210D01*
X325115D01*
X327654D01*
X330193Y153671D01*
Y151132D01*
X327654Y148593D01*
X322576D01*
X320037Y151132D01*
X984257Y151132D02*
Y166367D01*
X991874D01*
X994413Y163828D01*
Y158750D01*
X991874Y156211D01*
X984257D01*
X989335D02*
X994413Y151132D01*
X1009648D02*
X999492D01*
X1009648Y161289D01*
Y163828D01*
X1007109Y166367D01*
X1002031D01*
X999492Y163828D01*
X1024883Y151132D02*
X1014727D01*
X1024883Y161289D01*
Y163828D01*
X1022344Y166367D01*
X1017266D01*
X1014727Y163828D01*
X256546Y527052D02*
Y542287D01*
X264163D01*
X266702Y539748D01*
Y534670D01*
X264163Y532131D01*
X256546D01*
X261624D02*
X266702Y527052D01*
X281938D02*
X271781D01*
X281938Y537209D01*
Y539748D01*
X279398Y542287D01*
X274320D01*
X271781Y539748D01*
X287016Y527052D02*
X292094D01*
X289555D01*
Y542287D01*
X287016Y539748D01*
X373387Y379733D02*
Y394967D01*
X381004D01*
X383543Y392428D01*
Y387350D01*
X381004Y384811D01*
X373387D01*
X378465D02*
X383543Y379733D01*
X398778D02*
X388622D01*
X398778Y389889D01*
Y392428D01*
X396239Y394967D01*
X391161D01*
X388622Y392428D01*
X403857D02*
X406396Y394967D01*
X411474D01*
X414013Y392428D01*
Y382272D01*
X411474Y379733D01*
X406396D01*
X403857Y382272D01*
Y392428D01*
X635006Y397513D02*
Y412747D01*
X642624D01*
X645163Y410208D01*
Y405130D01*
X642624Y402591D01*
X635006D01*
X640085D02*
X645163Y397513D01*
X650241D02*
X655320D01*
X652780D01*
Y412747D01*
X650241Y410208D01*
X662937Y400052D02*
X665476Y397513D01*
X670555D01*
X673094Y400052D01*
Y410208D01*
X670555Y412747D01*
X665476D01*
X662937Y410208D01*
Y407669D01*
X665476Y405130D01*
X673094D01*
X687076Y397513D02*
Y412747D01*
X694694D01*
X697233Y410208D01*
Y405130D01*
X694694Y402591D01*
X687076D01*
X692154D02*
X697233Y397513D01*
X702311D02*
X707390D01*
X704850D01*
Y412747D01*
X702311Y410208D01*
X715007D02*
X717546Y412747D01*
X722625D01*
X725164Y410208D01*
Y407669D01*
X722625Y405130D01*
X725164Y402591D01*
Y400052D01*
X722625Y397513D01*
X717546D01*
X715007Y400052D01*
Y402591D01*
X717546Y405130D01*
X715007Y407669D01*
Y410208D01*
X717546Y405130D02*
X722625D01*
X48586Y171453D02*
Y186688D01*
X56204D01*
X58743Y184148D01*
Y179070D01*
X56204Y176531D01*
X48586D01*
X53664D02*
X58743Y171453D01*
X63821D02*
X68900D01*
X66360D01*
Y186688D01*
X63821Y184148D01*
X76517Y186688D02*
X86674D01*
Y184148D01*
X76517Y173992D01*
Y171453D01*
X1252226Y699772D02*
Y715007D01*
X1259844D01*
X1262383Y712468D01*
Y707390D01*
X1259844Y704851D01*
X1252226D01*
X1257305D02*
X1262383Y699772D01*
X1267461D02*
X1272540D01*
X1270000D01*
Y715007D01*
X1267461Y712468D01*
X1290314Y715007D02*
X1285235Y712468D01*
X1280157Y707390D01*
Y702312D01*
X1282696Y699772D01*
X1287775D01*
X1290314Y702312D01*
Y704851D01*
X1287775Y707390D01*
X1280157D01*
X1066806Y648972D02*
Y664208D01*
X1074424D01*
X1076963Y661668D01*
Y656590D01*
X1074424Y654051D01*
X1066806D01*
X1071885D02*
X1076963Y648972D01*
X1082041D02*
X1087120D01*
X1084580D01*
Y664208D01*
X1082041Y661668D01*
X1104894Y664208D02*
X1094737D01*
Y656590D01*
X1099816Y659129D01*
X1102355D01*
X1104894Y656590D01*
Y651512D01*
X1102355Y648972D01*
X1097276D01*
X1094737Y651512D01*
X599446Y674372D02*
Y689607D01*
X607064D01*
X609603Y687068D01*
Y681990D01*
X607064Y679451D01*
X599446D01*
X604524D02*
X609603Y674372D01*
X614681D02*
X619760D01*
X617220D01*
Y689607D01*
X614681Y687068D01*
X634995Y674372D02*
Y689607D01*
X627377Y681990D01*
X637534D01*
X151136Y836933D02*
Y852168D01*
X158754D01*
X161293Y849628D01*
Y844550D01*
X158754Y842011D01*
X151136D01*
X156215D02*
X161293Y836933D01*
X166371D02*
X171450D01*
X168910D01*
Y852168D01*
X166371Y849628D01*
X179067D02*
X181606Y852168D01*
X186685D01*
X189224Y849628D01*
Y847089D01*
X186685Y844550D01*
X184146D01*
X186685D01*
X189224Y842011D01*
Y839472D01*
X186685Y836933D01*
X181606D01*
X179067Y839472D01*
X144777Y725176D02*
X129543D01*
Y732794D01*
X132082Y735333D01*
X137160D01*
X139699Y732794D01*
Y725176D01*
Y730255D02*
X144777Y735333D01*
Y740411D02*
Y745490D01*
Y742950D01*
X129543D01*
X132082Y740411D01*
X144777Y763264D02*
Y753107D01*
X134621Y763264D01*
X132082D01*
X129543Y760725D01*
Y755646D01*
X132082Y753107D01*
X223525Y740413D02*
Y755648D01*
X231143D01*
X233682Y753108D01*
Y748030D01*
X231143Y745491D01*
X223525D01*
X228604D02*
X233682Y740413D01*
X238760D02*
X243839D01*
X241300D01*
Y755648D01*
X238760Y753108D01*
X251456Y740413D02*
X256535D01*
X253995D01*
Y755648D01*
X251456Y753108D01*
X303536Y741683D02*
Y756917D01*
X311154D01*
X313693Y754378D01*
Y749300D01*
X311154Y746761D01*
X303536D01*
X308615D02*
X313693Y741683D01*
X318771D02*
X323850D01*
X321310D01*
Y756917D01*
X318771Y754378D01*
X331467D02*
X334006Y756917D01*
X339085D01*
X341624Y754378D01*
Y744222D01*
X339085Y741683D01*
X334006D01*
X331467Y744222D01*
Y754378D01*
X304804Y842012D02*
Y857247D01*
X312422D01*
X314961Y854708D01*
Y849630D01*
X312422Y847091D01*
X304804D01*
X309883D02*
X314961Y842012D01*
X320039Y844552D02*
X322578Y842012D01*
X327657D01*
X330196Y844552D01*
Y854708D01*
X327657Y857247D01*
X322578D01*
X320039Y854708D01*
Y852169D01*
X322578Y849630D01*
X330196D01*
X232414Y843282D02*
Y858518D01*
X240032D01*
X242571Y855978D01*
Y850900D01*
X240032Y848361D01*
X232414D01*
X237493D02*
X242571Y843282D01*
X247649Y855978D02*
X250188Y858518D01*
X255267D01*
X257806Y855978D01*
Y853439D01*
X255267Y850900D01*
X257806Y848361D01*
Y845822D01*
X255267Y843282D01*
X250188D01*
X247649Y845822D01*
Y848361D01*
X250188Y850900D01*
X247649Y853439D01*
Y855978D01*
X250188Y850900D02*
X255267D01*
X161294Y561343D02*
Y576577D01*
X168912D01*
X171451Y574038D01*
Y568960D01*
X168912Y566421D01*
X161294D01*
X166373D02*
X171451Y561343D01*
X176529Y576577D02*
X186686D01*
Y574038D01*
X176529Y563882D01*
Y561343D01*
X157484Y676913D02*
Y692148D01*
X165102D01*
X167641Y689608D01*
Y684530D01*
X165102Y681991D01*
X157484D01*
X162563D02*
X167641Y676913D01*
X182876Y692148D02*
X177798Y689608D01*
X172719Y684530D01*
Y679452D01*
X175258Y676913D01*
X180337D01*
X182876Y679452D01*
Y681991D01*
X180337Y684530D01*
X172719D01*
X49534Y223522D02*
Y238757D01*
X57152D01*
X59691Y236218D01*
Y231140D01*
X57152Y228601D01*
X49534D01*
X54612D02*
X59691Y223522D01*
X74926Y238757D02*
X64769D01*
Y231140D01*
X69847Y233679D01*
X72387D01*
X74926Y231140D01*
Y226062D01*
X72387Y223522D01*
X67308D01*
X64769Y226062D01*
X209554Y400052D02*
Y415288D01*
X217172D01*
X219711Y412748D01*
Y407670D01*
X217172Y405131D01*
X209554D01*
X214632D02*
X219711Y400052D01*
X232407D02*
Y415288D01*
X224789Y407670D01*
X234946D01*
X209554Y377192D02*
Y392427D01*
X217172D01*
X219711Y389888D01*
Y384810D01*
X217172Y382271D01*
X209554D01*
X214632D02*
X219711Y377192D01*
X224789Y389888D02*
X227328Y392427D01*
X232407D01*
X234946Y389888D01*
Y387349D01*
X232407Y384810D01*
X229867D01*
X232407D01*
X234946Y382271D01*
Y379732D01*
X232407Y377192D01*
X227328D01*
X224789Y379732D01*
X223524Y466092D02*
Y481328D01*
X231142D01*
X233681Y478788D01*
Y473710D01*
X231142Y471171D01*
X223524D01*
X228603D02*
X233681Y466092D01*
X248916D02*
X238759D01*
X248916Y476249D01*
Y478788D01*
X246377Y481328D01*
X241298D01*
X238759Y478788D01*
X209553Y445773D02*
Y461007D01*
X217171D01*
X219710Y458468D01*
Y453390D01*
X217171Y450851D01*
X209553D01*
X214632D02*
X219710Y445773D01*
X224788D02*
X229867D01*
X227328D01*
Y461007D01*
X224788Y458468D01*
X709933Y162558D02*
X704855D01*
X707394D01*
Y149862D01*
X704855Y147323D01*
X702315D01*
X699776Y149862D01*
X715011Y147323D02*
X720090D01*
X717550D01*
Y162558D01*
X715011Y160018D01*
X737864Y162558D02*
X732785Y160018D01*
X727707Y154940D01*
Y149862D01*
X730246Y147323D01*
X735325D01*
X737864Y149862D01*
Y152401D01*
X735325Y154940D01*
X727707D01*
X1347473Y236217D02*
X1342395D01*
X1344934D01*
Y223522D01*
X1342395Y220982D01*
X1339855D01*
X1337316Y223522D01*
X1352551Y220982D02*
X1357630D01*
X1355090D01*
Y236217D01*
X1352551Y233678D01*
X1375404Y236217D02*
X1365247D01*
Y228600D01*
X1370325Y231139D01*
X1372865D01*
X1375404Y228600D01*
Y223522D01*
X1372865Y220982D01*
X1367786D01*
X1365247Y223522D01*
X1347473Y685798D02*
X1342395D01*
X1344934D01*
Y673102D01*
X1342395Y670563D01*
X1339855D01*
X1337316Y673102D01*
X1352551Y670563D02*
X1357630D01*
X1355090D01*
Y685798D01*
X1352551Y683258D01*
X1372865Y670563D02*
Y685798D01*
X1365247Y678180D01*
X1375404D01*
X495303Y160018D02*
X490224D01*
X492764D01*
Y147322D01*
X490224Y144782D01*
X487685D01*
X485146Y147322D01*
X500381Y144782D02*
X505460D01*
X502920D01*
Y160018D01*
X500381Y157478D01*
X513077D02*
X515616Y160018D01*
X520695D01*
X523234Y157478D01*
Y154939D01*
X520695Y152400D01*
X518156D01*
X520695D01*
X523234Y149861D01*
Y147322D01*
X520695Y144782D01*
X515616D01*
X513077Y147322D01*
X1360172Y13973D02*
Y8895D01*
Y11434D01*
X1372868D01*
X1375408Y8895D01*
Y6355D01*
X1372868Y3816D01*
X1375408Y19051D02*
Y24130D01*
Y21590D01*
X1360172D01*
X1362712Y19051D01*
X1375408Y41904D02*
Y31747D01*
X1365251Y41904D01*
X1362712D01*
X1360172Y39365D01*
Y34286D01*
X1362712Y31747D01*
X1351282Y477518D02*
X1346204D01*
X1348743D01*
Y464822D01*
X1346204Y462282D01*
X1343665D01*
X1341125Y464822D01*
X1356360Y462282D02*
X1361439D01*
X1358900D01*
Y477518D01*
X1356360Y474978D01*
X1369056Y462282D02*
X1374135D01*
X1371595D01*
Y477518D01*
X1369056Y474978D01*
X1160783Y170177D02*
X1155704D01*
X1158244D01*
Y157482D01*
X1155704Y154943D01*
X1153165D01*
X1150626Y157482D01*
X1165861Y154943D02*
X1170940D01*
X1168400D01*
Y170177D01*
X1165861Y167638D01*
X1178557D02*
X1181096Y170177D01*
X1186175D01*
X1188714Y167638D01*
Y157482D01*
X1186175Y154943D01*
X1181096D01*
X1178557Y157482D01*
Y167638D01*
X248921Y163827D02*
X243843D01*
X246382D01*
Y151132D01*
X243843Y148593D01*
X241303D01*
X238764Y151132D01*
X253999D02*
X256538Y148593D01*
X261617D01*
X264156Y151132D01*
Y161288D01*
X261617Y163827D01*
X256538D01*
X253999Y161288D01*
Y158749D01*
X256538Y156210D01*
X264156D01*
X1117601Y750567D02*
X1112523D01*
X1115062D01*
Y737872D01*
X1112523Y735332D01*
X1109983D01*
X1107444Y737872D01*
X1122679Y748028D02*
X1125218Y750567D01*
X1130297D01*
X1132836Y748028D01*
Y745489D01*
X1130297Y742950D01*
X1132836Y740411D01*
Y737872D01*
X1130297Y735332D01*
X1125218D01*
X1122679Y737872D01*
Y740411D01*
X1125218Y742950D01*
X1122679Y745489D01*
Y748028D01*
X1125218Y742950D02*
X1130297D01*
X943611Y166367D02*
X938532D01*
X941072D01*
Y153672D01*
X938532Y151132D01*
X935993D01*
X933454Y153672D01*
X948689Y166367D02*
X958846D01*
Y163828D01*
X948689Y153672D01*
Y151132D01*
X17781Y165098D02*
X12702D01*
X15242D01*
Y152402D01*
X12702Y149862D01*
X10163D01*
X7624Y152402D01*
X33016Y165098D02*
X27938Y162558D01*
X22859Y157480D01*
Y152402D01*
X25398Y149862D01*
X30477D01*
X33016Y152402D01*
Y154941D01*
X30477Y157480D01*
X22859D01*
X129541Y839467D02*
X124462D01*
X127002D01*
Y826772D01*
X124462Y824232D01*
X121923D01*
X119384Y826772D01*
X142237Y824232D02*
Y839467D01*
X134619Y831850D01*
X144776D01*
X16511Y690878D02*
X11432D01*
X13972D01*
Y678182D01*
X11432Y675642D01*
X8893D01*
X6354Y678182D01*
X21589Y688338D02*
X24128Y690878D01*
X29207D01*
X31746Y688338D01*
Y685799D01*
X29207Y683260D01*
X26667D01*
X29207D01*
X31746Y680721D01*
Y678182D01*
X29207Y675642D01*
X24128D01*
X21589Y678182D01*
X321311Y485137D02*
X316232D01*
X318772D01*
Y472442D01*
X316232Y469902D01*
X313693D01*
X311154Y472442D01*
X336546Y469902D02*
X326389D01*
X336546Y480059D01*
Y482598D01*
X334007Y485137D01*
X328928D01*
X326389Y482598D01*
X152400Y278127D02*
X147322D01*
X149861D01*
Y265432D01*
X147322Y262892D01*
X144782D01*
X142243Y265432D01*
X157478Y262892D02*
X162557D01*
X160018D01*
Y278127D01*
X157478Y275588D01*
X17493Y529588D02*
X7337D01*
Y521970D01*
X12415D01*
X7337D01*
Y514352D01*
X22572Y529588D02*
Y514352D01*
X30189D01*
X32728Y516892D01*
Y519431D01*
X30189Y521970D01*
X22572D01*
X30189D01*
X32728Y524509D01*
Y527048D01*
X30189Y529588D01*
X22572D01*
X47964Y514352D02*
X37807D01*
X47964Y524509D01*
Y527048D01*
X45424Y529588D01*
X40346D01*
X37807Y527048D01*
X152402Y543558D02*
X142246D01*
Y535940D01*
X147324D01*
X142246D01*
Y528322D01*
X157481Y543558D02*
Y528322D01*
X165098D01*
X167638Y530862D01*
Y533401D01*
X165098Y535940D01*
X157481D01*
X165098D01*
X167638Y538479D01*
Y541018D01*
X165098Y543558D01*
X157481D01*
X172716Y528322D02*
X177794D01*
X175255D01*
Y543558D01*
X172716Y541018D01*
X243840Y505457D02*
X233683D01*
Y497840D01*
X238762D01*
X233683D01*
Y490223D01*
X248918D02*
X253997D01*
X251458D01*
Y505457D01*
X248918Y502918D01*
X170184Y662937D02*
Y647702D01*
X177802D01*
X180341Y650242D01*
Y660398D01*
X177802Y662937D01*
X170184D01*
X193037Y647702D02*
Y662937D01*
X185419Y655320D01*
X195576D01*
X161294Y600708D02*
Y585472D01*
X168912D01*
X171451Y588012D01*
Y598168D01*
X168912Y600708D01*
X161294D01*
X176529Y598168D02*
X179068Y600708D01*
X184147D01*
X186686Y598168D01*
Y595629D01*
X184147Y593090D01*
X181607D01*
X184147D01*
X186686Y590551D01*
Y588012D01*
X184147Y585472D01*
X179068D01*
X176529Y588012D01*
X49534Y212087D02*
Y196852D01*
X57152D01*
X59691Y199392D01*
Y209548D01*
X57152Y212087D01*
X49534D01*
X74926Y196852D02*
X64769D01*
X74926Y207009D01*
Y209548D01*
X72387Y212087D01*
X67308D01*
X64769Y209548D01*
X179073Y265427D02*
Y250193D01*
X186691D01*
X189230Y252732D01*
Y262888D01*
X186691Y265427D01*
X179073D01*
X194308Y250193D02*
X199387D01*
X196848D01*
Y265427D01*
X194308Y262888D01*
X608333Y665478D02*
X605794Y668018D01*
X600715D01*
X598176Y665478D01*
Y655322D01*
X600715Y652783D01*
X605794D01*
X608333Y655322D01*
X613411Y652783D02*
X618490D01*
X615950D01*
Y668018D01*
X613411Y665478D01*
X626107D02*
X628646Y668018D01*
X633725D01*
X636264Y665478D01*
Y662939D01*
X633725Y660400D01*
X636264Y657861D01*
Y655322D01*
X633725Y652783D01*
X628646D01*
X626107Y655322D01*
Y657861D01*
X628646Y660400D01*
X626107Y662939D01*
Y665478D01*
X628646Y660400D02*
X633725D01*
X786133Y759458D02*
X783594Y761998D01*
X778515D01*
X775976Y759458D01*
Y749302D01*
X778515Y746762D01*
X783594D01*
X786133Y749302D01*
X791211Y746762D02*
X796290D01*
X793750D01*
Y761998D01*
X791211Y759458D01*
X803907Y761998D02*
X814064D01*
Y759458D01*
X803907Y749302D01*
Y746762D01*
X609603Y717548D02*
X607064Y720088D01*
X601985D01*
X599446Y717548D01*
Y707392D01*
X601985Y704853D01*
X607064D01*
X609603Y707392D01*
X614681Y704853D02*
X619760D01*
X617220D01*
Y720088D01*
X614681Y717548D01*
X637534Y720088D02*
X632455Y717548D01*
X627377Y712470D01*
Y707392D01*
X629916Y704853D01*
X634995D01*
X637534Y707392D01*
Y709931D01*
X634995Y712470D01*
X627377D01*
X871833Y500378D02*
X869294Y502918D01*
X864215D01*
X861676Y500378D01*
Y490222D01*
X864215Y487682D01*
X869294D01*
X871833Y490222D01*
X876911Y487682D02*
X881990D01*
X879450D01*
Y502918D01*
X876911Y500378D01*
X899764Y502918D02*
X889607D01*
Y495300D01*
X894686Y497839D01*
X897225D01*
X899764Y495300D01*
Y490222D01*
X897225Y487682D01*
X892146D01*
X889607Y490222D01*
X699772Y487683D02*
X697233Y485144D01*
Y480065D01*
X699772Y477526D01*
X709928D01*
X712467Y480065D01*
Y485144D01*
X709928Y487683D01*
X712467Y492761D02*
Y497840D01*
Y495300D01*
X697233D01*
X699772Y492761D01*
X712467Y513075D02*
X697233D01*
X704850Y505457D01*
Y515614D01*
X675642Y487683D02*
X673102Y485144D01*
Y480065D01*
X675642Y477526D01*
X685798D01*
X688337Y480065D01*
Y485144D01*
X685798Y487683D01*
X688337Y492761D02*
Y497840D01*
Y495300D01*
X673102D01*
X675642Y492761D01*
Y505457D02*
X673102Y507996D01*
Y513075D01*
X675642Y515614D01*
X678181D01*
X680720Y513075D01*
Y510536D01*
Y513075D01*
X683259Y515614D01*
X685798D01*
X688337Y513075D01*
Y507996D01*
X685798Y505457D01*
X652782Y487683D02*
X650242Y485144D01*
Y480065D01*
X652782Y477526D01*
X662938D01*
X665478Y480065D01*
Y485144D01*
X662938Y487683D01*
X665478Y492761D02*
Y497840D01*
Y495300D01*
X650242D01*
X652782Y492761D01*
X665478Y515614D02*
Y505457D01*
X655321Y515614D01*
X652782D01*
X650242Y513075D01*
Y507996D01*
X652782Y505457D01*
X748032Y500378D02*
X745493Y502918D01*
X740415D01*
X737875Y500378D01*
Y490222D01*
X740415Y487682D01*
X745493D01*
X748032Y490222D01*
X753110Y487682D02*
X758189D01*
X755650D01*
Y502918D01*
X753110Y500378D01*
X765806Y487682D02*
X770885D01*
X768345D01*
Y502918D01*
X765806Y500378D01*
X17783Y547368D02*
X15244Y549907D01*
X10165D01*
X7626Y547368D01*
Y537212D01*
X10165Y534673D01*
X15244D01*
X17783Y537212D01*
X22861Y534673D02*
X27940D01*
X25400D01*
Y549907D01*
X22861Y547368D01*
X35557D02*
X38096Y549907D01*
X43175D01*
X45714Y547368D01*
Y537212D01*
X43175Y534673D01*
X38096D01*
X35557Y537212D01*
Y547368D01*
X219711Y570228D02*
X217172Y572767D01*
X212093D01*
X209554Y570228D01*
Y560072D01*
X212093Y557533D01*
X217172D01*
X219711Y560072D01*
X224789D02*
X227328Y557533D01*
X232407D01*
X234946Y560072D01*
Y570228D01*
X232407Y572767D01*
X227328D01*
X224789Y570228D01*
Y567689D01*
X227328Y565150D01*
X234946D01*
X231141Y689608D02*
X228602Y692148D01*
X223523D01*
X220984Y689608D01*
Y679452D01*
X223523Y676913D01*
X228602D01*
X231141Y679452D01*
X236219Y689608D02*
X238758Y692148D01*
X243837D01*
X246376Y689608D01*
Y687069D01*
X243837Y684530D01*
X246376Y681991D01*
Y679452D01*
X243837Y676913D01*
X238758D01*
X236219Y679452D01*
Y681991D01*
X238758Y684530D01*
X236219Y687069D01*
Y689608D01*
X238758Y684530D02*
X243837D01*
X326391Y576578D02*
X323852Y579118D01*
X318773D01*
X316234Y576578D01*
Y566422D01*
X318773Y563882D01*
X323852D01*
X326391Y566422D01*
X331469Y579118D02*
X341626D01*
Y576578D01*
X331469Y566422D01*
Y563882D01*
X218441Y436878D02*
X215902Y439417D01*
X210823D01*
X208284Y436878D01*
Y426722D01*
X210823Y424183D01*
X215902D01*
X218441Y426722D01*
X233676Y439417D02*
X228598Y436878D01*
X223519Y431800D01*
Y426722D01*
X226058Y424183D01*
X231137D01*
X233676Y426722D01*
Y429261D01*
X231137Y431800D01*
X223519D01*
X33021Y405128D02*
X30482Y407668D01*
X25403D01*
X22864Y405128D01*
Y394972D01*
X25403Y392433D01*
X30482D01*
X33021Y394972D01*
X48256Y407668D02*
X38099D01*
Y400050D01*
X43177Y402589D01*
X45717D01*
X48256Y400050D01*
Y394972D01*
X45717Y392433D01*
X40638D01*
X38099Y394972D01*
X262888Y259079D02*
X265427Y261618D01*
Y266697D01*
X262888Y269236D01*
X252732D01*
X250193Y266697D01*
Y261618D01*
X252732Y259079D01*
X250193Y246383D02*
X265427D01*
X257810Y254001D01*
Y243844D01*
X233678Y260349D02*
X236217Y262888D01*
Y267967D01*
X233678Y270506D01*
X223522D01*
X220982Y267967D01*
Y262888D01*
X223522Y260349D01*
X233678Y255271D02*
X236217Y252732D01*
Y247653D01*
X233678Y245114D01*
X231139D01*
X228600Y247653D01*
Y250193D01*
Y247653D01*
X226061Y245114D01*
X223522D01*
X220982Y247653D01*
Y252732D01*
X223522Y255271D01*
X382271Y369568D02*
X379732Y372108D01*
X374653D01*
X372114Y369568D01*
Y359412D01*
X374653Y356872D01*
X379732D01*
X382271Y359412D01*
X397506Y356872D02*
X387349D01*
X397506Y367029D01*
Y369568D01*
X394967Y372108D01*
X389888D01*
X387349Y369568D01*
X382270Y341628D02*
X379731Y344168D01*
X374652D01*
X372113Y341628D01*
Y331472D01*
X374652Y328932D01*
X379731D01*
X382270Y331472D01*
X387348Y328932D02*
X392427D01*
X389888D01*
Y344168D01*
X387348Y341628D01*
M02*
